<svg width="32" height="32" viewBox="0 0 32 32" fill="none" xmlns="http://www.w3.org/2000/svg"><rect width="32" height="32" rx="16" fill="#E6E9F1"/><path d="M15.402 18.354a.285.285 0 0 1-.21-.084.269.269 0 0 1-.084-.196c0-.196.005-.345.014-.448.047-.439.187-.826.42-1.162.234-.336.556-.71.966-1.12.318-.317.551-.579.7-.784a1.21 1.21 0 0 0 .266-.644c.038-.383-.088-.686-.378-.91-.28-.224-.62-.336-1.022-.336-.905 0-1.451.453-1.638 1.358-.065.215-.2.322-.406.322h-1.218a.324.324 0 0 1-.238-.098.373.373 0 0 1-.084-.252c.019-.513.173-.994.462-1.442.299-.448.724-.807 1.274-1.078.551-.28 1.2-.42 1.946-.42.775 0 1.41.126 1.904.378.504.243.868.555 1.092.938.234.383.35.78.35 1.19 0 .467-.107.873-.322 1.218-.205.345-.513.742-.924 1.19a8.524 8.524 0 0 0-.7.826 1.958 1.958 0 0 0-.322.728c-.037.233-.06.392-.07.476a.768.768 0 0 1-.154.266c-.056.056-.135.084-.238.084h-1.386zM15.36 21a.324.324 0 0 1-.238-.098.324.324 0 0 1-.098-.238v-1.246c0-.093.033-.173.098-.238a.324.324 0 0 1 .238-.098h1.386c.094 0 .173.033.238.098a.305.305 0 0 1 .112.238v1.246a.324.324 0 0 1-.098.238.341.341 0 0 1-.252.098H15.36z" fill="#96A2B7"/></svg>