<svg id="Слой_1" xmlns="http://www.w3.org/2000/svg" viewBox="0 0 32 32"><style>.st0{fill:#e6e9f1}.st1{fill:#9ba7bb}</style><path class="st0" d="M16 0c8.8 0 16 7.2 16 16s-7.2 16-16 16S0 24.8 0 16 7.2 0 16 0z"/><path class="st1" d="M17.1 5v2.2c4.8.6 8.3 5 7.7 9.8-.5 4-3.7 7.2-7.7 7.7v2.2c6.1-.6 10.5-6 9.9-12.1-.6-5.2-4.7-9.3-9.9-9.8m-2.2 0c-2.2.2-4.2 1-5.9 2.4L10.6 9c1.2-1 2.7-1.6 4.3-1.9V5M7.4 9C6 10.7 5.2 12.7 5 14.9h2.2c.2-1.6.8-3.1 1.8-4.3L7.4 9M5 17.1c.2 2.2 1.1 4.2 2.4 5.9L9 21.4c-1-1.2-1.6-2.7-1.8-4.3H5m5.6 5.9L9 24.5c1.7 1.4 3.7 2.3 5.9 2.5v-2.2c-1.6-.2-3.1-.8-4.3-1.8m5.9-12.5v5.8l5 2.9-.8 1.4-5.8-3.5v-6.6h1.6z"/></svg>