<svg fill="none" viewBox="0 0 361 288" xmlns="http://www.w3.org/2000/svg"><path d="M129.72 277.23c84.824 26.54 168.62 5.615 219.21-81.66 20.389-35.175 14.001-98.687-21.972-123-32.407-21.906-80.919-18.649-103.73-27.56-23.505-9.187-35.544-30.47-65.917-40.83-41.9-14.291-90.444 10.208-117.02 46.955-67.317 93.083 11.242 201.6 89.422 226.1z" fill="#DFF0FF"/><path d="M327.86 225.95c-25.304-8.095-57.915-1.654-69.004 1.02-19.049 4.573-56.208 26.714-76.095 4.849-14.952-16.455-24.354-53.079-67.593-63.961-43.526-10.922-37.169-55.764-45.876-73.055-6.745-13.392-8.574-32.797-31.313-40.32-63.096 92.317 14.492 198.57 91.742 222.77 73.929 23.151 147.08 10.187 198.14-51.303z" fill="#80CCFF"/><path d="M51.404 222.58c-16.004-9.983-34.41-2.195-36.709-11.229-1.604-6.226 9.934-4.889 9.392-6.614-2.238-7.145-20.143-6.125-21.247-12.76-2.044-12.147 17.097-3.572 17.527-7.655.807-7.564-22.023-17.088-19.417-28.755 2.606-11.667 13.735 1.235 19.08-6.043 4.578-6.257-3.383-16.179-5.999-34.267-2.126-14.668.828-30.622 10.363-32.664 8.758-1.848 5.927 36.962 12.57 37.033 2.044 0 5.468-16.005 11.773-14.75 13.602 2.705-9.3 33.012 3.945 41.576 3.066 2.041 14.522-8.064 21.46-5.165 6.94 2.899 7.022 19.925 5.591 28.581-1.43 8.656-9.576 42.504-9.576 42.504L51.404 222.58z" fill="#213A6D"/><path d="M62.237 216.76C34.45 178.91 18.057 105.38 23.903 82.5l1.022.245c-5.805 22.722 10.526 95.758 38.17 133.41l-.858.603z" fill="#fff" opacity=".38" style="mix-blend-mode:overlay"/><path d="M74.153 141.32c-6.96-2.899-18.395 7.146-21.461 5.165-13.286-8.564 9.658-38.87-3.945-41.575-6.305-1.256-9.698 14.77-11.773 14.75a1.325 1.325 0 0 1-.388-.082c-1.911 7.258-3.413 14.128-3.567 18.374-.47 12.606 10.424 21.089 13.388 30.99 2.964 9.901-3.934 9.963-6.847 23.12-1.952 8.758 1.175 15.454 1.022 26.54a28.686 28.686 0 0 1 10.823 3.981l18.753-10.208s8.176-33.766 9.596-42.453c1.42-8.687 1.38-25.703-5.6-28.602z" fill="#11175B" opacity=".25" style="mix-blend-mode:overlay"/><path d="M334.32 148.12c3.685 0 6.671-2.983 6.671-6.661 0-3.679-2.986-6.661-6.671-6.661s-6.671 2.982-6.671 6.661c0 3.678 2.986 6.661 6.671 6.661z" fill="#2E9DFF"/><path d="M101.09 152.02a5.113 5.113 0 0 1-4.72-3.15 5.098 5.098 0 0 1 1.107-5.563 5.117 5.117 0 0 1 7.862.774 5.102 5.102 0 0 1-4.249 7.939zm0-9.187a4.088 4.088 0 0 0-4.01 4.88 4.087 4.087 0 0 0 8.098-.797 4.09 4.09 0 0 0-4.088-4.032v-.051zm16.87 16.627a5.116 5.116 0 0 1-4.721-3.151 5.1 5.1 0 0 1 3.724-6.958 5.103 5.103 0 1 1 .997 10.109zm0-9.136a4.086 4.086 0 0 0-4.009 4.88 4.09 4.09 0 0 0 7.408 1.472 4.083 4.083 0 0 0-3.399-6.352zm10.79-6.674a5.112 5.112 0 0 1-4.721-3.151 5.098 5.098 0 0 1 1.107-5.562 5.111 5.111 0 0 1 8.723 3.609 5.102 5.102 0 0 1-5.109 5.104zm0-9.187a4.092 4.092 0 0 0-3.777 2.52 4.083 4.083 0 0 0 2.979 5.567 4.09 4.09 0 0 0 4.196-1.736c.45-.671.689-1.461.689-2.268a4.079 4.079 0 0 0-1.211-2.861 4.09 4.09 0 0 0-2.876-1.181v-.041zm8.23-10.693a5.112 5.112 0 0 1-4.721-3.151 5.098 5.098 0 0 1 1.108-5.562 5.108 5.108 0 0 1 5.568-1.107 5.105 5.105 0 0 1 3.155 4.716c0 1.353-.539 2.652-1.497 3.609s-2.258 1.495-3.613 1.495zm0-9.136a4.086 4.086 0 0 0-4.009 4.879 4.081 4.081 0 0 0 3.211 3.208 4.09 4.09 0 0 0 4.886-4.004 4.087 4.087 0 0 0-4.088-4.083zm14.1 24.436a5.12 5.12 0 0 1-2.839-.86 5.096 5.096 0 0 1-2.173-5.24 5.105 5.105 0 0 1 4.015-4.01 5.109 5.109 0 0 1 6.106 5.006c0 1.354-.538 2.652-1.496 3.609s-2.258 1.495-3.613 1.495zm0-9.136a4.092 4.092 0 0 0-3.777 2.521 4.08 4.08 0 0 0 2.979 5.567 4.098 4.098 0 0 0 4.197-1.737 4.077 4.077 0 0 0-.509-5.155 4.087 4.087 0 0 0-2.89-1.196zM87.112 169.27a5.106 5.106 0 0 1-5.012-6.1 5.103 5.103 0 0 1 4.015-4.01 5.11 5.11 0 0 1 6.107 5.006c0 1.353-.539 2.652-1.497 3.609s-2.258 1.495-3.613 1.495zm0-9.187a4.088 4.088 0 0 0-3.777 2.52 4.078 4.078 0 0 0 .886 4.45 4.089 4.089 0 0 0 6.979-2.887 4.09 4.09 0 0 0-4.088-4.032v-.051zM112.12 134.5a5.112 5.112 0 0 1-4.721-3.151 5.098 5.098 0 0 1 1.107-5.562 5.115 5.115 0 0 1 7.862.773 5.097 5.097 0 0 1-.635 6.445 5.113 5.113 0 0 1-3.613 1.495zm0-9.187a4.086 4.086 0 0 0-4.01 4.879 4.083 4.083 0 0 0 3.212 3.208 4.09 4.09 0 0 0 4.197-1.736 4.079 4.079 0 0 0 .688-2.268 4.089 4.089 0 0 0-4.087-4.032v-.051zm30.29 31.277a5.111 5.111 0 0 1-4.721-3.151 5.098 5.098 0 0 1 1.107-5.562 5.115 5.115 0 0 1 7.862.774 5.1 5.1 0 0 1-.635 6.444 5.113 5.113 0 0 1-3.613 1.495zm0-9.187a4.094 4.094 0 0 0-3.777 2.521 4.08 4.08 0 0 0 .886 4.449 4.095 4.095 0 0 0 4.455.885 4.083 4.083 0 0 0 2.524-3.772 4.084 4.084 0 0 0-4.088-4.042v-.041zM129.2 176.32a5.111 5.111 0 0 1-4.721-3.15 5.098 5.098 0 0 1 1.108-5.562 5.108 5.108 0 0 1 5.568-1.107 5.11 5.11 0 0 1 3.155 4.716 5.105 5.105 0 0 1-3.155 4.715 5.122 5.122 0 0 1-1.955.388zm0-9.186a4.086 4.086 0 0 0-4.01 4.879 4.083 4.083 0 0 0 3.212 3.208 4.09 4.09 0 0 0 4.886-4.004 4.084 4.084 0 0 0-4.088-4.043v-.04zm18.88 8.766a5.11 5.11 0 0 1-4.72-3.15 5.098 5.098 0 0 1 1.107-5.562 5.111 5.111 0 0 1 8.723 3.609 5.104 5.104 0 0 1-5.11 5.103zm0-9.186a4.091 4.091 0 0 0-3.776 2.52 4.083 4.083 0 0 0 2.979 5.567 4.09 4.09 0 0 0 4.196-1.736c.45-.671.689-1.461.689-2.268a4.082 4.082 0 0 0-4.088-4.032v-.051zm-42.84 9.606a5.111 5.111 0 0 1-4.721-3.15 5.098 5.098 0 0 1 1.107-5.562 5.115 5.115 0 0 1 7.862.773 5.1 5.1 0 0 1-.635 6.444 5.109 5.109 0 0 1-3.613 1.495zm0-9.186a4.086 4.086 0 0 0-4.01 4.879 4.083 4.083 0 0 0 3.212 3.208 4.09 4.09 0 0 0 4.886-4.004 4.084 4.084 0 0 0-4.088-4.043v-.04zm11.46 24.086a5.111 5.111 0 0 1-4.721-3.15 5.098 5.098 0 0 1 1.108-5.563 5.114 5.114 0 0 1 7.861.774 5.095 5.095 0 0 1-.635 6.444 5.113 5.113 0 0 1-3.613 1.495zm0-9.136a4.087 4.087 0 0 0-4.01 4.88 4.083 4.083 0 0 0 3.212 3.208 4.09 4.09 0 0 0 4.886-4.005 4.081 4.081 0 0 0-1.198-2.887 4.091 4.091 0 0 0-2.89-1.196zm29.44 21.016a5.115 5.115 0 0 1-4.721-3.151 5.098 5.098 0 0 1 1.108-5.562 5.112 5.112 0 0 1 8.723 3.609 5.099 5.099 0 0 1-1.497 3.609 5.113 5.113 0 0 1-3.613 1.495zm0-9.136a4.089 4.089 0 0 0-3.777 2.52 4.08 4.08 0 0 0 .887 4.45 4.086 4.086 0 0 0 6.978-2.887 4.081 4.081 0 0 0-4.088-4.053v-.03zm-26.65 19.826a5.111 5.111 0 0 1-4.721-3.151 5.094 5.094 0 0 1 1.108-5.562 5.116 5.116 0 0 1 7.861.774 5.095 5.095 0 0 1-.635 6.444 5.113 5.113 0 0 1-3.613 1.495zm0-9.136a4.094 4.094 0 0 0-3.777 2.521 4.08 4.08 0 0 0 .886 4.449 4.095 4.095 0 0 0 4.455.885 4.088 4.088 0 0 0 2.524-3.772 4.087 4.087 0 0 0-4.088-4.083zM91.598 188.9a5.113 5.113 0 0 1-4.72-3.151 5.095 5.095 0 0 1 1.107-5.562 5.117 5.117 0 0 1 7.862.774 5.098 5.098 0 0 1-.636 6.444 5.114 5.114 0 0 1-3.613 1.495zm0-9.136a4.088 4.088 0 0 0-4.01 4.88 4.095 4.095 0 0 0 5.574 2.976 4.082 4.082 0 0 0 2.523-3.773 4.09 4.09 0 0 0-4.088-4.042v-.041zm-18.107 6.786a5.113 5.113 0 0 1-4.72-3.151 5.1 5.1 0 0 1 1.107-5.562 5.11 5.11 0 0 1 8.723 3.609c0 1.354-.539 2.652-1.497 3.609s-2.258 1.495-3.613 1.495zm0-9.136a4.088 4.088 0 0 0-4.01 4.88 4.095 4.095 0 0 0 5.574 2.975 4.087 4.087 0 0 0 2.524-3.772 4.09 4.09 0 0 0-4.088-4.083zM58.487 196.04a5.113 5.113 0 0 1-4.72-3.151 5.096 5.096 0 0 1 1.107-5.562 5.117 5.117 0 0 1 7.862.774 5.098 5.098 0 0 1-.636 6.444 5.114 5.114 0 0 1-3.613 1.495zm0-9.187a4.088 4.088 0 0 0-4.01 4.88 4.095 4.095 0 0 0 5.574 2.976 4.082 4.082 0 0 0-1.564-7.856zm24.047 18.817a5.112 5.112 0 0 1-4.72-3.151 5.094 5.094 0 0 1 1.107-5.562 5.117 5.117 0 0 1 7.862.774 5.098 5.098 0 0 1-.636 6.444 5.114 5.114 0 0 1-3.613 1.495zm0-9.187a4.088 4.088 0 0 0-4.01 4.88 4.08 4.08 0 0 0 3.213 3.208 4.089 4.089 0 0 0 4.885-4.005 4.09 4.09 0 0 0-4.088-4.032v-.051zm-29.84-19.733a5.112 5.112 0 0 1-4.72-3.151 5.094 5.094 0 0 1 1.107-5.562 5.117 5.117 0 0 1 7.862.774 5.098 5.098 0 0 1-.636 6.444 5.114 5.114 0 0 1-3.613 1.495zm0-9.136a4.088 4.088 0 0 0-4.01 4.88 4.095 4.095 0 0 0 5.574 2.976 4.09 4.09 0 0 0 2.524-3.773c0-1.083-.43-2.121-1.197-2.887s-1.807-1.196-2.891-1.196zm38.904-36.134a5.113 5.113 0 0 1-4.72-3.151 5.095 5.095 0 0 1 1.107-5.562 5.117 5.117 0 0 1 7.862.774 5.098 5.098 0 0 1-.636 6.444 5.114 5.114 0 0 1-3.613 1.495zm0-9.136a4.088 4.088 0 0 0-4.01 4.88 4.086 4.086 0 0 0 5.574 2.976 4.09 4.09 0 0 0 2.524-3.773c0-1.083-.43-2.121-1.197-2.887s-1.807-1.196-2.891-1.196zm-20.816 9.136a5.113 5.113 0 0 1-4.72-3.151 5.095 5.095 0 0 1 1.107-5.562 5.117 5.117 0 0 1 7.862.774 5.098 5.098 0 0 1-.636 6.444 5.114 5.114 0 0 1-3.613 1.495zm0-9.136a4.088 4.088 0 0 0-4.01 4.88 4.086 4.086 0 0 0 5.574 2.976 4.09 4.09 0 0 0 2.524-3.773c0-1.083-.43-2.121-1.197-2.887s-1.807-1.196-2.891-1.196zM60.725 149.23a5.113 5.113 0 0 1-4.72-3.151 5.095 5.095 0 0 1 1.107-5.562 5.117 5.117 0 0 1 7.862.774 5.099 5.099 0 0 1-.636 6.444 5.114 5.114 0 0 1-3.613 1.495zm0-9.187a4.088 4.088 0 0 0-4.01 4.88 4.095 4.095 0 0 0 5.574 2.976 4.082 4.082 0 0 0 2.524-3.773 4.09 4.09 0 0 0-4.088-4.042v-.041zM105.24 117.2a5.102 5.102 0 0 1-.997-10.11 5.109 5.109 0 0 1 6.106 5.006c0 1.354-.538 2.652-1.496 3.609s-2.258 1.495-3.613 1.495zm0-9.187a4.086 4.086 0 0 0-4.01 4.88 4.095 4.095 0 0 0 5.574 2.975 4.089 4.089 0 0 0 2.524-3.772 4.085 4.085 0 0 0-4.088-4.032v-.051zm-24.3 37.737a5.114 5.114 0 0 1-4.72-3.151 5.1 5.1 0 0 1 1.107-5.562 5.11 5.11 0 0 1 8.723 3.609c0 1.353-.539 2.652-1.497 3.609s-2.258 1.495-3.613 1.495zm0-9.136a4.089 4.089 0 0 0-3.777 2.52 4.079 4.079 0 0 0 .886 4.45 4.089 4.089 0 0 0 6.978-2.887 4.08 4.08 0 0 0-1.196-2.887 4.09 4.09 0 0 0-2.891-1.196zM45.069 161.51a5.112 5.112 0 0 1-4.72-3.151 5.098 5.098 0 0 1 1.107-5.562 5.11 5.11 0 0 1 8.723 3.609c0 1.354-.539 2.652-1.497 3.609s-2.258 1.495-3.613 1.495zm0-9.136a4.088 4.088 0 0 0-4.01 4.88 4.095 4.095 0 0 0 5.574 2.975 4.084 4.084 0 0 0 2.524-3.772c0-1.083-.43-2.121-1.197-2.887s-1.807-1.196-2.891-1.196zm37.465-38.914a5.112 5.112 0 0 1-4.72-3.151 5.097 5.097 0 0 1 1.107-5.562 5.11 5.11 0 0 1 8.723 3.609 5.1 5.1 0 0 1-1.497 3.609 5.114 5.114 0 0 1-3.613 1.495zm0-9.187a4.088 4.088 0 0 0-4.01 4.88 4.08 4.08 0 0 0 3.213 3.208 4.097 4.097 0 0 0 4.196-1.736c.45-.672.689-1.461.689-2.269a4.08 4.08 0 0 0-4.088-4.042v-.041zM68.922 165.72a5.105 5.105 0 0 1-5.012-6.1 5.103 5.103 0 0 1 4.015-4.01 5.11 5.11 0 0 1 6.107 5.006 5.102 5.102 0 0 1-1.497 3.609 5.114 5.114 0 0 1-3.613 1.495zm0-9.187a4.089 4.089 0 0 0-3.777 2.52 4.079 4.079 0 0 0 .886 4.45 4.089 4.089 0 0 0 6.978-2.887 4.09 4.09 0 0 0-4.088-4.032v-.051z" opacity=".19" fill="#2E9DFF"/><path d="M79.518 207.27c7.154 3.746 39.979 2.235 50.199.878l10.22-1.368 12.642 72.637s-26.122-7.646-41.697-15.812c-15.575-8.166-33.132-22.038-33.132-22.038l1.768-34.297z" fill="#213A6D"/><path d="M129.72 180.61c-1.737 7.145-6.132 23.702-3.158 29.602 4.354 8.676 8.779 8.625 9.975 16.791.592 4.083-3.577 15.526-1.707 23.692 3.066 13.474 16.178 32.399 16.178 32.399l14.307 2.48s5.263-17.526 4.242-25.345c-1.022-7.819-7.001-17.037-7.492-20.079-.838-5.318 5.897-15.525 3.169-22.671-2.729-7.145-19.121-18.179-22.913-21.599-5.273-4.767-8.176-12.249-8.513-15.311s-3.597-1.97-4.088.041z" fill="#2E9DFF"/><path d="M160.42 285.1c-.491-1.082-12.008-26.641-13.286-33.981-.766-4.399.624-9.533 1.963-14.505a43.716 43.716 0 0 0 1.911-9.636c.173-6.675-3.066-10.085-10.567-15.188-9.617-6.564-9.515-25.366-9.055-33.104l1.022.062c-.47 7.584-.593 25.917 8.595 32.225 7.756 5.318 11.19 8.901 11.006 16.057a45.175 45.175 0 0 1-1.942 9.87c-1.318 4.859-2.677 9.891-1.952 14.066 1.257 7.207 13.102 33.471 13.225 33.685l-.92.449z" fill="#80CCFF"/><path d="M86.141 157.01c-4.578 11.585-8.697 22.456-2.565 28.918 6.132 6.461 2.044 15.719 1.747 22.865-.296 7.145-2.698 17.557 4.794 23.334 7.49 5.778 7.644 6.747 10.116 17.292 2.475 10.544 2.536 13.504 6.746 15.821 4.21 2.318 39.275 13.923 39.275 13.923s-3.24-27.325-8.861-38.788c-7.828-15.996-15.871-13.27-19.755-20.926-2.35-4.634-.848-19.231-6.47-29.775-3.167-5.951-17.372-12.586-20.101-18.619-1.636-3.623-1.36-12.688-2.382-14.045-1.022-1.358-1.614-2.358-2.544 0zm83.569 124.31c4.64-10.881 7.021-18.71 11.794-20.415 4.772-1.704 4.425 4.43 2.381 8.166s-10.598 13.954-10.598 13.954l-3.577-1.705z" fill="#2E9DFF"/><path d="M131.19 272.94c0-.255-1.85-25.805-7.297-32.235a111.473 111.473 0 0 0-8.666-8.575c-4.957-4.562-9.637-8.88-11.007-12.147-1.226-2.909-1.022-5.389-.828-8.247a38.616 38.616 0 0 0-.224-9.565c-.9-5.859-4.548-9.187-8.769-13.137a63.564 63.564 0 0 1-5.938-6.002c-6.356-7.625-2.871-20.905-1.206-27.295l1.022.255c-1.502 5.737-5.017 19.17 1.022 26.387a62.915 62.915 0 0 0 5.846 5.91c4.18 3.858 8.176 7.513 9.085 13.729.484 3.241.563 6.529.235 9.789-.214 2.848-.378 5.104.746 7.788 1.288 3.063 6.132 7.493 10.752 11.79a108.717 108.717 0 0 1 8.758 8.656c5.662 6.686 7.47 31.766 7.542 32.828l-1.073.071z" fill="#80CCFF"/><path d="M14.695 133.74c5.187 0 9.392-4.199 9.392-9.38s-4.205-9.381-9.392-9.381c-5.187 0-9.392 4.2-9.392 9.381s4.205 9.38 9.392 9.38z" fill="#E7E586"/><path d="M57.495 227c-11.242.796-16.147 6.686-16.004 12.708.082 3.9 4.272 7.146 9.954 7.411-.337-2.45-.419-5.532-.419-5.532l3.873 5.297a17.91 17.91 0 0 0 2.596-.612c8.523-2.726 17.598-4.389 27.47-1.327l-.112-.694c-.757-4.859-5.59-9.259-9.893-12.454A25.913 25.913 0 0 0 57.494 227z" fill="#2E9DFF"/><path d="M189.73 204.07c1.768-9.084 8.043-27.764 8.288-28.785.246-1.021-.357-7.36 2.402-13.933 2.759-6.574 9.75-17.516 11.599-19.619 1.85-2.103 3.69-4.553 5.11-4.134.399.112-.695 4.338-1.666 6.216-1.768 3.44-4.864 7.36-5.641 9.187a6.755 6.755 0 0 0-.194 3.93s4.088-3.532 6.132-4.379a14.02 14.02 0 0 0 3.669-2.338s4.864-8.748 5.661-9.625c.798-.878 3.475-9.892 5.11-9.187 1.635.704-1.022 9.289-1.563 11.024-.542 1.735-2.893 7.88-2.893 7.88l-1.021 1.644 1.676-1.746a41.103 41.103 0 0 1 1.829-5.318c.92-1.929 1.972-4.226 1.972-4.226s4.19-9.932 5.529-9.268c2.821 1.408-1.768 9.962-2.136 11.483s-4.742 12.076-4.997 12.821c-.256.745.541 1.092.541 1.092a23.257 23.257 0 0 1 2.177-4.736 15.873 15.873 0 0 0 1.738-3.318 35.348 35.348 0 0 1 2.79-6.982c1.676-2.807 3.065-2.48 3.311-1.755.245.724-2.545 8.502-3.158 10.37s-2.044 5.951-2.044 5.951 3.679-6.226 4.813-5.022c1.135 1.205-2.902 7.891-3.066 8.524-.163.633-3.822 5.787-4.384 6.716s-4.456 6.707-5.314 7.84-4.619 5.277-6.53 7.635a30.898 30.898 0 0 1-4.763 4.481l-6.786 23.13-18.191-5.553z" fill="#EDB9AE"/><path d="M68.875 167.78c8.309-3.572 51.354-.418 51.354-.418s41.645 8.584 47.266 19.302c7.665 14.618 9.709 65.584 9.709 65.584l3.985 32.144c-49.892-7.217-104.26-26.786-135.97-81.499-1.68-2.933 2.965-12.952 5.189-17.762 4.282-6.115 10.73-13.982 18.467-17.351z" fill="#E88F80"/><path d="M153.25 277.92c7.879-17.159 37.752-87.683 37.752-87.683l23.505 8.932-21.952 86.488a169.554 169.554 0 0 1-39.305-7.737z" fill="#E18374"/><path d="M104.65 166.53l6.571.316c2.381-7.145 4.67-17.587 3.066-27.928-4.231.654-5.11-3.94-6.132-8.033-.746-2.97-.092-4.777 1.881-6.125-1.135-1.898-1.748-4.634-.419-8.421 3.137-8.901 31.067-17.557 31.067-17.557.665 17.026 6.766 26.183 6.132 34.849a17.784 17.784 0 0 1-2.276 7.3 17.83 17.83 0 0 1-5.133 5.674l.358 23.977c.117.592.141 1.198.071 1.797l5.11 1.623c-1.165 4.481-10.874 12.392-20.071 11.371-9.198-1.021-17.885-7.942-19.162-11.371a20.99 20.99 0 0 1-1.063-7.472z" fill="#EDB9AE"/><path d="M123.78 193.5c9.147 0 21.799-4.083 25.938-16.332l-1.022-.327c-4.436 13.158-19.142 16.496-27.92 15.516-5.703-.633-14.574-5.043-19.786-11.953-3.362-4.461-4.64-9.187-3.801-14.036l-1.023-.173c-.868 5.104.511 10.207 3.996 14.821 5.386 7.146 14.574 11.698 20.491 12.351a28.89 28.89 0 0 0 3.127.133zm64.64 2.74l24.755 8.359-.328.967-24.755-8.359.328-.967z" fill="#fff" opacity=".76"/><path d="M307.63 245.48c-2.885-10.238-9.894-27.868-24.753-32.754-24.948-8.208-45.359 1.385-54.8 7.236a4.176 4.176 0 0 0-1.457 5.596c.348.623.85 1.147 1.457 1.522 4.678 2.84 8.389 6.139 9.27 9.438 1.091 4.069 5.995 26.743 8.973 32.633 20.746 3.182 39.052-16.707 61.31-23.671z" fill="#4073BF"/><path d="M254.33 226.75c.105-14.696.647-28.082 2.012-33.898a.702.702 0 0 0-1.365-.32c-1.434 6.113-1.994 19.639-2.099 34.399a2.418 2.418 0 0 1 1.452-.181z" fill="#2E9DFF"/><path d="M257.62 190.66c-.519 2.911-2.449 6.463-3.161 6.34-.711-.122-1.329-4.075-.81-7.039s2.63-8.693 3.557-8.53c.834.146.939 6.283.414 9.229zm-6.08 12.76c1.79 2.113 3.149 5.578 2.636 6.009-.513.43-3.703-1.491-5.493-3.605-1.791-2.113-4.631-7.033-3.966-7.569.665-.535 5.033 3.045 6.823 5.165zm8.94 5.21c-2.199 2.428-6.042 4.564-6.631 4.035-.589-.53 1.166-4.565 3.353-6.987 2.187-2.423 7.506-6.527 8.27-5.823.764.705-2.8 6.329-4.992 8.775zm.74 16.27c-2.916 2.073-7.505 3.453-8.007 2.748-.501-.705 2.286-4.576 5.202-6.661 2.916-2.084 9.529-5.199 10.176-4.291.648.908-4.467 6.137-7.371 8.204zm33.16 9.99h.06a.458.458 0 0 0 .278-.428.437.437 0 0 0-.039-.174c-1.168-2.714-.663-5.889 0-9.91.707-4.413 1.588-9.905.414-16.7-1.24-7.196-7.187-13.758-10.742-17.676-.608-.673-1.13-1.248-1.565-1.758-2.718-3.159-7.382-10.882-7.708-19.772a66.696 66.696 0 0 1 .544-9.443c.543-5.302 1.087-10.311-.832-14.61a.457.457 0 0 0-.837.369c1.821 4.076 1.299 8.966.75 14.143a67.578 67.578 0 0 0-.544 9.579c.337 9.14 5.143 17.08 7.931 20.331.44.515.968 1.085 1.582 1.78 3.484 3.842 9.317 10.279 10.513 17.209 1.147 6.648.282 12.059-.413 16.406-.669 4.163-1.196 7.457.081 10.415a.462.462 0 0 0 .527.239z" fill="#2E9DFF"/><path d="M286.93 210.22c3.071 2.144 7.903 3.55 8.425 2.806.522-.743-2.462-4.787-5.528-6.958-3.066-2.17-10.04-5.367-10.714-4.406-.603.89 4.751 6.415 7.817 8.558zm-.96 15.66c2.36 2.904 6.616 5.585 7.322 5.015.707-.57-1.043-5.281-3.397-8.19s-8.154-7.918-9.078-7.18c-.826.662 2.794 7.446 5.153 10.355zm11.36-25.78c-1.946 3.196-3.044 8.097-2.267 8.569.778.472 4.632-2.757 6.578-5.97s4.718-10.344 3.712-10.952c-.902-.521-6.077 5.172-8.023 8.353zm-26.62-26.98c1.821 2.09 5.039 3.962 5.55 3.522.511-.439-.908-3.886-2.718-5.97s-6.246-5.655-6.898-5.085 2.25 5.444 4.066 7.533zm-.77-13.08c1.669 1.916 4.615 3.631 5.077 3.256.462-.374-.826-3.56-2.495-5.47-1.669-1.911-5.719-5.172-6.322-4.651s2.071 4.949 3.74 6.865zm3.89-14.72c.217 2.22 1.456 4.944 1.995 4.885.538-.06 1.217-2.969.994-5.189s-1.467-6.61-2.174-6.512c-.707.097-1.049 4.607-.815 6.816zm3.26 9.56c-1.691 1.899-3.012 5.036-2.555 5.427s3.425-1.275 5.11-3.175c1.685-1.899 4.403-6.328 3.805-6.854-.598-.527-4.691 2.708-6.36 4.602z" fill="#2E9DFF"/><path d="M277.73 170.13c-1.489 2.029-2.5 5.259-2.011 5.622.489.364 3.262-1.59 4.756-3.625 1.495-2.035 3.757-6.676 3.115-7.137-.641-.461-4.376 3.088-5.86 5.14zm6.16 14.12c-.44 3.039.316 7.088 1.055 7.196.739.109 2.604-3.571 3.044-6.605.44-3.033.223-9.318-.729-9.459-.864-.12-2.935 5.834-3.37 8.868z" fill="#2E9DFF"/><path d="M279.3 192.87c2.93.911 7.066.808 7.278.097s-3.114-3.131-6.05-4.043c-2.935-.912-9.181-1.699-9.463-.781-.261.83 5.3 3.815 8.235 4.727zm17.26 33.57c-2.175 3.609-3.436 9.156-2.555 9.688.88.532 5.235-3.116 7.436-6.73s5.327-11.696 4.196-12.385c-1.027-.635-6.876 5.813-9.077 9.427z" fill="#2E9DFF"/><path d="M282.78 252.58c0-.089-2.024-8.77-12.231-16.948-10.207-8.179-29.577-14.159-44.217-9.896l-.237-.836c14.907-4.337 34.588 1.702 45.003 10.051 10.414 8.348 12.453 17.074 12.534 17.444l-.852.185z" fill="#85CBF2" style="mix-blend-mode:overlay"/><path d="M325.68 211.97s-10.563-1.739-23.061 4.929c-11.371 6.077-16.634 29.378-16.856 41.493 11.666-2.903 23.597-23.148 34.847-27.383-.64-3.285.908-3.691 1.104-7.031.556-6.091 3.966-12.008 3.966-12.008z" fill="#213A6D"/><path d="M141.53 94.463c5.344 7.556 6.668 20.637 6.668 37.318 0 12.826.946 22.668-5.013 23.613-6.621 1.133-23.061-5.469-25.643-10.39-3.784-7.169.776-15.056-6.328-23.16-10.963-12.458 21.254-40.265 30.316-27.381z" fill="#F1CABF"/><path d="M113.25 139.24c-9.73-8.955-23.054-18.972-13.713-27.234-5.842-6.64 1.783-14.921 10.593-20.233 8.08-4.866 10.85-20.622 23.339-20.622 10.793 0 18.967 20.66 12.481 29.131-5.14 6.64-20.447-3.14-24.24 9.391-1.707 5.615.218 13.612-1.982 14.001s-5.302 4.894-2.978 8.177c2.323 3.282-3.5 7.389-3.5 7.389z" fill="#1D425B"/><path d="M91.199 244.3c-1.155-10.3-10.097-27.183-19.898-33.512-8.953-5.777-17.823-6.828-29.637-3.501l-.276-1.021c12.008-3.368 21.461-2.255 30.506 3.624 10.22 6.584 19.152 23.478 20.358 34.257l-1.052.153z" fill="#fff" opacity=".38" style="mix-blend-mode:overlay"/><path d="M85.464 248.63C78.014 242.321 42 231.471 42 215.414c0-14.535 14.492-20.537 26.776-15.852 33.193 12.647 33.193 52.783 33.193 52.783s-7.02-1.613-9.371-2.113c-5.897-1.245-7.134-1.602-7.134-1.602z" fill="#4073BF"/><path d="M345.19 200.68c0-.061-.072-.122-.113-.173-5.621 8.36-13.592 17.914-22.718 22.12-3.802 1.755-.388 6.379-3.465 8.39-3.822 2.491-7.266.164-9.31 1.695-2.739 2.041-.153 5.338-3.577 8.288-5.62 4.849-32.192 0-44.966 10.974-12.775 10.973-27.593 27.815-36.791 30.112s-27.849 0-35.002-2.552c-7.154-2.552-17.885-6.38-30.843-4.593-12.959 1.786-20.838-.94-28.687-8.932-12.519-12.76-23.383-19.394-40.501-22.202-4.088-.673-15.442-1.224-17.639-.683 17.864 16.107 37.711 27.713 58.14 34.113 82.973 25.989 164.97 6.502 215.85-76.087l-.378-.47z" fill="#005FE1"/><path d="M290.33 63.75h-80.564a2.953 2.953 0 0 0-2.956 2.949v45.671a2.953 2.953 0 0 0 2.956 2.95h80.564a2.953 2.953 0 0 0 2.956-2.95V66.698a2.953 2.953 0 0 0-2.956-2.948z" fill="#fff"/><path d="M229.05 99.97v4.485h-3.262v-4.22c-1.254 0-3.512-.529-4.516-1.584-.502-.528-.502-3.167 0-3.43.753-.528 6.524 4.221 8.28 0 2.008-4.75-8.28-3.43-8.28-10.819 0-3.166 1.756-5.277 4.516-5.804v-4.486h3.262v4.222c1.004.264 3.263.527 3.764 1.583 0 .264.251 3.166-.501 3.166-.753 0-2.761-2.11-5.521-1.32-1.254.529-2.007 2.112-1.004 3.431 1.757 2.375 6.274 2.111 8.03 6.069 1.506 3.958-1.255 7.916-4.768 8.707z" clip-rule="evenodd" fill="#E88F80" fill-rule="evenodd"/><path d="M277.57 76.139h-28.864c-.606 0-1.097.49-1.097 1.093v.547c0 .604.491 1.094 1.097 1.094h28.864c.605 0 1.096-.49 1.096-1.094v-.547c0-.604-.491-1.093-1.096-1.093zm0 10.613h-28.864c-.606 0-1.097.49-1.097 1.093v.547c0 .604.491 1.094 1.097 1.094h28.864c.605 0 1.096-.49 1.096-1.094v-.547c0-.604-.491-1.093-1.096-1.093zm0 10.602h-28.864c-.606 0-1.097.49-1.097 1.093v.547c0 .604.491 1.094 1.097 1.094h28.864c.605 0 1.096-.49 1.096-1.094v-.546c0-.604-.491-1.094-1.096-1.094z" fill="#85CBF2"/><path d="M176.36 21.564H83.609a5.032 5.032 0 0 0-5.034 5.03v23.755a5.032 5.032 0 0 0 5.034 5.03h92.751a5.032 5.032 0 0 0 5.035-5.03V26.595a5.032 5.032 0 0 0-5.035-5.03z" fill="#2E9DFF"/><path d="M104.75 42.538c2.248 0 4.07-1.82 4.07-4.066a4.068 4.068 0 0 0-4.07-4.065 4.068 4.068 0 0 0-4.069 4.065 4.067 4.067 0 0 0 4.069 4.066zm24.49 0c2.248 0 4.07-1.82 4.07-4.066a4.068 4.068 0 0 0-4.07-4.065 4.068 4.068 0 0 0-4.069 4.065 4.067 4.067 0 0 0 4.069 4.066zm24.5 0a4.067 4.067 0 0 0 4.069-4.066 4.068 4.068 0 0 0-4.069-4.065 4.068 4.068 0 0 0-4.07 4.065 4.068 4.068 0 0 0 4.07 4.066z" fill="#fff"/><path d="M148.32 124.39c-3.457.314-6.546-2.406-6.879-6.064-.334-3.657 2.213-6.889 5.67-7.203 3.457-.315 6.546 2.405 6.88 6.063.333 3.658-2.207 6.889-5.671 7.204zm-1.136-12.462c-3.013.274-5.222 3.095-4.926 6.344.296 3.248 2.979 5.625 5.993 5.351 3.013-.274 5.229-3.096 4.932-6.344-.296-3.249-2.985-5.625-5.999-5.351zM132.35 128.81c-1.386.126-2.78-.183-4.007-.887s-2.23-1.773-2.885-3.07c-.654-1.297-.929-2.765-.79-4.219s.685-2.827 1.57-3.948 2.068-1.938 3.401-2.348 2.756-.395 4.088.043a7.126 7.126 0 0 1 3.398 2.419 7.674 7.674 0 0 1 1.565 3.981c.09.97-.003 1.946-.273 2.874s-.712 1.79-1.3 2.536a7.054 7.054 0 0 1-2.131 1.81 6.762 6.762 0 0 1-2.636.809zm-1.266-13.89a6.014 6.014 0 0 0-3.352 1.411 6.488 6.488 0 0 0-2.023 3.136 6.865 6.865 0 0 0-.011 3.805c.355 1.244 1.052 2.354 2.004 3.188s2.116 1.355 3.344 1.497 2.465-.101 3.555-.699 1.983-1.523 2.567-2.66a6.79 6.79 0 0 0 .713-3.723c-.156-1.731-.96-3.333-2.235-4.454-1.274-1.12-2.916-1.667-4.564-1.521l.002.02z" fill="#E88F80"/></svg>