<svg xmlns="http://www.w3.org/2000/svg" viewBox="0 0 433.64 316.64"><defs><style>.cls-1{isolation:isolate}.cls-2{fill:#dff0ff}.cls-3{fill:#3a93ff}.cls-4{fill:#5fafff}.cls-5{fill:#213a6d}.cls-6{fill:#4073bf}.cls-7{fill:#e68a78}.cls-8{fill:#11175b;opacity:.24}.cls-13,.cls-15,.cls-8{mix-blend-mode:overlay}.cls-9{opacity:.57}.cls-10{fill:#3a50bb}.cls-11{fill:#edb9ae}.cls-12{fill:#deaaa1}.cls-13{opacity:.44}.cls-14{fill:#fff}.cls-15{opacity:.29}.cls-16{fill:#f2ffda}.cls-17{fill:#346db2}.cls-18{fill:#133142}.cls-19{fill:#e7e586}</style></defs><title>empty_organizer</title><g class="cls-1"><g id="Layer_3" data-name="Layer 3"><path class="cls-2" d="M248.18 38.05c-43.75-7.13-115-19.5-159 47.5-36.7 55.88-29.72 224.34 145.66 230.67 184.54 6.67 201.39-147 182-200.17-34.66-95.5-122.66-70.5-168.66-78z"/><path class="cls-3" d="M406.83 229.3c9.14-11.85 27.79-25.77 26.91-35.4s-11.33-14.38-9.12-24.15c1.47-6.55 2.66-3.42 6.18-13.35 3.78-10.67-4.65-19.55-6-24.87-2.15-8.47 11.51-27.2-1.81-30.07s-15.31 37.68-20 43.26c-8.34 9.88-19.71 5.45-26.61 25.44-2.55 7.39 3.86 18.51 1.26 27.88-4.44 16-21.46 28.68-21.46 28.68z"/><path class="cls-4" d="M413 196.5c-2.05-9.42-5.27-16.69 0-29.56s5.27-13.48 2.91-28.05c-1.92-11.9 1.09-24.51 7.45-37.35 12.76 3.11-.63 21.59 1.5 30 1.34 5.32 9.77 14.2 6 24.87-3.52 9.93-4.71 6.8-6.18 13.35-2.21 9.77 8.25 14.52 9.12 24.15s-17.8 23.54-26.97 35.39l-4.86-.25C407.93 216.28 414 201.5 413 196.5z"/><path class="cls-5" d="M20.62 181.54a5.72 5.72 0 0 0-5.24 7.46c8.82 27.22 41.47 61.76 69.21 78 52.25 30.56 124.47 27.47 124.47 27.47l6.66-58.22s-76-2.15-98.88-20.5C81.1 187 44.18 180.81 20.62 181.54z"/><path class="cls-6" d="M165.1 152.06c-6.66-27.67-10.66-80.67-8.33-84.67s5.33-3 6.33-2 5.34 5.34 6.34 3.34-7.34-10.67-6.67-13.67 16.33-37.33 25.33-45 10.67-6.33 11.67-3-3 37.33-3 39-6.33 4.33-6.33 6-2 1 0 1.67 6.33-2.34 7.66-2.34 1.66 6.67 1.83 12 1.5 23.67 0 30.34-21.56 70-21.56 70z"/><path class="cls-5" d="M171.39 154.44c-.75-13 3.27-26.66 8.24-37.7S198 81 202 80.58s4.82 4.24 5.06 11.3 2 51.1-.85 63.46-5.75 34.89-5.75 34.89l-23.27 9.26s-5.41-38.42-5.8-45.05z"/><path class="cls-3" d="M177.81 156.33c-2.77-5.86-12.78-15.36-19-23.58a1.49 1.49 0 0 0-2.67 1c.5 5.08 1.24 10.84 1.32 12.48.46 8.89-6.25 27.5-10 26-3.48-1.39-2.17-12.68 2-23 .6-1.49 9.26-20.54-12.34-33.65a73.05 73.05 0 0 0-10.75-5.18 2.45 2.45 0 0 0-3.2 3.12 54.69 54.69 0 0 1 3 16.92c0 5.25-.87 11.5-4.37 10s-4-10-4.75-20.25c-.43-5.76-3.08-13.59-5.86-19.3a9.35 9.35 0 0 0-5.19-4.61 176.1 176.1 0 0 0-26.85-7.08c1.13 5.66 6.6 15.08 3.85 22.83-.92 2.6-2.25 2.25-4.28 1.25s-2-2-3-7.75c-.7-4-3.5-17-11.5-25.3-9 6.5-16.13 4.94-20 4.55a73.85 73.85 0 0 1-17.5-4.5c-.28-.14-.65 0-1 .35a4 4 0 0 0-1 4.92c4.39 9.21 4.81 23 4.8 38.37 4.82 3.64 10.58 2.36 17.22 2.36 9.5 0 15.85 4.7 14.75 8-2.32 7-19.15 2.71-28 .85a3.31 3.31 0 0 0-4 3.23c0 4.77 0 9 .16 13.38a19.63 19.63 0 0 0 10.5 16.56c3.63 1.88 7.06 2.83 9.36 2.73 5.75-.25 31.27-7 33.51-4s1.33 5.74-.76 8.18c-11 12.81-35.33 7.11-47.2 9.74a53.17 53.17 0 0 0 10.84 18.91l1.3 1.42a23.32 23.32 0 0 0 29.4 4.31c.87-.54 5.71-3 8.07-5.08 8.07-7 18.82-10 24.32-5s-3.18 11.08-7.53 14c-6.11 4.17-22.77 6.68-33.3 8.8a2.63 2.63 0 0 0-1.4 4.38q2.42 2.61 4.65 4.95a22.64 22.64 0 0 0 20.49 6.59h.09c4-.74 21.5-13.86 25.25-15.11s7.9 1.7 4.27 5c-4.14 3.76-5.27 13.26-15 15.63a84.87 84.87 0 0 1-13 1.41 2.44 2.44 0 0 0-1.14 4.52 52.94 52.94 0 0 0 14.11 5.82c22.84 5.92 42.5-.75 47.75-15.75 3.11-8.89-1-17.25 3.25-21.75 2.62-2.77 12-1.32 17-6.62 10.76-11.48 12.26-36.18 3.33-55.05zM111.24 182c-7 0-13.5 3.5-16.5 0s7-6.53 12.5-8.6c6.46-2.4 11 8.6 4 8.6z"/><path class="cls-7" d="M18 158.24C6.39 154-2.5 153 1.5 160.08s11.5 5 18 7.54 2.38-7.96-1.5-9.38z"/><path class="cls-8" d="M202 80.58c-2.65.25-9.39 11.16-15.09 21.71-.4 9.71.93 19 5.51 22.75 7.43 6 10.8 13.57 8 22.19s-20.49 35.83-17.42 49.42c0 .16.08.31.12.47l17.32-6.89s2.88-22.53 5.75-34.89 1.1-56.41.85-63.46-1.1-11.67-5.04-11.3z"/><g class="cls-9"><path class="cls-2" d="M157 218.2c-.5-1.32-1-2.85-1.52-4.62-3.64-11.78-10.42-33.71-47.06-60.82-3.39-2.52-6.89-5.09-10.44-7.7-30.4-22.36-64.88-47.7-72.74-64.23l.91-.43c7.74 16.31 42.12 41.6 72.44 63.86L109 152c36.9 27.31 43.74 49.44 47.42 61.33.54 1.76 1 3.28 1.5 4.56z"/></g><path class="cls-10" d="M395.12 195c-55.37 48.32-59.6 6.8-78.23 21.57C301.13 229 318.32 285 315.17 307c46.79-14.4 75.11-43.52 90.92-75.56 7.73-15.68 5.84-51.16-10.97-36.44z"/><path class="cls-7" d="M268.45 128.89c-17.94 4.66-57.54 10.44-79 25.33-15.89 11-41.06 76.4-41.06 76.4s6.5 12.42 26.17 16.6a72.83 72.83 0 0 0 17.61 1.21 11.07 11.07 0 0 0 9.22-5.71c1.3-2.36 2.89-4.67 4.17-4.83 2.67-.34 4 76.16 4 76.16-.42.52 61.12 5.87 91.69-2.83 29.86-8.49 45.66-17.33 45.66-17.33l4-145.34z"/><path class="cls-11" d="M239.34 135.47c1.39 9.88 14.17 19.75 33.84 18.42S303 137.14 303 137.14l-10.7-2.55.17-29-40.67-6.33-2.5 34z"/><path class="cls-11" d="M242.92 141.17c37.87 18 49.53-7.51 49.53-7.51l-.64-34.14s12.92 3.43 14.95-35.76c.35-6.86-.94-29-.94-29l-49.11.08L248 65.19s-9.09-1.19-10 6.18 5 16.36 8.88 17c.47 2.92-1.78 24.57-3.96 52.8z"/><path class="cls-12" d="M253.7 88.6s-.53 7-.83 9.91c.1 5.09 1.7 12.35 6.09 15.64 7.29 5.45 11.43 3.62 12.25 13.75s2.66 19 10 18.91a31.62 31.62 0 0 0 11.1-12.22l-.53-35.07s6.91 1.81 11.42-12.53z"/><path class="cls-5" d="M243.67 22.05c-9.23 2.81-9.9 5.59-11 11.36s7 34.13 7 34.13 6.16-5.6 10.79-.19c1.72 2-.14 16.88 2.6 26.39 5.88 20.41 25.64 26 37.86 23 16.42-4 21.81-38 10.32-37.76-17.31.4-23.33 10.54-31.79 8.06-3-.87-12.77-9.7-15.61-20.34 8.74-10.4 3.09-24.76 7.54-28.62 4.26-3.71 15.73 8 31.32 5.88 25-3.46 22.89-35.49 18-41.73a5.23 5.23 0 0 0-8.91 1c-1.7 3.65-4.31 7.61-8.88 8.73-12.54 3.04-31.79-10.7-43.7-7.8-9.76 2.38-5.54 17.89-5.54 17.89z"/><path class="cls-8" d="M303.38 1.3a5.3 5.3 0 0 0-1.52 1.89c-1.7 3.65-4.31 7.61-8.88 8.73-12.61 3.08-31.86-10.66-43.77-7.76-9.76 2.38-5.54 17.89-5.54 17.89-9.23 2.81-9.9 5.59-11 11.36s7 34.13 7 34.13 3.28-3 6.85-2.48c-10.54-18.73-13-37.34-1-41.35 10-14 31 13.32 48.63 7.58 13.7-4.46 18.95-23.04 9.23-29.99z"/><path class="cls-12" d="M248.91 78c-3.89-4.78-4.53-10-6.76-6.51s2.12 9.5 3.43 10.63-.4-1.76 1.43-2.42 1.49 2.53 2.14 3.1 1.09-3.18-.24-4.8z"/><path class="cls-5" d="M235.69 18.87c4.16.34 9.85 4.84 9.85 4.84l-9.91-1.83c-1.63-.31-1.86-3.17.06-3.01zm5.31-2.95c3.35 2.49 4.59 7.79 4.59 7.79s-5-4.12-6.23-5.27.04-3.67 1.64-2.52z"/><g class="cls-13"><path class="cls-14" d="M290 25.5c-3.75 0-8.38-1.15-13.88-4.54-11.8-7.26-18.41-9.54-22.83-7.86-3.18 1.22-5.43 4.53-7.28 10.75l-1-.29C247 17 249.45 13.5 253 12.17c4.8-1.83 11.44.39 23.7 7.94 11 6.76 18.27 4.55 22.45 1.51 5.27-3.84 7.86-11 6.89-14.93l1-.24c1.07 4.38-1.59 11.85-7.27 16A16.28 16.28 0 0 1 290 25.5z"/></g><path class="cls-8" d="M293.51 282.55c-14.67 4-36.33.67-36.67-8.66s-4-26.34-9.91-32.34-14.75-6-21.42-13.67-2-32-10.33-31.66-11 13-13.34 19.33-11 7.67-18 10.67c-6.16 2.64-5.86 8.14-5 21.72a79 79 0 0 0 13.3.49 11.07 11.07 0 0 0 9.22-5.71c1.3-2.36 2.89-4.67 4.17-4.83 2.67-.34 4 76.16 4 76.16s58.19 6.25 91.69-2.83c30-8.12 45.66-17.33 45.66-17.33l.71-25.7c-16.84 4.44-44.2 11.67-54.08 14.36z"/><g class="cls-15"><path class="cls-16" d="M268.14 162c-18.81 0-35.86-14.19-37.24-24.47l1-.14c1.4 10.43 20.86 25.65 40.39 23.36 19.06-2.24 30.31-8.84 37.62-22.08l.87.49c-7.47 13.55-18.95 20.3-38.37 22.59a36 36 0 0 1-4.27.25z"/></g><g class="cls-15"><path class="cls-16" d="M246.23 250h-.48c-5.47-.83-14.77-2.72-15.62-6.1-1-4-4.47-21.17-4.5-21.35l-.1-.48.48-.11c.09 0 8.42-1.8 12.8-3.11s12.57-4 12.65-4l.54-.17.11.55c.42 2.17 4.17 21.23 4.17 22.55 0 2.39-4.83 8-7.7 11.21a3.17 3.17 0 0 1-2.35 1.01zm-19.53-27.2c.58 2.83 3.51 17.23 4.4 20.81.5 2 6.17 4.06 14.8 5.36a2.18 2.18 0 0 0 1.94-.69c4.59-5.05 7.44-9.09 7.44-10.54 0-.9-2.38-13.32-4.05-21.8-1.9.61-8.39 2.7-12.14 3.83s-10.53 2.62-12.39 3.03z"/></g><path class="cls-11" d="M334.18 103.22L352 97.55s33.89 64.45 40.83 81.5c4.09 10 6.25 22 7.37 30.92a44 44 0 0 1-4.2 24.94c-1.76 3.6-3.74 7.43-5.56 10.51-1.91 3.25-3.68 5.6-4.77 6.11-3.25 1.51-5.25.36-10-.45a69.53 69.53 0 0 1-14.31-4c-5.38-2.23-6.45-11.33-7.58-17-3.57-18.09-11.34-58.08-12.87-71.15-2-17.17-6.73-55.71-6.73-55.71z"/><path class="cls-14" d="M340.42 282.9l-62.51 14.19a7.75 7.75 0 0 1-9.3-9.12l18.95-91.72a14.65 14.65 0 0 1 11.11-11.33l62.51-14.19a7.75 7.75 0 0 1 9.3 9.12l-19 91.72a14.65 14.65 0 0 1-11.06 11.33z"/><path class="cls-11" d="M242.51 268.55c5-1 9.33-.66 13-3.33s9.88-17 12.94-21.67 9.6 20 9.6 20-5.54 16-11.21 20.64-24.33 9.67-24.33 9.67z"/><path class="cls-11" d="M275.84 243.81c5.67-6.48 13-9.65 18.5-11.48s6.67-1.5 6.5 0-6.16 4.17-11.16 7.67S273 254 273 254l-1.17-6.84z"/><path class="cls-11" d="M277.64 248.75c6.87-5.18 14.7-6.78 20.45-7.46s6.84-.1 6.37 1.33-6.89 2.82-12.5 5.23-17.36 13.66-17.36 13.66l-1.82-8.84z"/><path class="cls-11" d="M270.26 264a41.66 41.66 0 0 1 14.82-10.57c5.46-1.95 13.86 3.72 13.66 5.21s-9.47-1.47-14.56 1.9-17 13.57-17 13.57l-1-6.86z"/><ellipse class="cls-2" cx="321.84" cy="233.74" rx="8.02" ry="6.5" transform="rotate(-74.46 321.844 233.744)"/><path class="cls-11" d="M320.62 37.82c-1 3.37 10.41 4.27 11.46 8.22 2.92 11 7.67 6.41 7.67 6.41s-2.5-10.17-3.83-11.5-10.7-3.8-13-3.47-2.13-.21-2.3.34z"/><path class="cls-11" d="M317 39.65c-1 3.37 10.4 4.27 11.45 8.23 2.92 11 7.68 6.4 7.68 6.4s-2.5-10.16-3.84-11.5-10.7-3.8-13-3.46-2.16-.22-2.29.33z"/><path class="cls-11" d="M313.87 41.91c-1 3.37 10.41 4.27 11.45 8.22 2.93 11 7.68 6.41 7.68 6.41s-2.5-10.17-3.83-11.5-10.7-3.8-13-3.47-2.17-.21-2.3.34z"/><path class="cls-11" d="M311 44.06c-1 3.37 10.41 4.27 11.46 8.22 2.92 11 7.68 6.41 7.68 6.41s-2.5-10.17-3.84-11.5-10.7-3.81-13-3.47-2.11-.22-2.3.34z"/><path class="cls-11" d="M338.68 49.39c3.83 7.33 9.83 28.66 10 32.5s7.42 23.48 7.42 23.48l-21.92-2.15s-2.67-9.67-4.84-10.67-10.5-7.5-14-11.16-8.52-16.84-8.52-16.84l5.86-1.33s6.5 8 7.66 8.17-3.5-25.5-3.5-25.5z"/><path class="cls-17" d="M299.58 52.48l23.03-11.84 4.91 21.48-23.8 4.29-4.14-13.93z"/><ellipse class="cls-3" cx="325.17" cy="51.67" rx="10.6" ry="12.27" transform="rotate(-12.64 325.23 51.65)"/><ellipse class="cls-2" cx="325.65" cy="51.56" rx="8.01" ry="9.22" transform="rotate(-12.64 325.696 51.564)"/><path class="cls-6" d="M300.51 68.18l-5.72-22.75-23 12.43c-3.64.9-5.75 5-4.71 9.26s4.62 6.74 8.16 6.07v.08z"/><path class="cls-18" d="M255.73 191.7a7.15 7.15 0 0 1-4.57-1.83c-9.68-8-15.1-41-14.28-46.53.08-.55.15-1.09.23-1.62.7-5.13 1.36-10 6.53-9.51l-.18 2c-3-.27-3.58 2-4.37 7.78-.08.54-.15 1.09-.24 1.65-.74 5.05 4.82 37.45 13.58 44.68a4.64 4.64 0 0 0 4.75 1.12c5.72-2 6.72-33.91 7.6-62.06 1.21-38.74 2.44-62.35 9.36-63.5l.33 2c-5.8 1-6.85 34.58-7.69 61.59-1.2 38.22-2.39 61.6-8.94 63.89a6.3 6.3 0 0 1-2.11.34zm52.63-24.29a4.25 4.25 0 0 1-1.51-.27c-3.93-1.46-5.45-8.54-7.07-16s-3.4-15.8-7.49-16.47l.32-2c5.43.89 7.31 9.6 9.13 18 1.43 6.64 2.9 13.49 5.81 14.57 1 .39 2.4 0 4-1.25 10-7.54 2.93-59.43-.47-84.36-.95-6.92-1.63-11.92-1.77-14.37l2-.12c.14 2.38.85 7.6 1.76 14.22 3.72 27.25 10.65 78-.31 86.23a7.55 7.55 0 0 1-4.4 1.82z"/><path class="cls-11" d="M134.51 302.89c0 .29.11.23.28 0-.17-.2-.28-.23-.28 0zm63-35.34c-6.33.67-17.33 1.67-17.33 1.67l8.12-20.71a67.61 67.61 0 0 1-13.79-1.29c-11.87-2.53-18.94-8.05-22.68-12-2.28 8.32-10.14 27.21-12.65 41.36-2.67 15-2.34 20-2.34 21a5.06 5.06 0 0 1-.28 1.19 6.7 6.7 0 0 0 3.62 8.23c3.87 1.72 6.8-.35 21.5 2.25 24.5 4.33 76.83-15 80.83-15.33s0-25.34 0-25.34-38.67-1.69-45-1.03zm68.66-20.01c3.4-9.66 7.25-14.73 10.71-18.38s6.13-7 6.8-5.32-5.6 11.66-6.8 14.33-2.58 11.32-2.58 11.32z"/><ellipse class="cls-3" cx="297.41" cy="57.5" rx="11.7" ry="13.06" transform="rotate(-12.64 297.439 57.483)"/><ellipse class="cls-2" cx="297.82" cy="57.28" rx="8.47" ry="9.81" transform="rotate(-12.64 297.87 57.302)"/><g class="cls-15"><path class="cls-16" d="M195.14 243.79c-17.53 0-39.29-11.79-44.62-19.4l.82-.58c5.86 8.38 32.08 21.91 49.9 18.42l.19 1a32.13 32.13 0 0 1-6.29.56z"/></g><path class="cls-5" d="M279.89 53.4c-6 2.11-4.47 17.12 5.69 17.79l-4.28.87c-10.16-.62-11.25-14.56-5.25-16.49z"/><circle class="cls-18" cx="273.48" cy="65.31" r="1.1"/><circle class="cls-7" cx="389.97" cy="72.78" r="10.05"/><circle class="cls-19" cx="115.41" cy="254.42" r="6.06"/></g></g></svg>