<svg width="264" height="264" viewBox="0 0 264 264" fill="none" xmlns="http://www.w3.org/2000/svg"><path d="M23.277 153.627c1.314 16.396-17.752 17.966-13.228 28.889 4.524 10.923 19.117-1.45 29.78 11.072 7.489 14.643-9.525 23.391-1.167 31.752 8.36 8.358 17.107-8.657 31.752-1.167 12.522 10.663.151 25.256 11.072 29.78 10.923 4.524 12.493-14.544 28.887-13.228C126.024 245.783 120.178 264 132 264c11.823 0 5.976-18.218 21.627-23.277 16.394-1.314 17.966 17.752 28.887 13.228 10.923-4.524-1.45-19.117 11.072-29.78 14.643-7.489 23.391 9.525 31.752 1.167 8.36-8.359-8.655-17.107-1.165-31.752 10.663-12.522 25.256-.151 29.78-11.072 4.524-10.923-14.544-12.493-13.228-28.889C245.782 137.976 264 143.822 264 132s-18.218-5.976-23.277-21.627c-1.314-16.394 17.752-17.966 13.228-28.887-4.524-10.923-19.117 1.45-29.78-11.072-7.489-14.643 9.525-23.392 1.167-31.752-8.359-8.36-17.107 8.655-31.752 1.165-12.522-10.663-.151-25.256-11.072-29.78-10.923-4.524-12.493 14.544-28.887 13.228C137.976 18.218 143.822 0 132 0s-5.976 18.218-21.627 23.277C93.979 24.59 92.407 5.525 81.486 10.049c-10.923 4.524 1.45 19.117-11.072 29.78-14.643 7.489-23.391-9.525-31.752-1.167-8.36 8.361 8.655 17.11 1.167 31.752-10.663 12.522-25.256.151-29.78 11.072C5.525 92.41 24.593 93.98 23.277 110.373 18.217 126.024 0 120.178 0 132c0 11.823 18.218 5.976 23.277 21.627z" fill="#5EB5FE"/><path d="M93.031 175.396c-.296.19-.599.251-.908.183-.31-.068-.56-.25-.75-.546l-16.821-26.277c-.19-.297-.25-.599-.183-.909.068-.309.25-.559.546-.749l18.03-11.542c.297-.19.6-.251.91-.183.309.068.558.25.748.547l2.2 3.436c.19.296.25.599.183.909-.068.309-.25.559-.547.748l-12.734 8.153 4.374 6.831 11.925-7.634c.297-.19.6-.251.909-.183.31.068.559.25.749.547l2.2 3.436c.172.269.225.559.157.868-.068.31-.25.559-.547.749l-11.925 7.634 6.133 9.581c.19.297.25.6.183.909-.068.31-.25.559-.546.749l-4.286 2.743zm24.635-15.77c-.297.189-.6.25-.909.183-.309-.068-.559-.251-.749-.547l-16.822-26.277c-.19-.296-.25-.599-.183-.908.068-.31.25-.559.547-.749l10.713-6.858c3.368-2.157 6.523-3.075 9.465-2.754 2.923.294 5.317 1.896 7.18 4.807 1.26 1.967 1.841 3.913 1.743 5.838-.098 1.924-.735 3.719-1.911 5.383l12.17 6.458c.184.11.32.232.406.367.138.215.187.469.146.761a.98.98 0 0 1-.451.631l-4.488 2.873c-.485.31-.926.422-1.324.335-.415-.115-.746-.245-.992-.392l-10.858-6.1-4.891 3.132 5.978 9.338c.19.297.251.6.183.909-.068.309-.25.559-.547.749l-4.406 2.821zm-4.495-18.951l5.174-3.313c1.483-.949 2.358-1.984 2.628-3.107.296-1.139.056-2.316-.72-3.528-.777-1.213-1.74-1.946-2.889-2.198-1.149-.252-2.478.105-3.988 1.071l-5.174 3.313 4.969 7.762zm32.051 1.31c-.297.19-.6.251-.909.183-.31-.068-.559-.25-.749-.547l-16.822-26.276c-.19-.297-.251-.6-.183-.909.068-.31.25-.559.547-.749l18.312-11.724c.297-.189.6-.25.909-.182.31.067.559.25.749.546l2.07 3.234c.173.27.225.559.157.868-.067.31-.25.559-.546.749l-13.098 8.385 4.063 6.347 12.209-7.816c.296-.189.599-.25.909-.182.309.067.559.25.748.546l1.915 2.992c.173.269.225.559.157.868-.067.309-.25.559-.546.749l-12.209 7.816 4.193 6.548 13.421-8.592c.297-.189.6-.25.909-.183.309.068.559.251.749.547l2.044 3.194c.19.296.251.599.183.908-.068.31-.25.559-.546.749l-18.636 11.931zm25.463-16.301c-.297.189-.599.25-.909.182-.309-.067-.559-.25-.749-.546l-16.822-26.277c-.189-.296-.25-.6-.182-.909.067-.309.25-.559.546-.748l18.313-11.724c.296-.19.599-.25.909-.183.309.068.559.25.748.547l2.071 3.234c.172.27.225.559.157.868-.068.31-.25.56-.547.749l-13.098 8.385 4.064 6.347 12.208-7.816c.297-.19.6-.25.909-.183.309.068.559.25.749.547l1.915 2.991c.172.27.225.559.157.869-.068.309-.25.559-.547.748l-12.208 7.816 4.192 6.549 13.422-8.592c.296-.19.599-.251.908-.183.31.068.56.25.749.547l2.045 3.193c.19.297.251.6.183.909-.068.31-.25.559-.547.749l-18.636 11.931z" fill="#fff"/></svg>