<svg xmlns="http://www.w3.org/2000/svg" xmlns:xlink="http://www.w3.org/1999/xlink" viewBox="0 0 436.86 325.58"><defs><style>.cls-1{fill:none}.cls-2{isolation:isolate}.cls-3{fill:#dff0ff}.cls-20,.cls-4{fill:#fff}.cls-5{fill:#85cbf2}.cls-6{fill:#213a6d}.cls-7{fill:#4073bf}.cls-8{fill:#5eaef7}.cls-9{fill:#e68a78}.cls-10{fill:#80d6dd}.cls-10,.cls-13,.cls-21,.cls-22,.cls-46{opacity:.49}.cls-10,.cls-13,.cls-17,.cls-18,.cls-21,.cls-22,.cls-23,.cls-24,.cls-33,.cls-37,.cls-46,.cls-47{mix-blend-mode:overlay}.cls-11{fill:#e7e586}.cls-12{fill:#2468ff}.cls-14,.cls-22{fill:#eef6ff}.cls-15,.cls-20{opacity:.61}.cls-15{fill:url(#linear-gradient)}.cls-16{fill:#3a93ff}.cls-17,.cls-21,.cls-23,.cls-33,.cls-37{fill:#11175b}.cls-17{opacity:.27}.cls-18,.cls-28{opacity:.29}.cls-19{fill:#f2ffda}.cls-23{opacity:.36}.cls-24{opacity:.43}.cls-25{fill:#bbd2e8}.cls-26{fill:#deaaa1}.cls-27{fill:#ecf1ff}.cls-29{clip-path:url(#clip-path)}.cls-30,.cls-47{opacity:.88}.cls-31{fill:#edb9ae}.cls-32{fill:#275ea0}.cls-33,.cls-41{opacity:.24}.cls-34{fill:#133142}.cls-35{fill:#1d425b}.cls-36{fill:url(#linear-gradient-2)}.cls-37{opacity:.34}.cls-38{fill:#d5e5ff}.cls-39{opacity:.32}.cls-40{clip-path:url(#clip-path-2)}.cls-42{clip-path:url(#clip-path-3)}.cls-43{opacity:.41}.cls-44{fill:#0e1c9e}.cls-45{fill:#3443b0}.cls-46{fill:#0b1247}</style><linearGradient id="linear-gradient" x1="26.36" y1="174.78" x2="191.15" y2="174.78" gradientUnits="userSpaceOnUse"><stop offset="0" stop-color="#9ad6ff"/><stop offset=".99" stop-color="#7cd4ff"/></linearGradient><clipPath id="clip-path"><path class="cls-1" d="M262.15 174.78l1.2 6.44s1.6 20.52 2.7 26.39c1.29 6.88 3.93 29.12 3.93 29.12l24.59-13.83s-7.2-18.54-9.6-24.26c-2.09-5-8.36-18.51-8.36-18.51l-2.8-6.6z"/></clipPath><linearGradient id="linear-gradient-2" x1="22.63" y1="288.61" x2="221.58" y2="288.61" xlink:href="#linear-gradient"/><clipPath id="clip-path-2"><path class="cls-1" d="M232.36 150.58s4.18-1 10 4.1a57.81 57.81 0 0 1 8.89 9.35s-1.39 3.65-3.14 7.15c1.33 7.83 3.43 25.1 3.29 29.34-.25 7.5-5 53.41-5 53.41s-35.26 30.75-49 36-28.19 3.15-28.19 3.15-7.12-17-7.12-21 14.87-44.78 18.37-53.33 12.66-29.58 18.18-38.06c10.17-15.61 26.09-22.87 26.84-24.37s6.88-5.74 6.88-5.74z"/></clipPath><clipPath id="clip-path-3"><path class="cls-1" d="M221.62 179.24c-7.56 7.55-9.41 21.85-5.33 46.27 4 23.75 16.23 40.79 25 41.27 9.49.52 19.46-12.1 28.66-21.6s23.15-21.08 23.15-21.08a12.4 12.4 0 0 0-3.73-4.64 4.78 4.78 0 0 0-4.78-.29l-31.8 14.44a2.06 2.06 0 0 1-2.91-1.69c-.75-8.95-3.39-36.09-8.58-47.21-2.75-5.91-12.43-12.71-19.68-5.47z"/></clipPath></defs><title>empty_participant</title><g class="cls-2"><g id="Layer_3" data-name="Layer 3"><path class="cls-3" d="M33.12 290.53c23.24 31.17 61.33 35.33 92 34.67 0 0 186.5.06 198.5 0s64.5-2.5 70-31.79c8.47-45.11-22.43-71.28-33.19-93.48C327.58 132.14 322.68 2.2 208.3.2 127.79-1.21 94 94.48 76.62 123.14s-88.5 107.06-43.5 167.39z"/><path class="cls-4" d="M386.41 296.94l-1-.29c7.15-24.26-6.49-54.08-19.09-66.28-4.67-4.53-9.54-6.74-14.24-8.88-7.23-3.29-14.07-6.4-17.91-17.64-2.37-6.95-2.06-14-1.75-20.84.49-11 1-22.46-10-33.64-2.37-2.41-4.54-4.56-6.52-6.53-13-12.92-18.4-18.27-21.89-39.48-.62-3.72-1-7.83-1.49-12.18-2.44-23.55-5.78-55.81-46-71.94-36-14.44-73.1-8.1-101.77 17.41l-.67-.74c29-25.78 66.44-32.19 102.81-17.59 40.75 16.35 44.13 48.95 46.59 72.76.45 4.33.87 8.43 1.48 12.12 3.45 20.89 8.76 26.17 21.61 38.93 2 2 4.16 4.12 6.53 6.54 11.27 11.49 10.75 23.13 10.26 34.38-.3 6.74-.61 13.71 1.7 20.48 3.7 10.83 10 13.71 17.38 17.05 4.78 2.17 9.72 4.42 14.52 9.07 12.88 12.35 26.71 42.65 19.45 67.29z"/><path class="cls-5" d="M58.43 268.36c-14.69-50.38 31-132 103.64-108 51.82 17.1 65.36-44.52 116.29 2.09 43.06 39.41 44.48 156.25 44.48 156.25l-213.51 2.76s-41.33-20.18-50.9-53.1z"/><path class="cls-5" d="M186.31 172.79c32.68.54 45.39 55.26 65.12 70.24 15.16 11.51 78-32.57 109.25 11.25 28.26 39.62 6 64.75 6 64.75l-139.33-23.5-35.56-32.25z"/><path class="cls-6" d="M141.93 271.3c8.66-25-2.32-40.34 5.8-53.86 3.75-6.25 12.65-10.06 14.34-15.38 2.08-6.53-3.33-21.49 0-28.4 4.85-10.09 14.4-10.9 17.3-17.94s-.94-14.82 4.7-22.7c3-4.25 9.89-7.43 14.67-11.08 4.07-3.11 4.08-7.25 7.14-6.83 2.79.39 6.33 6.28 5.5 11.62s-2.76 11.08-.85 15.69c1.3 3.14 10.2 4.59 8.15 14.4-1.53 7.33-3.84 32.82-3.84 32.82l-19.24 61z"/><path class="cls-7" d="M35.66 279.05c-3.78-7-17.23-5.92-22.8-21-2.49-6.76 4.5-15.4 3-23.25s-8-15.7-8-22.39c0-8 8.7-6.25 12.19 1.44s6.57 9.11 12.17 12 4.3 13.37 8.19 14.74c14.17 5 16.83 14 19.79 17.25s-24.54 21.21-24.54 21.21z"/><circle class="cls-8" cx="304.7" cy="60.13" r="6.85"/><circle class="cls-9" cx="359.07" cy="247.42" r="4.54"/><path class="cls-10" d="M214.84 189.64s2.31-25.49 3.84-32.82c2-9.81-6.85-11.26-8.15-14.4-1.91-4.61 0-10.34.85-15.69s-2.71-11.23-5.5-11.62a2.7 2.7 0 0 0-1.08.07c.49 4.37 1.33 9.24-.16 12.6-2.23 5-7.28 7.5-11.28 13s6 18 0 27.5-17.5 13.5-17 27.5 2.93 17.29-9.5 27.91c-11.21 9.59.68 32.19 1.27 39.59l27.47-12.62z"/><path class="cls-11" d="M175.65 261.57l-1-.21c7.1-33.33 3.17-70.19-2.37-91.63l1-.25c5.55 21.52 9.51 58.59 2.37 92.09z"/><path class="cls-11" d="M179.41 216.62l-.93-.37v-.1c1.58-4 3.55-9 9.82-11.22l.34.95c-5.85 2.1-7.64 6.63-9.23 10.63zm-1.06-3.91c-1.76-4.35-5.37-6.91-9.43-6.69l-.06-1c4.49-.24 8.49 2.56 10.42 7.31zm-.61-18.62l-.93-.35c.69-1.81 2.78-7.3 6.45-10.91l.7.72c-3.51 3.45-5.55 8.79-6.22 10.54zm-.41 4.61c-1.14-3.35-4.84-7.67-8.55-8.76l.28-1c4 1.18 8 5.82 9.21 9.4z"/><circle class="cls-11" cx="183.76" cy="182.27" r="1.56"/><circle class="cls-11" cx="189.02" cy="205.19" r="1.5"/><circle class="cls-11" cx="167.77" cy="205.24" r="1.46"/><circle class="cls-11" cx="168.32" cy="188.91" r="1.19"/><circle class="cls-11" cx="172.64" cy="170.01" r="1.72"/><path class="cls-12" d="M142 254.35c-5.21-34.72 1.08-61.58 6.14-83.16.37-1.55.73-3.08 1.07-4.59l1 .22c-.35 1.51-.71 3-1.07 4.6-5 21.5-11.32 48.26-6.13 82.79z"/><path class="cls-12" d="M142 208.6c-.26-.8-.5-1.74-.76-2.73-1.08-4.22-2.42-9.46-7-11.45l.4-.91c5 2.17 6.53 7.92 7.6 12.11.25 1 .49 1.9.74 2.67zm.86-6.32l-.9-.43c2.15-4.5 7.45-7.61 12.06-7.07l-.11 1c-4.14-.49-9.1 2.43-11.05 6.5zm3.14-22c-.75-2.39-2.15-3.92-4.47-6.45l-1.28-1.4.74-.67 1.27 1.39c2.34 2.54 3.88 4.23 4.69 6.83zm-1 10.04l-1-.3c2-6.54 6.87-10.37 10.76-11.27l.23 1c-3.58.81-8.08 4.41-9.99 10.57z"/><circle class="cls-12" cx="140.54" cy="171.16" r="1.56"/><circle class="cls-12" cx="133.89" cy="193.72" r="1.5"/><circle class="cls-12" cx="155.1" cy="195.06" r="1.46"/><circle class="cls-12" cx="155.54" cy="178.73" r="1.19"/><circle class="cls-12" cx="149.66" cy="166.71" r="1.72"/><path class="cls-11" d="M190.44 230c-.67-26.94 6.14-60.52 17.35-85.56l.92.41c-11.16 24.91-17.94 58.32-17.27 85.13z"/><path class="cls-11" d="M195 185.14v-.11c-.82-4.22-1.75-9-7.11-12.15l.51-.87c5.75 3.38 6.77 8.62 7.58 12.83v.11zm1.78-3.65l-.85-.54c2.78-4.31 7.21-6.34 11.59-5.26l-.24 1c-3.95-.99-7.97.86-10.5 4.8zm4.02-18.18c-.34-1.85-1.36-7.47-4.17-11.51l.82-.57c2.94 4.21 4 10 4.33 11.9zm-.44 4.61l-.87-.49c1.85-3.3 6.63-7.12 10.78-7.55l.11 1c-3.85.39-8.29 3.95-10.02 7.04z"/><circle class="cls-11" cx="197.06" cy="150.58" r="1.56"/><circle class="cls-11" cx="187.67" cy="172.14" r="1.5"/><circle class="cls-11" cx="208.55" cy="176.1" r="1.46"/><circle class="cls-11" cx="211.01" cy="159.95" r="1.19"/><circle class="cls-11" cx="208.1" cy="145.07" r="1.72"/><g class="cls-13"><path class="cls-14" d="M29.51 266.18c-.3-.21-7.37-5.44-8.39-11.82-.4-2.47.38-5.79 1.2-9.31 1.29-5.56 2.76-11.85-.25-15.71-.73-.94-1.5-1.89-2.28-2.85-4.61-5.69-9.85-12-9.47-19l.93-.3c-.36 6.69 4.6 12.87 9.32 18.7.78 1 1.55 1.92 2.28 2.86 3.31 4.24 1.79 10.78.44 16.55-.79 3.43-1.55 6.66-1.18 8.93.95 6 7.92 11.13 8 11.18z"/></g><path class="cls-15" d="M113.82 174.78c0-53.17 77.33-26.33 77.33-126.5H26.36c0 100.17 77.34 73.33 77.34 126.5 0 49.34-66.59 29.8-76.18 106.79a80.47 80.47 0 0 0 5.84 9A77.39 77.39 0 0 0 43 301.28h148.15c0-100.17-77.33-73.28-77.33-126.5z"/><path class="cls-8" d="M191.15 48.28c0 100.17-77.33 73.33-77.33 126.5s77.33 26.33 77.33 126.5h6.33c0-96.5-74.74-82.75-74.74-126.5s74.74-30 74.74-126.5z"/><path class="cls-16" d="M153.7 121.28c-5.34 1.91-7.67 5.33-21.34 3.33-16.77-2.45-21.5 10.55-35.83 9.34-11.83-1-35.17-15.34-32.17-5.67l-.1.37c16.45 10.74 33.08 17 38 34.67a6.29 6.29 0 0 0 6.51 5c3.12 0 5.06-1.5 6.56-5.14 5.69-20.1 26.62-25.36 45.06-39.51-.25-3.67-.61-4.57-6.69-2.39z"/><path class="cls-9" d="M4.2 24.28a4.3 4.3 0 0 0-3.67 6.55c4.37 7.11 12 17.45 19.5 17.45h177.56c7.49 0 15.13-10.34 19.49-17.45a4.29 4.29 0 0 0-3.66-6.55z"/><path class="cls-17" d="M166.86 42.38c-7.5-.39-48-1.1-63.16-.6s-21.34 2-28.84-3-24.5-2.5-41-2.5c-10.77 0-16.64-5.11-20.39-12H4.2a4.3 4.3 0 0 0-3.67 6.55c4.37 7.11 12 17.45 19.5 17.45h156.33s-2-5.5-9.5-5.9z"/><path class="cls-12" d="M109.36 180.21c-4.18 0-4.69 10.92-.5 10.92 4.96 0 3.38-10.95.5-10.92z"/><g class="cls-18"><path class="cls-19" d="M91.2 48.28h-1c0-4.24 9.72-4.33 17.54-4.4 1.76 0 3.28 0 4.47-.1 6.05-.33 8.31-2.4 12.77-7.82 4.66-5.67 15-11.85 15.46-12.11l.51.86c-.1.06-10.64 6.36-15.2 11.89s-7.06 7.83-13.48 8.18c-1.22.07-2.75.08-4.52.1-6.19.05-16.55.12-16.55 3.4z"/></g><g class="cls-18"><path class="cls-19" d="M87.42 34.13c-20.08 0-52.79-4.88-56.45-9.54l.79-.62c3.56 4.54 38.38 9.47 57.59 9.14s36.61-9.18 36.78-9.27l.46.88c-.17.1-17.83 9.06-37.22 9.39-.63.02-1.28.02-1.95.02z"/></g><g class="cls-18"><path class="cls-19" d="M66.2 48.32s-.58-4.17-10.32-7.14c-3.78-1.16-8.51-.19-14.5 1-8 1.64-17.93 3.67-30.9 1.9l.13-1c12.81 1.75 22.66-.27 30.57-1.89 6.13-1.25 11-2.24 15-1 10.47 3.2 11 7.82 11 8z"/></g><g class="cls-18"><path class="cls-19" d="M128.36 48.66l-.66-.75c2.75-2.44 4.86-4.55 6.71-6.42a80.48 80.48 0 0 1 6-5.6c5.86-4.83 15.24-4.64 22.77-4.49a46 46 0 0 0 8.54-.28 13.5 13.5 0 0 0 9.22-7l.91.4a14.21 14.21 0 0 1-9.94 7.63 47.59 47.59 0 0 1-8.75.29c-7.36-.15-16.54-.33-22.12 4.27a78.16 78.16 0 0 0-5.89 5.53c-1.89 1.84-4.01 3.96-6.79 6.42z"/></g><g class="cls-18"><path class="cls-19" d="M166 44.11c-5.5 0-15.89-.69-15.89-3.33s10.39-3.33 15.89-3.33 15.88.69 15.88 3.33-10.41 3.33-15.88 3.33zm0-5.66c-9.63 0-14.89 1.54-14.89 2.33s5.26 2.33 14.89 2.33 14.88-1.54 14.88-2.33-5.27-2.33-14.88-2.33z"/></g><path class="cls-20" d="M143.7 117.16c-3.75 4-4.67 7.11 0 7.78s9.3-4.94 8.3-7.78-6.64-1.79-8.3 0z"/><path class="cls-21" d="M159.61 120.55c-25.25 12.73-39.75 29.9-50.75 29.9-9.68 0-28.09-18.22-44.34-24.87-.47.53-.57 1.38-.16 2.7l-.1.37c16.45 10.74 33.08 17 38 34.67a6.29 6.29 0 0 0 6.51 5c3.12 0 5.06-1.5 6.56-5.14 5.69-20.1 26.62-25.36 45.06-39.51-.11-1.55-.01-.04-.78-3.12z"/><path class="cls-16" d="M183.79 256.43c-2.2-5.46-12 .17-19.4 3.58-12.33 5.7-29.43-19-45.12-28.4a19.08 19.08 0 0 1-7.19-7.89 3.39 3.39 0 0 0-3.07-2.06c-1.72 0-2.76 1-3.44 2.55a13.89 13.89 0 0 1-6.38 6.62c-15.76 8.25-32.39 32-53.76 24.74a10.75 10.75 0 0 0-13.81 6.71 106.24 106.24 0 0 0-4.11 19.27 78.54 78.54 0 0 0 5.85 9.06A77.39 77.39 0 0 0 43 301.28h148.15c0-19.09-2.81-33.56-7.36-44.85z"/><path class="cls-9" d="M197.48 301.28H43c20.2 18.65 47.27 23.44 71.56 24h83z"/><path class="cls-22" d="M120.22 285c-14.26-8.13-26.87-4.36-37.11-25.75s39.25-57.8 40-59.14c-5.67-6.11-9.28-13.86-9.28-25.36 0-11 3.29-18.52 8.5-24.49-18.62-10.18 2.21-30.19-13.56-43-18-14.61-72.06-2-68-59H26.36c0 100.17 77.34 73.33 77.34 126.5 0 49.34-66.59 29.8-76.18 106.79a80.47 80.47 0 0 0 5.84 9A77.39 77.39 0 0 0 43 301.28h92.93s-3.33-9.19-15.71-16.28z"/><path class="cls-8" d="M26.36 48.28H20c0 96.5 74.74 82.75 74.74 126.5 0 38.6-58.18 32.46-71.87 96.77a73.73 73.73 0 0 0 4.62 10c9.59-77 76.18-57.45 76.18-106.79.03-53.15-77.31-26.31-77.31-126.48z"/><path class="cls-20" d="M173.7 48.28c0 19.67-3.9 34.48-11.67 45.33-9.79 13.67-6 16.22-2.92 15.67s13.61-10.5 18.61-24.83 5-36.17 5-36.17z"/><path class="cls-23" d="M43 301.28h148.15a157 157 0 0 0-1.37-21.37 44.11 44.11 0 0 0-7.41 5c-15.49 13.18-24.65-3.39-45-.43-10 1.46-26.09 14.61-35 9s-21-7.58-38.26-4c-11.53 2.39-24-3.43-36-11.79-.19 1.25-.38 2.53-.54 3.84a78.54 78.54 0 0 0 5.85 9.06A77.39 77.39 0 0 0 43 301.28z"/><path class="cls-20" d="M53.39 247.48c-4.22 6.68-7.32 11.76-8.93 19s-1.57 11.78 1.4 12.3 6.1-.56 7.54-7.48 6.18-17.16 9.57-20.83c5.09-5.53-3.97-11.94-9.58-2.99z"/><path class="cls-17" d="M130.86 306.1c-6 .33-15-1.32-21.53 0s-7 6.68-16.47 7.18c-6.53.34-20.64 0-34.43-.91C75.89 322 96 324.86 114.52 325.28h83v-24h-61.63c-1.31 2.72-2.81 4.72-5.03 4.82z"/><g class="cls-24"><path class="cls-19" d="M107.24 316.93c-.37-6.34-3.36-7.63-8.07-7.63h-.1c-6.54 0-20.17.07-20.71-7.61l1-.07c.47 6.75 14 6.69 19.71 6.68h.09c6.09 0 8.72 2.48 9.08 8.57z"/></g><g class="cls-24"><path class="cls-19" d="M127.6 319.15l-1-.24c1.06-4.24 3.73-4.71 9.06-5.65.79-.14 1.65-.29 2.58-.47 7.45-1.41 8.61-3.77 9.11-5.88.46-2 2.74-2.41 4.74-2.82a8 8 0 0 0 2.7-.84c1.45-1 1.42-1.92 1.42-1.93l1-.1c0 .15.11 1.46-1.83 2.84a8.58 8.58 0 0 1-3.08 1c-1.8.37-3.65.74-4 2.08-.71 3-2.67 5.25-9.89 6.62l-2.59.47c-5.31.96-7.32 1.31-8.22 4.92z"/></g><g class="cls-24"><path class="cls-19" d="M151.56 319.25l-.89-.44c.49-1 .84-1.86 1.14-2.63 1.25-3.13 1.94-4.86 9.19-6.51 8.91-2 13.19-3.51 15.05-6.88l.88.48c-2.05 3.7-6.5 5.27-15.71 7.37-6.73 1.54-7.28 2.91-8.48 5.92-.31.78-.67 1.67-1.18 2.69z"/></g><g class="cls-24"><path class="cls-19" d="M119.87 313.8h-.54a4.24 4.24 0 0 1-3.74-2.58c-1.44-3.1-.39-8.34 1-10.22l.8.6c-1.08 1.47-2.21 6.37-.89 9.2a3.25 3.25 0 0 0 2.9 2c5.4.37 12.66-5.61 14.1-11.62l1 .24c-1.5 6.31-8.78 12.38-14.63 12.38z"/></g><circle class="cls-11" cx="54.61" cy="221.08" r="4.64"/><path class="cls-25" d="M246.02 181.22l25.56 46.83-12.78 16.61-20.2-8.99 7.42-54.45z"/><path class="cls-26" d="M274 156.61a32.94 32.94 0 0 1-3.75 3.77c-1.12 1-1.07 2.32-.67 3.64s2.92 11.18 2.92 11.18a44.42 44.42 0 0 0-5 1.55c-3 1.09-4.12.89-4.12.89s-4.17-15.15-4-16.42.92-5 2-5.75a31 31 0 0 1 4.57-2.93c.86-.27 2.47-1.42 2.54-.66.1 1.09-3.08 2.91-3 3.28s5-2.73 5.5-3.1a5.3 5.3 0 0 0 1.52-2.77c.17-1.07.33-4.1.85-4.11s.7.35.83 1.31.61-1.7.95-1.71c.82 0 1.45 1.56 1.39 2.69s-.31 3-.43 4.12a7.69 7.69 0 0 1-2.1 5.02z"/><path class="cls-27" d="M262.15 174.78l1.2 6.44s1.6 20.52 2.7 26.39c1.29 6.88 3.93 29.12 3.93 29.12l24.59-13.83s-7.2-18.54-9.6-24.26c-2.09-5-8.36-18.51-8.36-18.51l-2.8-6.6z"/><g class="cls-28"><g class="cls-29"><g class="cls-30"><path class="cls-8" transform="rotate(-17.05 235.806 222.757)" d="M235.23 132.88h1v179.67h-1z"/></g><g class="cls-30"><path class="cls-8" transform="rotate(-17.05 242.813 220.602)" d="M242.24 130.73h1V310.4h-1z"/></g><g class="cls-30"><path class="cls-8" transform="rotate(-17.05 249.821 218.446)" d="M249.25 128.58h1v179.67h-1z"/></g><g class="cls-30"><path class="cls-8" transform="rotate(-17.05 256.862 216.296)" d="M256.27 126.43h1V306.1h-1z"/></g><g class="cls-30"><path class="cls-8" transform="rotate(-17.05 263.865 214.174)" d="M263.28 124.28h1v179.67h-1z"/></g><g class="cls-30"><path class="cls-8" transform="rotate(-17.05 270.873 212.018)" d="M270.29 122.13h1V301.8h-1z"/></g><g class="cls-30"><path class="cls-8" transform="rotate(-17.05 277.88 209.863)" d="M277.3 119.98h1v179.67h-1z"/></g><g class="cls-30"><path class="cls-8" transform="rotate(-17.05 284.889 207.707)" d="M284.31 117.82h1v179.67h-1z"/></g><g class="cls-30"><path class="cls-8" transform="rotate(-17.05 291.896 205.552)" d="M291.32 115.67h1v179.67h-1z"/></g><g class="cls-30"><path class="cls-8" transform="rotate(-17.05 298.904 203.396)" d="M298.33 113.52h1v179.67h-1z"/></g><g class="cls-30"><path class="cls-8" transform="rotate(-17.05 305.945 201.246)" d="M305.34 111.37h1v179.67h-1z"/></g><g class="cls-30"><path class="cls-8" transform="rotate(-17.05 312.953 199.09)" d="M312.35 109.22h1v179.67h-1z"/></g><g class="cls-30"><path class="cls-8" transform="rotate(-17.05 319.961 196.935)" d="M319.36 107.07h1v179.67h-1z"/></g><g class="cls-30"><path class="cls-8" transform="rotate(-17.05 326.969 194.78)" d="M326.37 104.92h1v179.67h-1z"/></g><g class="cls-30"><path class="cls-8" transform="rotate(-17.05 333.977 192.624)" d="M333.39 102.77h1v179.67h-1z"/></g><g class="cls-30"><path class="cls-8" transform="rotate(-17.05 340.98 190.502)" d="M340.4 100.62h1v179.67h-1z"/></g><g class="cls-30"><path class="cls-8" transform="rotate(-17.05 348.02 188.351)" d="M347.41 98.47h1v179.67h-1z"/></g><g class="cls-30"><path class="cls-8" transform="rotate(-17.05 355.029 186.196)" d="M354.42 96.32h1v179.67h-1z"/></g><g class="cls-30"><path class="cls-8" transform="rotate(-17.05 362.036 184.04)" d="M361.43 94.17h1v179.67h-1z"/></g><g class="cls-30"><path class="cls-8" transform="matrix(.96 -.29 .29 .96 -24.92 88.66)" d="M193.38 126.93h179.67v1H193.38z"/></g><g class="cls-30"><path class="cls-8" transform="matrix(.96 -.29 .29 .96 -26.88 89.6)" d="M195.53 133.94H375.2v1H195.53z"/></g><g class="cls-30"><path class="cls-8" transform="matrix(.96 -.29 .29 .96 -28.84 90.54)" d="M197.68 140.95h179.67v1H197.68z"/></g><g class="cls-30"><path class="cls-8" transform="matrix(.96 -.29 .29 .96 -30.8 91.47)" d="M199.83 147.97H379.5v1H199.83z"/></g><g class="cls-30"><path class="cls-8" transform="matrix(.96 -.29 .29 .96 -32.76 92.41)" d="M201.98 154.98h179.67v1H201.98z"/></g><g class="cls-30"><path class="cls-8" transform="matrix(.96 -.29 .29 .96 -34.73 93.35)" d="M204.13 161.99H383.8v1H204.13z"/></g><g class="cls-30"><path class="cls-8" transform="matrix(.96 -.29 .29 .96 -36.69 94.29)" d="M206.28 169h179.67v1H206.28z"/></g><g class="cls-30"><path class="cls-8" transform="matrix(.96 -.29 .29 .96 -38.65 95.23)" d="M208.43 176.01H388.1v1H208.43z"/></g><g class="cls-30"><path class="cls-8" transform="matrix(.96 -.29 .29 .96 -40.61 96.17)" d="M210.58 183.02h179.67v1H210.58z"/></g><g class="cls-30"><path class="cls-8" transform="matrix(.96 -.29 .29 .96 -42.57 97.11)" d="M212.73 190.03H392.4v1H212.73z"/></g><g class="cls-30"><path class="cls-8" transform="matrix(.96 -.29 .29 .96 -44.53 98.05)" d="M214.88 197.04h179.67v1H214.88z"/></g><g class="cls-30"><path class="cls-8" transform="matrix(.96 -.29 .29 .96 -46.49 98.99)" d="M217.03 204.05H396.7v1H217.03z"/></g><g class="cls-30"><path class="cls-8" transform="matrix(.96 -.29 .29 .96 -48.46 99.93)" d="M219.19 211.06h179.67v1H219.19z"/></g><g class="cls-30"><path class="cls-8" transform="matrix(.96 -.29 .29 .96 -50.42 100.86)" d="M221.34 218.07h179.67v1H221.34z"/></g><g class="cls-30"><path class="cls-8" transform="matrix(.96 -.29 .29 .96 -52.38 101.8)" d="M223.49 225.08h179.67v1H223.49z"/></g><g class="cls-30"><path class="cls-8" transform="rotate(-16.8 319.615 234.6)" d="M225.64 232.1h179.67v1H225.64z"/></g><g class="cls-30"><path class="cls-8" transform="matrix(.96 -.29 .29 .96 -56.3 103.68)" d="M227.79 239.11h179.67v1H227.79z"/></g><g class="cls-30"><path class="cls-8" transform="matrix(.96 -.29 .29 .96 -58.26 104.62)" d="M229.94 246.12h179.67v1H229.94z"/></g><g class="cls-30"><path class="cls-8" transform="matrix(.96 -.29 .29 .96 -60.23 105.56)" d="M232.09 253.13h179.67v1H232.09z"/></g></g></g><path class="cls-31" d="M395.96 301.09l18.45.2-.59 16.75-17.47-.92-.39-16.03z"/><path class="cls-32" d="M221.62 288.61s53.87-.32 79.41.89 96.74 9.08 96.74 9.08l-1.47 24-56.81 2.69-117.87.06z"/><path class="cls-33" d="M221.62 288.61v36.69h35.59c8.48-9.81 16-15.82 29.9-12.13 20.59 5.46 21.25-4.77 32.25-6.67 14-2.42 41.32 15 77.83 1.44l.58-9.34s-71.2-7.88-96.74-9.08-79.41-.91-79.41-.91z"/><path class="cls-31" d="M363.11 299.78l11.14 15.7-17.32 6-9.82-15.82 16-5.88z"/><path class="cls-34" d="M346.48 320.91l2.9-10.83a22.07 22.07 0 0 0 12.54.95 13.37 13.37 0 0 0 6.86-4 1.63 1.63 0 0 1 2.34-.14c2.2 2 6.65 5.95 9.29 6.87 3.63 1.26 12.06 1 14.88 2.38 1.64.8 2.65 4.37 2.93 6.45a2.36 2.36 0 0 1-2.34 2.69h-46a3.49 3.49 0 0 1-3.4-4.37z"/><path class="cls-35" d="M413.08 324.39l-5.08-3.48a2.47 2.47 0 0 1-.32-3.81 14.94 14.94 0 0 0 4.18-8.34 9.44 9.44 0 0 0-1.41-7 1.57 1.57 0 0 1 .6-2.27c2.76-1.41 7.89-4.14 9.76-5.93 2.62-2.5 4.12-5.89 7.36-9a7.85 7.85 0 0 1 7.69-1.82 2.23 2.23 0 0 1 1.25 3.13l-18.89 37.54a3.29 3.29 0 0 1-5.14.98z"/><path class="cls-36" d="M124.69 319c-29 .63-37.42-15.81-72.83-25.54-15.81-4.34-22-24.7-22.58-41.61-2.88 3.55-5.94 14.62-6.65 18.92a76.43 76.43 0 0 0 10.73 19.81c23.25 31.18 61.34 35.34 92 34.67h96.22c-.51-2.83-.78-2.83-1-5.66-45.83.05-95.89-.59-95.89-.59z"/><path class="cls-7" d="M168.13 289.68c6 20 14.5 35.75 48 35.75 42.52 0 79.67-54.07 87.6-66.43a1.68 1.68 0 0 1 2.89.12A177.57 177.57 0 0 0 320 280.18c6.69 9.21 23 26 28.24 31.41a3.19 3.19 0 0 0 3.78.58l14.73-7.87s-34.39-76.88-52.46-84.3c-19-7.82-76.66 36.44-85.66 44.94s-60.5 24.74-60.5 24.74z"/><path class="cls-37" d="M208.38 275.35l-3.25 6.22c3.9 4 23.9-.57 29.57-3.86s28.65-10.91 53.75-49.66c1.2-1.85-32.71 20.39-37 19.11a258.42 258.42 0 0 0-22.83 17.77c-3.05 2.89-11.04 6.68-20.24 10.42z"/><path class="cls-31" d="M227.38 160.12l22-26.75s7.75-16.25 18.25-17.25 9.5 4.5 9.75 8.75-2.71 30.6-9.54 33.89c-4.32 2.08-11.51-5.33-11.51-5.33l-15.2 20.19z"/><path class="cls-26" d="M252.81 140.45c-2.27-1.57-2.13-1.52-3.78-6.66l-21.65 26.33 13.75 13.5 15.2-20.19a51.74 51.74 0 0 1-4.22-7.1c-1.11-2.51 1.89-5.02.7-5.88z"/><path class="cls-35" d="M251.12 142.27a1.37 1.37 0 0 0 1.69-1.82c-1.64-4-2.19-5.91.29-7.78 1.21-.9 3.26.41 4.71 1.59a1.24 1.24 0 0 0 2-.69c.51-2.33 1.71-5.92 4.48-7.95 4-2.92 13.69-1.1 18.74-9.62 5.53-9.33-1.31-23.89-13.75-12.8-5.67-2.67-11.25-3.33-15.25.08-3.58 3-3.67 7.56-4.68 8.56s-6.15.6-7.9 8.11c-.79 3.38 1.86 16.06 3.52 18.78 1.03 1.61 3.91 2.82 6.15 3.54z"/><path class="cls-27" d="M232.36 150.58s4.18-1 10 4.1a57.81 57.81 0 0 1 8.89 9.35s-1.39 3.65-3.14 7.15c1.33 7.83 3.43 25.1 3.29 29.34-.25 7.5-5 53.41-5 53.41s-35.26 30.75-49 36-28.19 3.15-28.19 3.15-7.12-17-7.12-21 14.87-44.78 18.37-53.33 12.66-29.58 18.18-38.06c10.17-15.61 26.09-22.87 26.84-24.37s6.88-5.74 6.88-5.74z"/><path class="cls-38" d="M246.39 253.93s4.78-45.91 5-53.41c.14-4-1.76-19.83-3.09-28.11-5.47-4.74-7-5.25-11-10.38-6.37 7.57-7.75 40.39-18.37 48.89s-20.32 24.61-16.8 39.08-1 18.25-11.24 22.07c-7.62 2.85-7.17 12.31-4.82 20.7a53.07 53.07 0 0 0 11.31-2.87c13.75-5.22 49.01-35.97 49.01-35.97z"/><path class="cls-31" d="M287.11 218.68c4.63-2.52 9.25-4.77 12.88-4.27s5.85 4.51 5.85 4.51a33 33 0 0 0-12.74 5.18c-1.54 1.12-5.99-5.42-5.99-5.42z"/><g class="cls-30"><path class="cls-8" d="M248.1 172.86c-1.2-.61-3.4-2.59-6.19-5.09-4.36-3.91-9.79-8.77-13.21-9.93l.32-1c3.62 1.22 9.13 6.17 13.56 10.14a47 47 0 0 0 6 4.94z"/></g><path class="cls-8" transform="rotate(-4.71 269.874 180.622)" d="M263.33 180.18h13.31v1h-13.31z"/><path class="cls-9" d="M382.1 315.92l-.48-.88c1-.56 4-3.6 3.8-4.75 0-.08 0-.28-.57-.37-2.22-.36-4.38 3.41-5 4.89l-.94-.34c.68-2.2 2-8.32.12-10.29-.42-.43-.62-.29-.73-.21-1.33 1-2 7.35.19 11.26l-.87.5c-2.31-4.08-1.91-11.07.09-12.56a1.43 1.43 0 0 1 2 .32c1.62 1.69 1.36 5.32.89 8 1.09-1.46 2.62-2.86 4.4-2.56a1.48 1.48 0 0 1 1.4 1.18c.33 1.89-3.4 5.3-4.3 5.81zm37.37-18.54c-3.87-1.05-7.63-6.61-7.23-8.83a1.5 1.5 0 0 1 1.79-1.2c2.53.24 4.4 3.3 5.47 5.62.06-2.79.45-4.33 1.22-5a1.7 1.7 0 0 1 1.54-.3 1 1 0 0 1 .66.53c.9 1.75-1.4 8.23-1.43 8.29l-.92-.38c.69-1.68 2-6.9 1.44-7.48a.72.72 0 0 0-.65.11c-.7.58-1 2.91-.83 6.92l-1 .13c-.17-.72-2.52-7.18-5.6-7.47-.63-.06-.68.21-.71.38-.3 1.64 3 6.74 6.5 7.69z"/><g class="cls-39"><g class="cls-40"><g class="cls-30"><path class="cls-8" d="M149.89 142.34h1v179.67h-1z"/></g><g class="cls-30"><path class="cls-8" d="M157.22 142.34h1v179.67h-1z"/></g><g class="cls-30"><path class="cls-8" d="M164.56 142.34h1v179.67h-1z"/></g><g class="cls-30"><path class="cls-8" d="M171.89 142.34h1v179.67h-1z"/></g><g class="cls-30"><path class="cls-8" d="M179.22 142.34h1v179.67h-1z"/></g><g class="cls-30"><path class="cls-8" d="M186.56 142.34h1v179.67h-1z"/></g><g class="cls-30"><path class="cls-8" d="M193.89 142.34h1v179.67h-1z"/></g><g class="cls-30"><path class="cls-8" d="M201.22 142.34h1v179.67h-1z"/></g><g class="cls-30"><path class="cls-8" d="M208.56 142.34h1v179.67h-1z"/></g><g class="cls-30"><path class="cls-8" d="M215.89 142.34h1v179.67h-1z"/></g><g class="cls-30"><path class="cls-8" d="M223.22 142.34h1v179.67h-1z"/></g><g class="cls-30"><path class="cls-8" d="M230.56 142.34h1v179.67h-1z"/></g><g class="cls-30"><path class="cls-8" d="M237.89 142.34h1v179.67h-1z"/></g><g class="cls-30"><path class="cls-8" d="M245.22 142.34h1v179.67h-1z"/></g><g class="cls-30"><path class="cls-8" d="M252.56 142.34h1v179.67h-1z"/></g><g class="cls-30"><path class="cls-8" d="M259.89 142.34h1v179.67h-1z"/></g><g class="cls-30"><path class="cls-8" d="M267.22 142.34h1v179.67h-1z"/></g><g class="cls-30"><path class="cls-8" d="M274.56 142.34h1v179.67h-1z"/></g><g class="cls-30"><path class="cls-8" d="M281.89 142.34h1v179.67h-1z"/></g><g class="cls-30"><path class="cls-8" d="M133.89 154.51h179.67v1H133.89z"/></g><g class="cls-30"><path class="cls-8" d="M133.89 161.84h179.67v1H133.89z"/></g><g class="cls-30"><path class="cls-8" d="M133.89 169.17h179.67v1H133.89z"/></g><g class="cls-30"><path class="cls-8" d="M133.89 176.51h179.67v1H133.89z"/></g><g class="cls-30"><path class="cls-8" d="M133.89 183.84h179.67v1H133.89z"/></g><g class="cls-30"><path class="cls-8" d="M133.89 191.17h179.67v1H133.89z"/></g><g class="cls-30"><path class="cls-8" d="M133.89 198.51h179.67v1H133.89z"/></g><g class="cls-30"><path class="cls-8" d="M133.89 205.84h179.67v1H133.89z"/></g><g class="cls-30"><path class="cls-8" d="M133.89 213.17h179.67v1H133.89z"/></g><g class="cls-30"><path class="cls-8" d="M133.89 220.51h179.67v1H133.89z"/></g><g class="cls-30"><path class="cls-8" d="M133.89 227.84h179.67v1H133.89z"/></g><g class="cls-30"><path class="cls-8" d="M133.89 235.17h179.67v1H133.89z"/></g><g class="cls-30"><path class="cls-8" d="M133.89 242.51h179.67v1H133.89z"/></g><g class="cls-30"><path class="cls-8" d="M133.89 249.84h179.67v1H133.89z"/></g><g class="cls-30"><path class="cls-8" d="M133.89 257.17h179.67v1H133.89z"/></g><g class="cls-30"><path class="cls-8" d="M133.89 264.51h179.67v1H133.89z"/></g><g class="cls-30"><path class="cls-8" d="M133.89 271.84h179.67v1H133.89z"/></g><g class="cls-30"><path class="cls-8" d="M133.89 279.17h179.67v1H133.89z"/></g><g class="cls-30"><path class="cls-8" d="M133.89 286.51h179.67v1H133.89z"/></g></g></g><path class="cls-4" d="M221.62 179.24c-7.56 7.55-9.41 21.85-5.33 46.27 4 23.75 16.23 40.79 25 41.27 9.49.52 19.46-12.1 28.66-21.6s23.15-21.08 23.15-21.08a12.4 12.4 0 0 0-3.73-4.64 4.78 4.78 0 0 0-4.78-.29l-31.8 14.44a2.06 2.06 0 0 1-2.91-1.69c-.75-8.95-3.39-36.09-8.58-47.21-2.75-5.91-12.43-12.71-19.68-5.47z"/><path class="cls-8" d="M288 228.3c-1.79-3.18-4.74-4.85-8.63-6.38l.36-.93c4.09 1.61 7.21 3.39 9.14 6.82z"/><g class="cls-41"><g class="cls-42"><g class="cls-30"><path class="cls-8" transform="rotate(-19.14 185.788 269.614)" d="M185.31 179.8h1v179.67h-1z"/></g><g class="cls-30"><path class="cls-8" transform="rotate(-19.14 192.72 267.214)" d="M192.24 177.4h1v179.67h-1z"/></g><g class="cls-30"><path class="cls-8" transform="rotate(-19.14 199.651 264.814)" d="M199.17 175h1v179.67h-1z"/></g><g class="cls-30"><path class="cls-8" transform="rotate(-19.14 206.583 262.415)" d="M206.09 172.59h1v179.67h-1z"/></g><g class="cls-30"><path class="cls-8" transform="rotate(-19.14 213.514 260.015)" d="M213.02 170.19h1v179.67h-1z"/></g><g class="cls-30"><path class="cls-8" transform="rotate(-19.14 220.445 257.615)" d="M219.95 167.78h1v179.67h-1z"/></g><g class="cls-30"><path class="cls-8" transform="rotate(-19.14 227.352 255.18)" d="M226.88 165.38h1v179.67h-1z"/></g><g class="cls-30"><path class="cls-8" transform="rotate(-19.14 234.284 252.78)" d="M233.81 162.97h1v179.67h-1z"/></g><g class="cls-30"><path class="cls-8" transform="rotate(-19.14 241.215 250.381)" d="M240.73 160.57h1v179.67h-1z"/></g><g class="cls-30"><path class="cls-8" transform="rotate(-19.14 248.146 247.981)" d="M247.66 158.16h1v179.67h-1z"/></g><g class="cls-30"><path class="cls-8" transform="rotate(-19.14 255.078 245.581)" d="M254.59 155.76h1v179.67h-1z"/></g><g class="cls-30"><path class="cls-8" transform="rotate(-19.14 262.01 243.182)" d="M261.52 153.36h1v179.67h-1z"/></g><g class="cls-30"><path class="cls-8" transform="rotate(-19.14 268.911 240.777)" d="M268.45 150.95h1v179.67h-1z"/></g><g class="cls-30"><path class="cls-8" transform="rotate(-19.14 275.843 238.377)" d="M275.37 148.55h1v179.67h-1z"/></g><g class="cls-30"><path class="cls-8" transform="rotate(-19.14 282.774 235.977)" d="M282.3 146.14h1v179.67h-1z"/></g><g class="cls-30"><path class="cls-8" transform="rotate(-19.14 289.71 233.548)" d="M289.23 143.74h1v179.67h-1z"/></g><g class="cls-30"><path class="cls-8" transform="rotate(-19.14 296.642 231.148)" d="M296.16 141.33h1V321h-1z"/></g><g class="cls-30"><path class="cls-8" transform="rotate(-19.14 303.573 228.748)" d="M303.09 138.93h1V318.6h-1z"/></g><g class="cls-30"><path class="cls-8" transform="rotate(-19.14 310.505 226.349)" d="M310.01 136.53h1V316.2h-1z"/></g><g class="cls-30"><path class="cls-8" transform="rotate(-19.14 229.821 172.7)" d="M139.96 172.19h179.67v1H139.96z"/></g><g class="cls-30"><path class="cls-8" transform="rotate(-19.14 232.22 179.631)" d="M142.36 179.12h179.67v1H142.36z"/></g><g class="cls-30"><path class="cls-8" transform="rotate(-19.14 234.62 186.563)" d="M144.76 186.05h179.67v1H144.76z"/></g><g class="cls-30"><path class="cls-8" transform="rotate(-19.14 237.02 193.494)" d="M147.17 192.98h179.67v1H147.17z"/></g><g class="cls-30"><path class="cls-8" transform="rotate(-19.14 239.45 200.43)" d="M149.57 199.9h179.67v1H149.57z"/></g><g class="cls-30"><path class="cls-8" transform="rotate(-19.14 241.85 207.362)" d="M151.98 206.83h179.67v1H151.98z"/></g><g class="cls-30"><path class="cls-8" transform="rotate(-19.14 244.25 214.294)" d="M154.38 213.76h179.67v1H154.38z"/></g><g class="cls-30"><path class="cls-8" transform="rotate(-19.14 246.654 221.195)" d="M156.79 220.69h179.67v1H156.79z"/></g><g class="cls-30"><path class="cls-8" transform="rotate(-19.14 249.054 228.127)" d="M159.19 227.62h179.67v1H159.19z"/></g><g class="cls-30"><path class="cls-8" transform="rotate(-19.14 251.454 235.058)" d="M161.6 234.54h179.67v1H161.6z"/></g><g class="cls-30"><path class="cls-8" transform="rotate(-19.14 253.854 241.99)" d="M164 241.47h179.67v1H164z"/></g><g class="cls-30"><path class="cls-8" transform="rotate(-19.14 256.283 248.926)" d="M166.4 248.4h179.67v1H166.4z"/></g><g class="cls-30"><path class="cls-8" transform="rotate(-19.14 258.683 255.857)" d="M168.81 255.33h179.67v1H168.81z"/></g><g class="cls-30"><path class="cls-8" transform="rotate(-19.14 261.083 262.789)" d="M171.21 262.26h179.67v1H171.21z"/></g><g class="cls-30"><path class="cls-8" transform="rotate(-19.14 263.482 269.72)" d="M173.62 269.18h179.67v1H173.62z"/></g><g class="cls-30"><path class="cls-8" transform="rotate(-19.14 265.882 276.652)" d="M176.02 276.11h179.67v1H176.02z"/></g><g class="cls-30"><path class="cls-8" transform="rotate(-19.14 268.287 283.554)" d="M178.43 283.04H358.1v1H178.43z"/></g><g class="cls-30"><path class="cls-8" transform="rotate(-19.14 270.716 290.49)" d="M180.83 289.97H360.5v1H180.83z"/></g><g class="cls-30"><path class="cls-8" transform="rotate(-19.14 273.116 297.421)" d="M183.23 296.9H362.9v1H183.23z"/></g></g></g><g class="cls-43"><path class="cls-8" d="M358.68 308.7c-.17-.2-17.17-20.59-22.06-26.82-6.16-7.84-10.88-17.28-15-25.6-4.6-9.18-8.56-17.1-12.31-17.84-3.13-.6-8.69 2.77-12.4 7.55-2 2.54-5.58 6.59-9.42 10.88s-8 9-11.37 13.06c-4.25 5.18-19.48 16.25-40.35 27.41-19.36 10.35-30.16 1.09-35.8-8.52l.86-.5c5.42 9.22 15.8 18.12 34.47 8.14 20.76-11.1 35.86-22.06 40.05-27.16 3.34-4.06 7.62-8.86 11.4-13.09s7.43-8.32 9.37-10.83c4-5.13 9.86-8.63 13.38-7.92 4.23.83 8.11 8.57 13 18.37 4.14 8.29 8.84 17.67 14.93 25.43 4.89 6.22 21.88 26.6 22.05 26.8z"/></g><path class="cls-44" d="M268.42 140.21a3.66 3.66 0 0 1-.65-.06c-2.15-.42-3.5-2.84-3-5.39a5.2 5.2 0 0 1 1.75-3 3.7 3.7 0 0 1 3.06-.85c2.16.43 3.5 2.84 3 5.4a4.55 4.55 0 0 1-4.16 3.9zm.51-8.39a2.85 2.85 0 0 0-1.78.68 4.23 4.23 0 0 0-1.4 2.45c-.39 2 .6 3.91 2.22 4.22s3.24-1.07 3.63-3.08-.6-3.91-2.21-4.22a2.4 2.4 0 0 0-.46-.05z"/><path class="cls-44" transform="rotate(-76.04 260.796 133.74)" d="M260.29 129.14h1v9.21h-1z"/><path class="cls-45" transform="rotate(-78.5 277.285 136.488)" d="M277.28 134.96h1v2.93h-1z"/><path class="cls-44" d="M276.67 141a1.33 1.33 0 0 1-.28 0c-.71-.13-1.25-.79-1.5-1.85a7.71 7.71 0 0 1 0-3.25 8 8 0 0 1 1.22-3 2.17 2.17 0 0 1 2.09-1.14c1.37.26 2 2.46 1.5 5.1a7.82 7.82 0 0 1-1.22 3 2.39 2.39 0 0 1-1.81 1.14zm1.26-8.32c-.29 0-.66.28-1 .76a7 7 0 0 0-1.05 2.62 6.9 6.9 0 0 0 0 2.83c.15.63.42 1 .72 1.1s.71-.22 1.09-.75a6.82 6.82 0 0 0 1.05-2.62c.44-2.27-.12-3.82-.71-3.93z"/><path class="cls-46" d="M264.29 125.62c4-2.92 13.69-1.1 18.74-9.62.18-.3.34-.61.5-.92-3.95 3.07-11.46 5.4-17.36 4.1-6.52-1.43-9.49 3.68-14.74 6.1-4.1 1.89-8-1.11-10.11-4.3-.22 4.4 2.13 15.26 3.65 17.75 1 1.61 3.91 2.82 6.15 3.54a1.37 1.37 0 0 0 1.69-1.82c-1.64-4-2.19-5.91.29-7.78 1.21-.9 3.26.41 4.71 1.59a1.24 1.24 0 0 0 2-.69c.51-2.33 1.71-5.92 4.48-7.95z"/><g class="cls-47"><path class="cls-8" d="M272 123.23a13.24 13.24 0 0 0 7.51-10.52c.26-5.29-2.79-11-5.48-12.7l1.07-.4c3 1.84 5.69 7.43 5.41 13.15a11.82 11.82 0 0 1-5.15 9.47 17.89 17.89 0 0 1-3.36 1z"/></g><g class="cls-47"><path class="cls-8" d="M260.73 126.31c-11.82 0-16.89-6.92-18.27-9.28l.47-.86c1.43 2.42 8.61 10.37 22 9l-1.32 1c-1.05.1-1.91.14-2.88.14z"/></g><g class="cls-47"><path class="cls-8" d="M264.94 125.21c-12.57-.44-20-7.4-20.27-11l.91-.65c.22 2.9 9.55 10.42 21.6 10.84z"/></g><path class="cls-44" d="M275.06 135.5a2.63 2.63 0 0 0-2.57-.23l-.47-.88a3.54 3.54 0 0 1 3.77.43z"/></g></g></svg>