<svg xmlns="http://www.w3.org/2000/svg" viewBox="0 0 344.47 349.05"><defs><style>.cls-1{isolation:isolate}.cls-2{fill:#80ccff}.cls-3{fill:#005fe1}.cls-4{fill:#e88f80}.cls-5{fill:#1d425b}.cls-15,.cls-6{fill:#213a6d}.cls-6{opacity:.44;mix-blend-mode:overlay}.cls-7{fill:#afd7f3}.cls-8{fill:#fff}.cls-9{fill:#f0f9ff}.cls-10{fill:#4073bf}.cls-11{fill:#edb9ae}.cls-12{fill:#dff0ff}.cls-13{fill:#bee8ff}.cls-14{fill:#f1cabf}</style></defs><title>organizer_step_3</title><g class="cls-1"><g id="Layer_3" data-name="Layer 3"><path class="cls-2" d="M.5 124.36C.46 41.55 122.87-29 230.83 12.1s154 189.55 49.68 250.89c-66.21 38.95-117.92 16.19-174.2-7.43S.53 194.91.5 124.36z"/><path class="cls-3" d="M338.35 147.62c-4 3.82-7.11 9.63-8.35 18.24-5.73 39.67-17.18 56-35.8 72.62s-63.2 29.21-97.88 27.76-77.32-27.18-83.26-48.34-25.15-28.73-46.46-27.61-40-14.2-44.12-32c-2.83-12.32-10-26.82-21.9-37.47 0 1.19-.08 2.38-.08 3.58C.53 194.91 50 232 106.31 255.56s108 46.38 174.2 7.43c46.01-27.07 62.75-71.09 57.84-115.37z"/><circle class="cls-4" cx="122.47" cy="5.58" r="5.53"/><path class="cls-5" d="M188.83 20.62c8.66-12.93 23.63-9.16 34.33-3.3C230 21.05 238.89 28.25 244.48 29s19.78-7.25 28.67 1.25c10.43 10 1.09 22.39 5.2 28 2.67 3.67 4.35.7 9.86 2.4 7.91 2.45 1.39 8.38 7 12.92s28.92-10.92 44 11.67c9.78 14.64.9 28.1 2.66 48.36.7 8 7.31 24.85-7.36 44.06-11.95 15.65-86.68 19.81-106.55 9.29-24.94-13.2-28.56-94.42-27.73-95.26z"/><path class="cls-6" d="M283.81 173.53c30.73-12.24 37.71-45.28 23.28-59.59s-40-6.86-50.75-16.64c-9.19-8.39.46-25.14-9.31-33.64-4.84-4.21-18.49-3.58-31.72-7.61-8.52-2.59-16.48-8.55-23.1-14.21l6.86 50.41s34.62 60.28 60.42 88.49a145 145 0 0 0 24.32-7.21z"/><path class="cls-5" d="M169.52 58.82s-.88-1-1.15-1.28c-2.08-2.49-8.4-10.06-8.4-20.23h2.2c0 9.37 5.94 16.48 7.89 18.82.81 1 1.25 1.49.76 2.23z"/><path class="cls-4" d="M164.69 238.48S155 260 143.43 270.54c34.32 12.57 68.52 19.57 107.18 6.37l-18.17-38.25z"/><path class="cls-7" d="M129.62 312.67c21.47 10.84 47 5.52 47 5.52s-1.52 30.76-16.07 30.72c-19.69-.05-30.93-36.24-30.93-36.24z"/><path class="cls-8" d="M271.11 185.78s-12.2-54.58-19.31-61c-6.88-6.21-19.09-11.65-33.39-12.74-28.26-2.15-40 0-40 0l-37.24 8s-1.64 23.84 1.25 38.9c.54 2.81 16.59-.78 16.66 1.64.08 2.73-5.62 13.82-1.53 29.13 1.73 6.48 7.32 14 8 25.58.47 8.47-.81 23.22-.81 23.22s13 11.2 31.48 11.2c23.16 0 36.27-11 36.27-11s-3.62-16.26-2.22-29.35c1.17-11 3-26.62 5.52-35.88.25-1 7.82 21.8 7.82 21.8s10.91-1.66 15.18-3a52.73 52.73 0 0 0 12.32-6.5z"/><path class="cls-9" d="M196.17 249.68c23.16 0 36.27-11 36.27-11s-.61-10.6-1.3-15.55c-.4.47-21.75 15.37-38.93 10.43-13.93-4-20.16-13.49-17.51-23.92s1.68-20.88-4.86-24.36-3.38-19.55-5.69-27.35c-2.72-9.23-23-8.34-23-8.34a43.26 43.26 0 0 0 1.28 9.34c.54 2.81 16.59-.78 16.66 1.64.08 2.73-5.62 13.82-1.53 29.13 1.73 6.48 7.32 14 8 25.58.47 8.47-.81 23.22-.81 23.22s12.94 11.18 31.42 11.18z"/><path class="cls-10" d="M195.59 225.38l-2.78 2a.63.63 0 0 1-1-.67l.83-3.23a6.91 6.91 0 0 1 1.09-2.29l24.81-33.6a1.5 1.5 0 0 1 2.1-.32l1.07.8a1.5 1.5 0 0 1 .31 2.09l-24.93 33.79a6.62 6.62 0 0 1-1.5 1.43z"/><path class="cls-11" d="M45.18 150.33c1.08-2.38 4.54-7.8 5-11.87.29-2.57.4-4.8.44-6.1a.76.76 0 0 1 1.16-.62 7.12 7.12 0 0 1 3.16 4c.59 1.93 0 11.66 0 11.66z"/><path class="cls-12" d="M41.29 71.6c31.9 51.22-9.82 182.18-9.82 219.6 0 24.54 12.89 44.78 12.89 44.78s19.62-4.91 46-2.45 60.11 14.1 68.7 15.33c-14.92-4.91-18.91-23-22.69-43.14-8-42.52 15.95-169.85 17.17-204.88.92-26.48-6.13-60.21-24.13-58.47-36.6 10.63-94 6.31-94 6.31a39.74 39.74 0 0 0 5.88 22.92z"/><path class="cls-13" d="M129.41 42.37c-36.6 10.63-94 6.31-94 6.31a39.74 39.74 0 0 0 5.88 22.92c24.12 38.74 6.15 123.08-4 178.08a24.55 24.55 0 0 1 23.68-10.21c8.22 1.23 15.26-8.46 10.13-21.26-4.23-10.57-9.72-25.21 0-35.43 9-9.48 28.74-13.7 31-21.12 3.27-10.63-6.81-23.2-4.36-37.1 4.36-24.73 28.22-40.07 55.61-37.17-1.51-23.16-8.9-46.48-23.94-45.02z"/><path class="cls-8" d="M26.43 44.23C7.41 57.31 12.66 80 23.09 88c15.54-9 74.43-9.06 89.76-2.66-5.31-18.08 3.89-40.48 15.54-42.93-46.82 6.29-101.96 1.82-101.96 1.82z"/><circle class="cls-13" cx="128.01" cy="114.67" r="5.34"/><circle class="cls-13" cx="123.48" cy="170.77" r="4.91"/><circle class="cls-13" cx="118.58" cy="224.95" r="5.52"/><circle class="cls-13" cx="112.75" cy="286.91" r="5.83"/><path class="cls-11" d="M64.14 162.39s6.59-2.64 8.65-3.78S83.65 152.86 84 152s-.58-2.26-4.36-1.14a42.59 42.59 0 0 0-8.15 3.9 19.66 19.66 0 0 1-4.24 1.51 27.74 27.74 0 0 0-5.77 2.42 1.1 1.1 0 0 1 .41-1.41c.84-.45 13.3-6.21 14.86-7.26s12.58-4.87 11.23-8.41c-.64-1.67-12.43 3.69-12.43 3.69s-2.8 1.17-5.17 2.13a49.66 49.66 0 0 0-6 3.21l-2.9.17 2.2-.65s7.06-3.54 9-4.6 11.29-6.51 10.35-8.47-13.54 5.83-15 6-9.93 1.9-9.93 1.9a16.88 16.88 0 0 1-5.14-.92 28.08 28.08 0 0 0-4.25-.83c-4.53 4.6-6.18 9.51-6 16.33.25 8.39 3.5 12.06 7.37 11.22 1.67-.36 4.07-1.28 5.32-1.65s8.7-1.94 9.35-2.37 9.65-3.05 9.63-5-10.24.62-10.24.62z"/><circle class="cls-10" cx="227.94" cy="284.01" r="11.03"/><path class="cls-11" d="M190.65 86.75l-1.75 18a7.08 7.08 0 0 1-5.58 6.23L177 112.3s3.72 23.83 20.34 24.65c16.92.83 21-24.9 21-24.9l-5.3-.79a2.77 2.77 0 0 1-2.35-2.62l-.08-29z"/><path class="cls-14" d="M177.16 44.31c-.93 19.79 2.52 39.41 9.5 45.39s15.89 1.77 21.47-5.21 7.18-28.44 7.18-28.44a63.75 63.75 0 0 1-12.54-7.29c-5.6-4.31-13.94-20.71-13.94-20.71s-11.45 11.6-11.67 16.26z"/><path class="cls-5" d="M200.77 23.15c-2.2-1.69-32.63-9.62-30.85 14.82A25.55 25.55 0 0 0 177 54a19.93 19.93 0 0 1 3.32-13.72c4.58-6.42 20.45-17.13 20.45-17.13z"/><path class="cls-7" d="M158.89 349.38c-15.86-5.21-19.69-25.58-23.07-43.56-5.33-28.36 3.37-93.27 10.35-145.43 3.44-25.68 6.41-47.86 6.82-59.57.7-20.09-3.12-44.63-13.23-54.13a12.82 12.82 0 0 0-10.29-3.78l-.11-1.09a13.88 13.88 0 0 1 11.15 4.06c10.36 9.74 14.29 34.63 13.58 55-.41 11.76-3.38 34-6.83 59.68-7 52.08-15.65 116.89-10.35 145.08 4 21.36 8.21 38.08 22.32 42.72z"/><path class="cls-2" d="M22.76 88.4c-6-4.55-9.81-13.35-9.6-21.9.23-9.07 4.83-17.14 13-22.73l.63.91c-7.83 5.38-12.26 13.14-12.48 21.84-.2 8.22 3.48 16.66 9.16 21z"/><path class="cls-14" d="M212.27 57.34c3.84-2.3 5.35-1.22 6 .92s.09 9.91-2.6 10.89a20.56 20.56 0 0 1-6.67.77z"/><path class="cls-7" d="M196.56 143.54c-15.12 0-23.67-22.06-25.5-29.95l1.07-.25c1.81 7.81 10.3 29.93 25.26 29.07 15.91-.9 25.07-20.18 25.31-29.83h1.1c-.25 10-9.78 30-26.35 30.9zm45.62 47.15h-.36l.05-1.1c5.55.25 23.58-6.34 27.65-9.63l.69.86c-4.21 3.38-21.82 9.87-28.03 9.87z"/><path class="cls-15" d="M164.89 232s17 8.28 32.13 8 34.36-8 34.36-8l4.17 13.19s-20.93 8.81-38.55 8.9c-23.85.11-36-8.37-36-8.37z"/><path class="cls-11" d="M218.41 222c36.65 33.94 51.6 30.22 55.36 27.64 8.53-5.88-4.34-62.9-4.34-62.9a33.06 33.06 0 0 1-11.38 5.59 55.31 55.31 0 0 1-11.38 2.35l9.19 29.42-27.92-13.6z"/><path class="cls-11" d="M229.08 211.21c-3.4-2.91-6.58-8.9-9.88-12.23a6.43 6.43 0 0 0-7.46-1.19c-3.68 1.86-8.58 4.52-10.66 6.43-3.53 3.25-6.29 14-6.29 14a1.71 1.71 0 0 0 2.23 0c1.3-.91 6.28-9.19 6.28-9.19l-1.82 7.34a2.33 2.33 0 0 0 1.93 3l.89.11s-.65 1.81.27 2.11 1.27.19 3.41.35.15 1.81 2.61 2.2c2.8.43 7.82-2.05 7.82-2.05s9.66 2 11.65-1 3.55-5.99-.98-9.88z"/></g></g></svg>