<svg xmlns="http://www.w3.org/2000/svg" viewBox="0 0 385.1 336.44"><defs><style>.cls-1{isolation:isolate}.cls-2{fill:#dff0ff}.cls-11,.cls-15,.cls-3{fill:#213a6d}.cls-17,.cls-4{fill:#fff}.cls-5{fill:#80ccff}.cls-6{fill:#2e9dff}.cls-7{opacity:.7}.cls-11,.cls-15,.cls-7{mix-blend-mode:overlay}.cls-8{fill:#e7e586}.cls-9{fill:#e68a78}.cls-10{fill:#edb9ae}.cls-11{opacity:.44}.cls-12{fill:#f1cabf}.cls-13{fill:#4073bf}.cls-14{fill:#3868ac}.cls-15{opacity:.65}.cls-16{fill:#007eef}.cls-17{opacity:.2;mix-blend-mode:lighten}</style></defs><title>organizer_step_2</title><g class="cls-1"><g id="Layer_3" data-name="Layer 3"><path class="cls-2" d="M191.38 5.7C291.76.08 372.6 66.29 377 169.85s-77.11 167.44-185.62 166.89S9.61 265.69 19 153.87 122.53 9.56 191.38 5.7z"/><path class="cls-3" d="M93.45 226.84c5.06-1.75 10.47-16.49 19.83-14 5.74 1.49 7.69 14.39 10 18.45s7.83-9.88 13.14-6.54 4.5 20.41 7.41 22.77 4.07-3 9 2.57-12.24 32.38-12.24 32.38l-52.25-9.94c-5.49-1.05-13-4.89-11-11.23s2 5.34 3.64 1-12.45-32.2-6.67-42.8c3.57-6.56 11.69 9.93 19.14 7.34zM207.6 195.6c-6.72-7.09 1.87-17.49-5.55-21.34-10.94-5.66-10.93 21.47-15.12 22.58s-2.53-10.19-7.33-10.22-5.69 22-7.65 25.21-6.14-8.13-10.5-5.53-.53 14.87-2.93 16.73-6.71-1-10.76 3.46 9.3 26.4 9.3 26.4 77.81-23.53 76.59-27.07 6.56-20.17 2-28.79c-6.87-12.95-21.47 5.5-28.05-1.43z"/><path class="cls-4" d="M307.61 257c-1.06-12.81-1.36-24-.37-28.59l.33-1.54c3.06-14.06 10.22-47 5.17-68.31-2.29-9.65.31-19.27 3.07-29.46 3.41-12.57 6.93-25.58 2.58-41a1 1 0 0 0-1.27-.76 1.33 1.33 0 0 0-.62 1.57c4.13 14.63.71 27.23-2.59 39.42-2.86 10.56-5.56 20.54-3.1 30.94 4.9 20.64-2.16 53.11-5.17 67l-.34 1.54c-1 4.63-.78 15.34.16 27.71a22.6 22.6 0 0 0 2.15 1.48z"/><path class="cls-4" d="M316 86.93c.42 4.58 2.55 10.19 3.45 10.07s2-6.19 1.55-10.77-2.61-13.65-3.77-13.49-1.65 9.6-1.23 14.19zm-11.62 56.14c1.83 4.66 5.79 9.63 6.7 9.08s.22-7.46-1.61-12.13-6.89-13.26-8.07-12.55 1.15 10.93 2.98 15.6z"/><path class="cls-4" d="M317 137.91c-3.51 2.85-7 8.33-6.43 9.38s6-.69 9.54-3.54 9.77-10.14 9.05-11.5-8.63 2.82-12.16 5.66zm3.69 100.71c-4.84 6-13.11 11.09-14.29 9.64s2.88-11.68 7.72-17.69 16.37-16 17.9-14.13c1.38 1.69-6.49 16.17-11.33 22.18zm-.75-29.78c-3.87 4.41-10.34 7.95-11.2 6.79s2.52-8.82 6.39-13.23 13-11.57 14.1-10.07c1.01 1.35-5.41 12.11-9.29 16.51zm1.34-33.47c-2.23 4.78-6.73 9.68-7.67 9s.22-7.94 2.44-12.72 8.11-13.45 9.33-12.59-1.88 11.52-4.1 16.31z"/><path class="cls-4" d="M305.53 200.4c3 4.71 5.08 12.27 4.15 13.16s-6.33-3.53-9.29-8.24-7.55-15.54-6.36-16.68 8.54 7.05 11.5 11.76zm4.39-25.62c2.67 4.25 4.57 11.06 3.74 11.86s-5.7-3.19-8.37-7.43-6.79-14-5.72-15 7.69 6.33 10.35 10.57zm12.35-62.43c-2.7 1.87-5.48 5.69-5.11 6.5s4.45-.14 7.15-2 7.59-6.85 7.12-7.89-6.43 1.51-9.16 3.39z"/><path class="cls-4" d="M310.86 113.67c1.73 4.11 5.36 8.42 6.17 7.9s.05-6.66-1.68-10.77-6.41-11.65-7.45-11 1.24 9.75 2.96 13.87z"/><path class="cls-5" d="M272.43 231.53s-22.77-9.55-45.54 1.84-30.11 10.5-47.74 7-22.4 3.53-35.62 14-35.25 6.24-48.83-10.43-20.2-9-40.4-1.69c-13.76 5-23.47-9.59-31.84-28.36 16.77 76.49 81.36 122.48 168.92 122.92 40.7.21 77.61-8.65 107.61-25.28z"/><path class="cls-2" d="M310.35 304.57l-7.58-22.81s-22.77-9.54-45.53 1.84-30.11 10.51-47.74 7-22.4 3.53-35.62 13.95-35.25 6.24-48.84-10.42-20.2-9-40.39-1.7c-13.77 5-28.29-14.35-25.92-7.75 30.72 33.15 77.05 51.8 132.65 52.08 46.01.24 87.16-11.14 118.97-32.19z"/><path class="cls-6" d="M108 242.24a1.72 1.72 0 0 0-3.12.16c-1.35 3.48-3.39 7.57-4.47 10-2.72 6.23-6.52 5.93-6.81 4.31-.75-4.19 4.35-8.34 6.49-13.39a23.27 23.27 0 0 0 1.46-7 8.05 8.05 0 0 0-2-6 103.41 103.41 0 0 0-10.13-9.57 1.76 1.76 0 0 0-2.88 1.32c-.2 9.15-.08 30.16-8 27.63-3.94-1.26 6.75-24.52-2.3-38.95q-2.73-1.78-5.55-3.46a53.21 53.21 0 0 0-17.63-6.81 2.18 2.18 0 0 0-2.57 2.52c1.51 9.93 4.51 31-3.12 29.68-4.72-.83 6.26-23.54-4.61-31.15-5.1.2-10.59.2-15.38 1.48a2.55 2.55 0 0 0-1.38 3.93c3.71 5.28 10.46 16.38 4.33 18.15-4.55 1.32-7.45-9-9.73-16a3.08 3.08 0 0 0-3.2-2.09c-9.33.67-14.83 4.63-15.55 5.78-2.07 3.36 0 8 .2 13.29v2.64a8.32 8.32 0 0 0 4.52 7.65 13.48 13.48 0 0 0 6.72 1.39c5.62-.45 18.34-1.16 18.62 2.43.23 2.91-2.89 5.3-9.71 5.44-4.34.1-11.88-3.78-17.55-6.38a2.12 2.12 0 0 0-3 2 60.66 60.66 0 0 0 .75 9.06 4.65 4.65 0 0 0 2.11 3.19 11.32 11.32 0 0 0 5.76 1.79c3.91.09 23.87-1.56 25.15-.12 2.36 2.64-9.44 6.4-17.32 5.46a67.49 67.49 0 0 1-11.92-3 2.07 2.07 0 0 0-2.7 1.87c-.3 4.31.51 9.52 6.83 13.94a16.25 16.25 0 0 0 7.63-.16c5.56-1.21 23.68-6.3 25.24-3.91s-9.37 7.34-15.12 7.41c-3 0-9.25.53-14.07 1a1.8 1.8 0 0 0-1.37 2.74 26 26 0 0 0 10.38 8.8c1.41.32 30.65-13.24 32-7.3.86 3.83-10.82 6.24-14.5 6.66-2 .24-8.11 2.47-13.16 4.43a2.18 2.18 0 0 0-.69 3.62 55.85 55.85 0 0 0 8.53 6.87c10.52.31 20.93-13.41 25.12-16.28 4.81-3.31 9-8.34 10.91-5s-7.84 11.93-15.53 15.85A84.5 84.5 0 0 0 44.81 305a2.09 2.09 0 0 0 .58 3.64c8.58 3 16 2.44 19.69 1.55a3.57 3.57 0 0 1 2.66.34c3.4 1.92 11.67 4.65 17.87-8.74 6.37-13.72-3.09-21.15-.6-23.18s12.86 10.82 22.56-4.23c6.8-10.53 6.03-21.57.43-32.14zm-38.28 63.57c.32-4.51 3-15.63 7.37-12.77 6.69 4.35-7.37 12.77-7.37 12.77z"/><path class="cls-3" d="M344.92 249.92c11.47-39.5 29.39-77.3 37.63-74.65 11.82 3.8-23.05 75.19-23.05 75.19z"/><g class="cls-7"><path class="cls-4" d="M349.25 250.2h-1.1c.14-8.6 12.72-32.9 22.83-52.42 5.32-10.28 9.92-19.15 11-22.66l1.05.34c-1.15 3.59-5.77 12.5-11.11 22.82-9.49 18.38-22.53 43.58-22.67 51.92z"/></g><path class="cls-6" d="M329.23 230.1c5.69-28.1 11.95-79.28 31.87-75.1s-8.87 95.19-8.87 95.19-10.91-.33-19.19-.25c-4.16.06-3.81-19.84-3.81-19.84z"/><g class="cls-7"><path class="cls-4" d="M341.87 249.85h-1.1c.22-13 4.24-27.21 8.49-42.29 4.74-16.96 9.74-34.47 10.22-52.76h1.1c-.5 18.43-5.46 36-10.26 53-4.23 15.04-8.23 29.2-8.45 42.05z"/></g><circle class="cls-8" cx="152.98" cy="9.33" r="9.14"/><path class="cls-9" d="M134.37 150.73c-2.42 2.29-7 3.27-7.59 4.66s-1 3.68-2.26 4.46-7.76 4.42-11.16 6.94-7.74 6.86-8.73 7.3-4.38.4-4.93 1 0 2.78 1.19 4.61 6.38 9.56 7.35 9.75.58-1.21 2.53-1.91 14.71-7.73 18.72-10.31 17.1-12.89 17.1-12.89a26.42 26.42 0 0 0-3.73-7.13c-2.31-2.89-8.49-6.48-8.49-6.48z"/><path class="cls-9" d="M104.89 78.13c-16 12.08-25.5 26.16-20.94 32.2 7.73 10.25 25.78 18.46 33.38 25.44 11.47 10.55 35.92 37.54 35.92 37.54 3.67 3.88 12.72 2.32 20.71-3.71s12-14.32 9.26-18.91S164 119.81 157 105.85c-4.61-9.18-7.71-29.68-15.05-39.28-4.56-6.04-21.05-.57-37.06 11.56z"/><path class="cls-10" d="M141.49 185.86c-.5-2.36-3.73-14.71-3.73-14.71l-2.92 1.85a3.67 3.67 0 0 1-4.63-.62l-5.62-6.08-2.26-4.44c-1.11-2.18-3.61-2.26-5.76-1.09-1 .52-1.12 1.7-2.55 2-1.38.07-5.55 2.68-5.56 3.71 0 1.31.61 1.61.53 2.46s-.86 1.66-.87 3.63 1.15 2 1.27 3.6.71 1.78 2.12 4.34 13.93 15.17 13.93 15.17l5.91 12.1 15.65-7.67s-5-11.89-5.51-14.25z"/><path class="cls-11" d="M168.26 125.79c3.35 4.44-1.67 13.88-11.22 21.09s-20 9.45-23.36 5l10.1 10.8c3.15 4.18 12.89 2.14 21.76-4.55s13.49-15.5 10.34-19.67z"/><ellipse class="cls-11" cx="112.46" cy="87.09" rx="33.96" ry="9.97" transform="rotate(-37.04 112.45 87.09)"/><path class="cls-11" d="M118.47 95.05a116.11 116.11 0 0 0 9-7.49l-6.29-7.09c-1-1.34-5.74.52-10.56 4.16s-7.91 7.68-6.9 9l5.09 8a115.59 115.59 0 0 0 9.66-6.58z"/><ellipse class="cls-4" cx="112.44" cy="87.06" rx="10.94" ry="3.04" transform="rotate(-37.04 112.43 87.05)"/><path class="cls-4" d="M89.38 114c-2.14 0-3.75-.57-4.65-1.76l.88-.67c2.91 3.86 17.49-.67 34.57-13.56 7.7-5.81 14.28-12.14 18.52-17.82 4.06-5.43 5.52-9.69 4-11.7l.88-.66c1.86 2.46.44 7.08-4 13-4.31 5.76-11 12.17-18.75 18C108.31 108.36 96.15 114 89.38 114z"/><path class="cls-10" d="M286.75 168.37l-17.26-43-25.52 20.85 11.48 35.88 31.3-13.73z"/><path class="cls-12" d="M249.16 149.8c-8.33 4.44-17.76-1.66-19.46-6.16-5-13.28 3.84-61.77 10.2-62.61s31.27 12.67 32.54 26.61-16.95 38.78-23.28 42.16z"/><path class="cls-3" d="M276.39 142.58c1.18-17.21 11.33-32.3 12.52-38.74 2.11-11.41-8.5-12-10.61-17s.48-7.83-5-12.89c-6.24-5.81-14.62 1.16-18.85-7.29S241.18 53 234.42 53.43 227 66.91 228 73.8c1.42 9.34 8.08 14.46 13.15 17.42s18.69 7.12 17.58 11.77-4.93 6.8-2.82 9.29 8.84.45 9.29 4.28c1.31 11.23-6.08 9.68-6.76 12.64s.87 10.31 4.25 13.17 13.7.21 13.7.21z"/><path class="cls-13" d="M359.94 250.57c-6.25-21.41-14.63-49.47-16.64-52.82-1.21-2-3.1-5-5-8a28.6 28.6 0 0 0-19.3-12.84c-8.87-1.54-20.55-3.29-28.56-3.4-20.56-.28-74.37 26.1-77.58 28.44-8.73 6.35-47.7 35.73-47.7 35.73l-22.54-49.52s-5 3.34-9.82 6.19c-2.65 1.56-9.82 4.49-9.82 4.49s14.47 50.62 20.83 61.42 11.43 14.52 19.47 13.77c8.81-.83 50.73-14.5 55.14-12.9s5.85 1.61 9.17 11.9 9.55 38.92 12.86 47.73a110.52 110.52 0 0 0 4.92 10.51c51.63-11.27 92.72-39.36 114.57-80.7z"/><path class="cls-14" d="M247.52 186.73v-14a7.45 7.45 0 0 1 2-5.28c2.42-2.51 7.66-5.92 19-8.8 16.23-4.13 23.32 3.3 23.32 3.3l9.23 12.34s-15.62-1.28-29.21 2.81a154.28 154.28 0 0 0-24.34 9.63zm55.75 104.76c-3.67-6.5-19.83-.84-31.95-9s-4.77-21.25-16.52-29.33c-10.05-6.91-23.85-3.07-38.21 7.82a5.5 5.5 0 0 1 1.86.11c4.4 1.61 5.85 1.61 9.17 11.9s9.55 38.92 12.86 47.73a110.52 110.52 0 0 0 4.92 10.51c23.87-5.2 45.5-14 64-26.08-2.4-5.84-4.77-11.26-6.13-13.66z"/><path class="cls-6" transform="rotate(-17.92 111.597 34.073)" d="M110.51 11.32h2.2v45.51h-2.2z"/><path class="cls-6" transform="rotate(-36.06 82.126 43.415)" d="M81.02 21.57h2.2v43.7h-2.2z"/><path class="cls-6" transform="rotate(-65.27 62.953 73.773)" d="M61.85 51.36h2.2v44.82h-2.2z"/><path class="cls-14" d="M228.76 242.21l-1.07-.25c1-4.33 4.36-37.5-11.23-41.54l.27-1.07c16.68 4.32 13.12 38.19 12.03 42.86zm-102.27-33.27l-.08-1.1c7.94-.61 19.69-11.33 19.81-11.44l.74.82c-.49.45-12.15 11.08-20.47 11.72z"/><path class="cls-15" d="M107.6 241.75c.06 5.62-1.12 11.08-1.66 15.23-2.42 18.31-25.58 20.61-40.4 13.56-16.54-7.86-19.36-20.81-23.13-30.48-3.64-9.32-26.44-7.7-40.78-26.87-1.63 3.32.21 7.81.43 12.81v2.64a8.32 8.32 0 0 0 4.52 7.65 13.48 13.48 0 0 0 6.72 1.39c5.62-.45 18.34-1.16 18.62 2.43.23 2.91-2.89 5.3-9.71 5.44-4.34.1-11.88-3.78-17.55-6.38a2.12 2.12 0 0 0-3 2 60.66 60.66 0 0 0 .75 9.06 4.65 4.65 0 0 0 2.11 3.19 11.35 11.35 0 0 0 5.76 1.79c3.91.09 23.87-1.56 25.15-.12 2.36 2.64-9.44 6.4-17.32 5.46a67.49 67.49 0 0 1-11.92-3 2.07 2.07 0 0 0-2.7 1.87c-.3 4.31.51 9.52 6.83 13.94a16.25 16.25 0 0 0 7.63-.16c5.56-1.21 23.68-6.3 25.24-3.91s-9.37 7.34-15.12 7.41c-3 0-9.25.53-14.07 1a1.8 1.8 0 0 0-1.37 2.74A26 26 0 0 0 23 289.31c1.41.32 30.65-13.24 32-7.3.86 3.83-10.82 6.24-14.5 6.66-2 .24-8.11 2.47-13.16 4.43a2.18 2.18 0 0 0-.69 3.62 55.85 55.85 0 0 0 8.53 6.87c10.52.31 20.93-13.41 25.12-16.28 4.81-3.31 9-8.34 10.91-5s-7.84 11.93-15.53 15.85A84.5 84.5 0 0 0 44.81 305a2.09 2.09 0 0 0 .58 3.64c8.58 3 16 2.44 19.69 1.55a3.57 3.57 0 0 1 2.66.34c3.4 1.92 11.67 4.65 17.87-8.73 6.37-13.73-3.09-21.16-.6-23.19s12.86 10.82 22.56-4.23c6.8-10.55 6-21.59.43-32.16a1.49 1.49 0 0 0-.4-.47zm-37.88 64.06c.32-4.51 3-15.63 7.37-12.77 6.69 4.35-7.37 12.77-7.37 12.77z"/><path class="cls-16" d="M121.17 282.84c4.52-8.92 11.78-19.26 15.35-18.54 7.32 1.47 3.76 66.46 3.76 66.46l-4.71-1.23s3.62-60.46-.26-61.93c-2.56-1-11 17.45-11 17.45z"/><path class="cls-6" d="M154.16 282.55c-7.46-8.53-19.36-4.93-22.85-2.27s-6.85 5.09-9.18 2.26c-1.68-2.05 2.22-6 2.14-10.44-.11-5.63-4.55-11.74-13.67-10-9.37 1.75-16.64 5.8-22 11.27 4.23 1.31 8.64 4.45 6.9 6.81-2.45 3.33-7-.22-12-.27a44.42 44.42 0 0 0-5.66 14.29c2.88-1.1 7-3.59 8.59.83 1.78 4.92-7.17 6.87-9.64 7.27A59.85 59.85 0 0 0 84 333.93a5.59 5.59 0 0 0 7.46 2.19 24.23 24.23 0 0 1 5.31-1.81 4.82 4.82 0 0 0 3.48-6.28c-2.37-6.8-3-14.32.92-15.52 4.38-1.34 6 14.33 6.38 20.07 1.91-.24 2.58.26 6.08.06 2.57-.14 3.78-1.35 5.79-1.68-1.09-6.08-7-18.88-2.4-20.77s7.48 14 8.4 19.62c2.15-.48 4.2-1.89 6.31-2.56 2.36-.75 4.77-.81 7-1.88.17-4.52.39-8.09-2.52-13.07-3-5.2-6.46-8-4.41-10.23s7.55 2.54 10.63 9.28c1.46 3.18 2 7.2 2.79 10.13.33-.24.66-.47 1-.72 10.58-8.4 17.1-27.76 7.94-38.21zm-53.37 13c-.84 1.93-7.32 1.15-9-.66-1.38-1.51.07-3.41 3.38-3.6 3.83-.18 6.46 2.36 5.62 4.29z"/><path class="cls-17" d="M107.57 296.7c5.8-3.49 10.91-9 14.78-13.93l-.22-.23c-1.68-2.05 2.22-6 2.14-10.44-.11-5.63-4.55-11.74-13.67-10-9.37 1.75-16.64 5.8-22 11.27 4.23 1.31 8.64 4.45 6.9 6.81-2.45 3.33-7-.22-12-.27a44.42 44.42 0 0 0-5.66 14.29c2.88-1.1 7-3.59 8.59.83 1.78 4.92-7.17 6.87-9.64 7.27A59.85 59.85 0 0 0 84 333.93a5.85 5.85 0 0 0 .66.94c2.67-15.46 13.39-32.44 22.91-38.17zm-6.78-1.12c-.84 1.93-7.32 1.15-9-.66-1.38-1.51.07-3.41 3.38-3.6 3.83-.21 6.46 2.33 5.62 4.26z"/><circle class="cls-9" cx="208.86" cy="291.55" r="6.69"/></g></g></svg>