<svg xmlns="http://www.w3.org/2000/svg" viewBox="0 0 378.52 318.79"><defs><style>.cls-1{isolation:isolate}.cls-2{fill:#80ccff}.cls-3{fill:#dff0ff}.cls-4{fill:#fff}.cls-5{fill:#213a6d}.cls-6{fill:#e7e586}.cls-7{fill:#2468ff}.cls-8{fill:#4073bf}.cls-9{fill:#2e9dff}.cls-10{fill:#e68a78}.cls-11{opacity:.44;mix-blend-mode:overlay}.cls-12{fill:#edb9ae}.cls-13{fill:#f1cabf}.cls-14{fill:#3868ac}.cls-15{fill:#93d4f0}</style></defs><title>organizer_step_1</title><g class="cls-1"><g id="Layer_3" data-name="Layer 3"><path class="cls-2" d="M118.59 45.91C166.33 10.09 258 3.42 310.33 25.54c84.84 35.82 92 193.84-28.1 259.16-112.19 61-205.78 27-232.94-10-25.12-34.32-51.62-138.06 69.3-228.79z"/><path class="cls-3" d="M97.79 287.7a.79.79 0 0 1-.39-.11 1.3 1.3 0 0 1-.49-1.56c5.1-14.14 10.64-66.08 8.25-77.18l-.32-1.47c-2.93-13.45-9.77-44.94-4.94-65.32 2.18-9.23-.31-18.43-2.94-28.17-3.26-12-6.63-24.47-2.47-39.22a.92.92 0 0 1 1.22-.73 1.26 1.26 0 0 1 .59 1.5c-4 14-.68 26 2.47 37.7 2.74 10.1 5.32 19.64 3 29.58-4.68 19.75 2.06 50.79 5 64.05l.32 1.47c2.52 11.69-3 63.94-8.35 78.75a1 1 0 0 1-.95.71z"/><path class="cls-3" d="M96.78 73.57c-.4 4.39-2.44 9.75-3.31 9.63S91.59 77.29 92 72.9s2.49-13.05 3.6-12.9 1.58 9.19 1.18 13.57zm11.11 53.69c-1.75 4.46-5.54 9.21-6.41 8.68s-.21-7.13 1.54-11.59 6.59-12.69 7.72-12-1.1 10.45-2.85 14.91z"/><path class="cls-3" d="M95.81 122.33c3.36 2.72 6.68 8 6.15 9s-5.76-.67-9.12-3.38-9.34-9.7-8.65-11 8.26 2.66 11.62 5.38zm-3.52 96.31c4.63 5.75 12.53 10.61 13.67 9.22s-2.76-11.17-7.39-16.92-15.65-15.3-17.11-13.51c-1.32 1.57 6.2 15.46 10.83 21.21zm.71-28.48c3.7 4.21 9.88 7.6 10.71 6.49s-2.41-8.44-6.12-12.65-12.41-11.07-13.47-9.63c-.96 1.29 5.18 11.63 8.88 15.79zm-1.27-32.01c2.13 4.57 6.43 9.26 7.33 8.62s-.21-7.59-2.33-12.16-7.76-12.86-8.92-12 1.79 10.96 3.92 15.54z"/><path class="cls-3" d="M106.79 182.08c-2.83 4.51-4.86 11.74-4 12.59s6.06-3.38 8.89-7.88 7.22-14.86 6.07-15.95-8.13 6.74-10.96 11.24zm-4.2-24.49c-2.55 4.06-4.37 10.57-3.57 11.33s5.45-3 8-7.1 6.5-13.37 5.47-14.35-7.36 6.06-9.9 10.12zm-11.8-59.71c2.57 1.79 5.23 5.44 4.88 6.22s-4.26-.14-6.84-1.93-7.26-6.55-6.83-7.55 6.21 1.47 8.79 3.26z"/><path class="cls-3" d="M101.69 99.14c-1.65 3.94-5.13 8.06-5.9 7.57s0-6.38 1.61-10.31 6.13-11.14 7.12-10.5-1.18 9.31-2.83 13.24zM61.62 272.28c-1-12.25-1.3-23-.35-27.34l.32-1.47c2.92-13.45 9.76-44.94 4.93-65.32-2.18-9.23.31-18.43 3-28.17 3.25-12 6.62-24.47 2.46-39.22a.91.91 0 0 0-1.21-.73 1.25 1.25 0 0 0-.59 1.5c3.94 14 .68 26-2.48 37.7-2.73 10.1-5.32 19.64-3 29.58 4.68 19.75-2.07 50.79-4.95 64.05l-.32 1.47c-1 4.43-.76 14.67.15 26.5a20.55 20.55 0 0 0 2.04 1.45z"/><path class="cls-3" d="M69.64 109.66c.4 4.39 2.45 9.75 3.31 9.63s1.88-5.91 1.48-10.3-2.5-13-3.61-12.89-1.58 9.18-1.18 13.56zm-11.11 53.69c1.75 4.46 5.54 9.21 6.41 8.68s.21-7.13-1.54-11.59-6.59-12.69-7.72-12 1.1 10.45 2.85 14.91z"/><path class="cls-3" d="M70.62 158.42c-3.36 2.72-6.69 8-6.15 9s5.75-.67 9.11-3.38 9.35-9.7 8.66-11-8.24 2.66-11.62 5.38zm3.51 96.31c-4.63 5.75-12.53 10.61-13.66 9.27s2.75-11.17 7.38-16.92S83.51 231.73 85 233.52c1.28 1.61-6.24 15.48-10.87 21.21zm-.71-28.48c-3.71 4.21-9.89 7.6-10.72 6.49s2.41-8.44 6.12-12.65S81.23 209 82.3 210.46s-5.18 11.54-8.88 15.79zm1.27-32.01c-2.13 4.57-6.43 9.26-7.33 8.62s.21-7.59 2.34-12.16 7.75-12.86 8.91-12-1.79 10.96-3.92 15.54z"/><path class="cls-3" d="M59.63 218.17c2.83 4.51 4.86 11.75 4 12.59s-6.06-3.38-8.88-7.88-7.25-14.88-6.11-15.95 8.17 6.74 10.99 11.24zm4.2-24.49c2.55 4.06 4.37 10.57 3.58 11.33s-5.46-3-8-7.09-6.5-13.38-5.47-14.36 7.35 6.06 9.89 10.12zM75.64 134c-2.58 1.79-5.24 5.44-4.89 6.22s4.26-.14 6.84-1.93 7.26-6.55 6.81-7.55-6.18 1.44-8.76 3.26z"/><path class="cls-3" d="M64.73 135.23c1.65 3.94 5.13 8.06 5.9 7.57s.05-6.38-1.6-10.31S62.9 121.36 61.9 122s1.18 9.3 2.83 13.23z"/><path class="cls-4" d="M295.88 144.23l-119-2.4a2.68 2.68 0 0 1-2.49-3.51l21.09-63.84a5.71 5.71 0 0 1 5.52-3.91L320 73a2.66 2.66 0 0 1 2.48 3.51l-21.09 63.83a5.7 5.7 0 0 1-5.51 3.89z"/><path class="cls-5" d="M248.44 279.93c-4.67-39.1 19.6-80.76 26.81-84 9.22-4.1 7.58 32.52 15.45 28.69s-8.61-55.38 6-64.15c10.95-6.59 11 35.24 17.61 32.5 11.1-4.63-4.39-56 10.82-60.31 10.53-2.95 5.78 20.93 9 21.41 4.5.68 27.71-50.63 42.5-37.63 10.15 8.92-24.47 43.73-23.59 48.22s20.43-11.21 21.73-2.81c2.77 17.89-47.48 34.08-42.38 40.28 2.89 3.52 25.42-5.72 27.36 1.52 4.55 17-34.06 19.92-45.74 29.41-6.45 5.24 13 4.31 11.77 12.72-2.11 14.42-39.29 32.07-45.88 34.27s-31.46-.12-31.46-.12z"/><path class="cls-6" d="M261.2 295.14c-2.2-2.68 1.17-4.59 2.85-7.62 14.85-26.7 31.48-40.3 51.43-49.13 21.33-9.43 32.34 2.93 28.86 11.65-6.18 15.5-21.49 6.83-46.15 25-12.27 9.04-36.99 20.1-36.99 20.1z"/><path class="cls-7" d="M289.66 240.79l-.8-.68c13.66-16 27.9-38.87 41.66-61 16.71-26.89 32.5-52.29 45.78-63l.66.82c-13.14 10.6-28.88 35.93-45.54 62.75-13.79 22.15-28.05 45.09-41.76 61.11z"/><path class="cls-4" d="M266.28 291.45l-.92-.51c17.08-31.17 60.05-52.69 79.66-46l-.34 1c-19.25-6.57-61.53 14.73-78.4 45.51z"/><path class="cls-3" d="M285.22 258.17l77.14-246.36a7.2 7.2 0 0 0-6.74-9.34L208.26 0a10.49 10.49 0 0 0-10.18 7.3l-77.89 245.22a7.2 7.2 0 0 0 6.68 9.37l148.07 3.65a10.5 10.5 0 0 0 10.28-7.37z"/><path class="cls-3" d="M277.21 269h-.27l-148.07-3.64v-1.06L277 267.92h.24a10 10 0 0 0 9.52-7l77.11-246.36a6.66 6.66 0 0 0-6.25-8.65v-1a7.73 7.73 0 0 1 7.25 10l-77.14 246.33a11.06 11.06 0 0 1-10.52 7.76z"/><path class="cls-8" d="M355.62 2.47L208.26 0a10.49 10.49 0 0 0-10.18 7.3l-3.42 10.8 165.18 1.8 2.52-8.09a7.2 7.2 0 0 0-6.74-9.34z"/><path class="cls-9" d="M283.31 43.55l-78.16-1.36a2.92 2.92 0 0 1-2.73-3.84l.7-2.16a2.55 2.55 0 0 1 2.46-1.75l78.16 1.35a2.92 2.92 0 0 1 2.73 3.84l-.7 2.16a2.57 2.57 0 0 1-2.46 1.76zM236.74 56.6l-36.15-.6a2.94 2.94 0 0 1-2.74-3.85l.71-2.16a2.53 2.53 0 0 1 2.44-1.77l36.15.63a2.93 2.93 0 0 1 2.74 3.84l-.71 2.16a2.53 2.53 0 0 1-2.44 1.75zm92.34-13.41l-27.22-.3a2.93 2.93 0 0 1-2.75-3.84l.7-2.15a2.54 2.54 0 0 1 2.44-1.75l27.22.3a2.94 2.94 0 0 1 2.76 3.85l-.7 2.14a2.54 2.54 0 0 1-2.45 1.75zm-80.26 119.86l-78.16-1.36a2.93 2.93 0 0 1-2.74-3.84l.71-2.17a2.52 2.52 0 0 1 2.45-1.74l78.16 1.35a2.93 2.93 0 0 1 2.74 3.84l-.71 2.17a2.54 2.54 0 0 1-2.45 1.75zm39.93 15.34l-122.68-2.89a2.93 2.93 0 0 1-2.72-3.84l.71-2.19a2.54 2.54 0 0 1 2.46-1.74l122.68 2.89a2.93 2.93 0 0 1 2.73 3.84l-.72 2.18a2.53 2.53 0 0 1-2.46 1.75z"/><path class="cls-2" d="M295.88 144.23l-119-2.4a2.68 2.68 0 0 1-2.49-3.51l21.09-63.84a5.71 5.71 0 0 1 5.52-3.91L320 73a2.66 2.66 0 0 1 2.48 3.51l-21.09 63.83a5.7 5.7 0 0 1-5.51 3.89z"/><path class="cls-10" d="M272.05 222.47l-58.4-1.66a4.56 4.56 0 0 1-4.23-5.89l2.74-9a6.25 6.25 0 0 1 6.16-4.42l58 1.76a4.55 4.55 0 0 1 4.26 5.74l-2.36 8.83a6.25 6.25 0 0 1-6.17 4.64z"/><ellipse class="cls-4" cx="212.06" cy="9.94" rx="2.28" ry="2.5"/><ellipse class="cls-4" cx="222.59" cy="9.94" rx="2.28" ry="2.5"/><ellipse class="cls-4" cx="233.13" cy="9.94" rx="2.28" ry="2.5"/><path class="cls-9" d="M274 289c-3.33-5.66-7.72-10.64-10.74-14.85-18.26-25.41-63.26-19.72-73.73-28.33s1.4-20-9.4-32.41c-7.83-9-18.62-2.06-29.16-10.49s-10.63-34.66-23.97-44.43c-19.41-14.26-44.56 7.25-60.71 9-11.47 1.27-19.92-18.85-21.87-36.46C13.88 194 31.91 250.94 49.29 274.66 75.78 310.83 165.49 344 274 289z"/><path class="cls-2" d="M258.18 296.59c-18-26.73-45.94-28.26-64.45-29.28-9-.49-16.13-.88-19.51-3.85-8.16-7.16-5.06-17.67-2.32-26.94 2-7 4-13.5.72-17.32-3.73-4.36-9.08-3.79-14.75-3.19-5.89.62-12 1.27-17.37-3-5-4-7.7-11.9-10.51-20.22-3.18-9.39-6.46-19.09-13.41-24.2-12.32-9.06-26.7-.89-39.39 6.32-7 4-13.69 7.77-19.47 8.42-5.4.6-9.88-4.09-13.39-13.92-3.17-8.87-4.87-20-5.74-27.85l1-.12c.86 7.76 2.54 18.84 5.68 27.62 3.32 9.31 7.46 13.76 12.29 13.22 5.55-.62 12.11-4.34 19.06-8.29 13-7.36 27.66-15.71 40.54-6.25 7.22 5.31 10.55 15.17 13.77 24.71 2.77 8.18 5.38 15.9 10.18 19.74 5.05 4 10.92 3.41 16.6 2.81 6-.63 11.57-1.23 15.66 3.55 3.64 4.26 1.63 11.08-.51 18.3-2.78 9.41-5.65 19.14 2 25.86 3.11 2.73 10.07 3.11 18.88 3.59 18.72 1 47 2.57 65.27 29.75z"/><path class="cls-10" d="M39.19 202.17a63.36 63.36 0 0 0-12.89-9.35l-.09 3.77s-5.65-5.48-7.44-7c-8.45-2.65-15.16-1.34-17.59 3.17-2.62 4.86 1.06 9.08 7 13.3l10.17-.4-3.48 4.7c6.17 3.76 13 7.68 17.93 12.2 7.16 6.62 22.71 24 22.71 24s.91-28.48-16.32-44.39z"/><path class="cls-5" d="M64.08 196.05c-2.44-15.12-8.3-28.29-15.49-37.1l-3.83 4.64-.28-9.06c-7.43-6.93-15.77-9.27-23.07-4.73-15.81 9.83 2.68 36 15.06 52.55 12.77 17.05 13.11 41.7 13.11 41.7l3.62 3.17s16.15-18.49 10.88-51.17z"/><g class="cls-11"><path class="cls-5" d="M55 246.7c-7.37-34.84-35.94-52.2-53.88-53.4l.07-1.06c21.63 1.45 48.05 22.13 54.84 54.24z"/></g><path class="cls-2" d="M52.1 246l-1-.31c.08-.25 7.56-24.79 3.71-47S40.27 165.24 23.1 149.1l.72-.77c17.33 16.3 28.13 27.8 32 50.18S52.18 245.72 52.1 246z"/><path class="cls-12" d="M232.47 270.56l7.79-10.25s14.07-9.51 15.88-11.65 2.39-2.23 2.79-3.68 1.52-1.3 1.87-3.15-1.1-2.94-1-3.75 1.94-1.87 2.17-3.1-2.49-3.65-2-4.71 3-10.19 3.23-11.42-1.94-1.83-2.51-.86c-.4-2.24-2-2.22-2.7-1.53s-3.63 6.39-5.06 8.28-6.38 8.16-6.38 8.16l-8 5.47 1-3.09a55 55 0 0 0 3.46-6c1.65-3.32 1.28-6.77.3-7.33s-1.89 1.08-2.45 2.67c-1.29 3.68-9 12.58-9 12.58s-3.8 8.8-4.71 10.92-7.8 12.35-7.8 12.35zm-127.19-77.8l12.61-27.46 19.67 17.56-10.54 30.55-21.74-20.65z"/><path class="cls-13" d="M133.34 185c6.93 3.69 16-.84 17.63-4.48 3.09-6.76-3.19-51.36-8.48-52.06s-26 10.54-27.06 22.12 12.64 31.58 17.91 34.42z"/><path class="cls-5" d="M111.4 179.43c-2.29-9.56-8.67-26.68-9.66-32-1.76-9.48 6.32-10.56 8.07-14.75s.35-5.88 4.88-10.09c5.19-4.83 12.15 1 15.67-6.06s10.36-14.4 16-14 6.88 14.25 6 20c-1.18 7.77-6.72 12-10.93 14.48s-15.54 5.93-14.62 9.79 4.1 5.66 2.34 7.72-7.72.36-7.72 3.56c0 6.32 4.93 7.82 5.5 10.27s-.6 8.82-3.41 11.19-12.12-.11-12.12-.11z"/><path class="cls-14" d="M29.22 220.25a141.32 141.32 0 0 0 5 23.05h.07l33.5-41.72s-25.6 10.84-38.57 18.67z"/><path class="cls-8" d="M165.47 304.38c-2.21 2-3.57-1.28-4-4.25-1.08-7.59-1.1-48.44-6.85-61.43-3.64-8.23-22.69-21.42-22.69-21.42s-.09-8.44-9.22-16.17a75.09 75.09 0 0 0-20.35-11.75l-7.66 11.06s-9.13-4.21-17.56-3.51-21.77 14.75-42.84 46.35v.27c4.06 13.07 9.55 23.72 15 31.13 20.7 28.23 79.84 54.64 156.41 38.74 11.18-13.2 32.28-42 32.28-42l-17.56-15.81s-38.17 33.48-54.96 48.79z"/><path class="cls-14" d="M121.42 270.56c1.42-11.33 4.9-11.14 0-10.79S106.3 271 97.87 267.84s-12.64-1-23.17 2.72-10.89-.26-19.17-7.28c-6-5.11-10.24-8.36-16.41-6.77a94.64 94.64 0 0 0 10.17 18.15c12.81 17.49 40.4 34.28 77.71 40.74-6.26-13.53-7-33.51-5.58-44.84z"/><path class="cls-15" d="M230.56 281.47c-.12-.08-12.15-7.72-20.08-17.17l.8-.68c7.83 9.33 19.72 16.88 19.84 17zm-101.7-65.13c-8.59-13.19-19.31-17.36-27.92-20.7l-2.18-.86.39-1 2.17.85c8.29 3.23 19.64 7.64 28.42 21.11zm-10.37 56.22l-1-.14c3.37-25.17 17.68-37.69 26.47-40l.26 1c-8.55 2.25-22.42 14.49-25.73 39.14z"/><circle class="cls-6" cx="114.18" cy="68.21" r="5.67"/></g></g></svg>