<svg xmlns="http://www.w3.org/2000/svg" viewBox="0 0 353.24 292.92"><defs><style>.cls-1{fill:none}.cls-2{isolation:isolate}.cls-3{fill:#dff0ff}.cls-4{fill:#80ccff}.cls-18,.cls-5{fill:#213a6d}.cls-6{opacity:.38}.cls-18,.cls-6,.cls-8{mix-blend-mode:overlay}.cls-7{fill:#fff}.cls-8{fill:#11175b;opacity:.25}.cls-9{fill:#2e9dff}.cls-10{opacity:.19}.cls-11{clip-path:url(#clip-path)}.cls-12{fill:#edb9ae}.cls-13{fill:#e88f80}.cls-14{fill:#1d425b}.cls-15{fill:#e18374}.cls-16{fill:#f1cabf}.cls-17{fill:#4073bf}.cls-18{opacity:.44}.cls-19{fill:#e7e586}.cls-20{fill:#005fe1}.cls-21{opacity:.76}</style><clipPath id="clip-path"><path class="cls-1" d="M42.52 169.8l18.34-41.37a27.22 27.22 0 0 1 26.68-16.14l26.83 1.71 22.79 12.48c9.09 5 14.14 17.74 12.85 28l-3.67 62.71-3 23.79s-42.5-9.5-59.5-15a35.38 35.38 0 0 1-8.84-4.7c-9.83-6.88-21.15-18.89-28.88-27.72a22.33 22.33 0 0 1-3.6-23.76z"/></clipPath></defs><title>organizer_step_4</title><g class="cls-2"><g id="Layer_3" data-name="Layer 3"><path class="cls-3" d="M126.37 282.54c83 26 165 5.5 214.5-80 19.95-34.46 13.7-96.68-21.5-120.5-31.71-21.46-79.18-18.27-101.5-27-23-9-34.78-29.85-64.5-40-41-14-88.5 10-114.5 46-65.87 91.19 11 197.5 87.5 221.5z"/><path class="cls-4" d="M320.25 232.3c-24.76-7.93-56.67-1.62-67.52 1-18.64 4.48-55 26.17-74.46 4.75-14.63-16.12-23.83-52-66.14-62.66-42.59-10.7-36.37-54.63-44.89-71.57-6.6-13.12-8.39-32.13-30.64-39.5-61.74 90.44 14.18 194.53 89.77 218.24 72.34 22.68 143.92 9.98 193.88-50.26z"/><path class="cls-5" d="M49.74 229c-15.66-9.78-33.67-2.15-35.92-11-1.57-6.1 9.72-4.79 9.19-6.48-2.19-7-19.71-6-20.79-12.5-2-11.9 16.73-3.5 17.15-7.5.79-7.41-21.55-16.74-19-28.17s13.44 1.21 18.67-5.92c4.48-6.13-3.31-15.85-5.87-33.57-2.08-14.37.81-30 10.14-32 8.57-1.81 5.8 36.21 12.3 36.28 2 0 5.35-15.68 11.52-14.45 13.31 2.65-9.1 32.34 3.86 40.73 3 2 14.21-7.9 21-5.06s6.87 19.52 5.47 28S68.09 219 68.09 219z"/><g class="cls-6"><path class="cls-7" d="M60.34 223.3C33.15 186.22 17.11 114.19 22.83 91.77l1 .24c-5.68 22.26 10.3 93.81 37.35 130.7z"/></g><path class="cls-8" d="M72 149.39c-6.81-2.84-18 7-21 5.06-13-8.39 9.45-38.08-3.86-40.73-6.17-1.23-9.49 14.47-11.52 14.45a1.29 1.29 0 0 1-.38-.08c-1.87 7.11-3.34 13.84-3.49 18-.46 12.35 10.2 20.66 13.1 30.36s-3.85 9.76-6.7 22.65c-1.91 8.58 1.15 15.14 1 26a28.05 28.05 0 0 1 10.59 3.9l18.35-10s8-33.08 9.39-41.59 1.35-25.18-5.48-28.02z"/><circle class="cls-9" cx="322.98" cy="160.41" r="4.74"/><path class="cls-7" d="M42.52 169.8l18.34-41.37a27.22 27.22 0 0 1 26.68-16.14l26.83 1.71 22.79 12.48c9.09 5 14.14 17.74 12.85 28l-3.67 62.71-3 23.79s-42.5-9.5-59.5-15a35.38 35.38 0 0 1-8.84-4.7c-9.83-6.88-21.15-18.89-28.88-27.72a22.33 22.33 0 0 1-3.6-23.76z"/><g class="cls-10"><g class="cls-11"><path class="cls-9" d="M98.36 159.87a5 5 0 1 1 5-5 5 5 0 0 1-5 5zm0-9a4 4 0 1 0 4 4 4 4 0 0 0-4-3.95zm16.51 16.29a5 5 0 1 1 5-5 5 5 0 0 1-5 5zm0-8.95a4 4 0 1 0 4 4 4 4 0 0 0-4-4zm10.55-6.54a5 5 0 1 1 5-5 5 5 0 0 1-5 5zm0-9a4 4 0 1 0 4 4 4 4 0 0 0-4-3.96zm8.06-10.47a5 5 0 1 1 5-5 5 5 0 0 1-5 5zm0-8.95a4 4 0 1 0 4 4 4 4 0 0 0-4-4zm13.79 23.94a5 5 0 1 1 5-5 5 5 0 0 1-5 5zm0-8.95a4 4 0 1 0 4 4 4 4 0 0 0-4-4zm-62.59 38.53a5 5 0 1 1 5-5 5 5 0 0 1-5 5zm0-9a4 4 0 1 0 4 4 4 4 0 0 0-4-3.95zm24.47-25.06a5 5 0 1 1 5-5 5 5 0 0 1-5 5zm0-9a4 4 0 1 0 4 4 4 4 0 0 0-4-3.95zm29.64 30.64a5 5 0 1 1 5-5 5 5 0 0 1-5 5zm0-9a4 4 0 1 0 4 4 4 4 0 0 0-4-3.96zm-12.93 28.33a5 5 0 1 1 5-5 5 5 0 0 1-5 5zm0-9a4 4 0 1 0 4 4 4 4 0 0 0-4-3.96zm18.48 8.59a5 5 0 1 1 5-5 5 5 0 0 1-5 5zm0-9a4 4 0 1 0 4 4 4 4 0 0 0-4-3.95zm-41.92 9.41a5 5 0 1 1 5-5 5 5 0 0 1-5 5zm0-9a4 4 0 1 0 4 4 4 4 0 0 0-4-3.96zm11.21 23.6a5 5 0 1 1 5-5 5 5 0 0 1-5 5zm0-8.95a4 4 0 1 0 4 4 4 4 0 0 0-4-4zm28.81 20.59a5 5 0 1 1 5-5 5 5 0 0 1-5 5zm0-8.95a4 4 0 1 0 4 4 4 4 0 0 0-4-3.97zm-26.08 19.42a5 5 0 1 1 5-5 5 5 0 0 1-5 5zm0-8.95a4 4 0 1 0 4 4 4 4 0 0 0-4-4zM89.07 196a5 5 0 1 1 5-5 5 5 0 0 1-5 5zm0-8.95a4 4 0 1 0 4 4 4 4 0 0 0-4-3.96zm-17.72 6.65a5 5 0 1 1 5-5 5 5 0 0 1-5 5zm0-8.95a4 4 0 1 0 4 4 4 4 0 0 0-4-4zM56.67 203a5 5 0 1 1 5-5 5 5 0 0 1-5 5zm0-9a4 4 0 1 0 4 4 4 4 0 0 0-4-4zm23.53 18.43a5 5 0 1 1 5-5 5 5 0 0 1-5 5zm0-9a4 4 0 1 0 4 4 4 4 0 0 0-4-3.95zM51 184.1a5 5 0 1 1 5-5 5 5 0 0 1-5 5zm0-8.95a4 4 0 1 0 4 4 4 4 0 0 0-4-4zm38.07-35.4a5 5 0 1 1 5-5 5 5 0 0 1-5 5zm0-8.95a4 4 0 1 0 4 4 4 4 0 0 0-4-4zm-20.37 8.95a5 5 0 1 1 5-5 5 5 0 0 1-5 5zm0-8.95a4 4 0 1 0 4 4 4 4 0 0 0-4-4zm-9.84 26.34a5 5 0 1 1 5-5 5 5 0 0 1-5 5zm0-9a4 4 0 1 0 4 4 4 4 0 0 0-4-3.96zm43.56-22.38a5 5 0 1 1 5-5 5 5 0 0 1-5 5zm0-9a4 4 0 1 0 4 4 4 4 0 0 0-4-3.95zm-23.78 36.97a5 5 0 1 1 5-5 5 5 0 0 1-5 5zm0-8.95a4 4 0 1 0 4 4 4 4 0 0 0-4-4zm-35.1 24.39a5 5 0 1 1 5-5 5 5 0 0 1-5 5zm0-8.95a4 4 0 1 0 4 4 4 4 0 0 0-4-4zM80.2 122.1a5 5 0 1 1 5-5 5 5 0 0 1-5 5zm0-9a4 4 0 1 0 4 4 4 4 0 0 0-4-3.96zm-13.32 60.2a5 5 0 1 1 5-5 5 5 0 0 1-5 5zm0-9a4 4 0 1 0 4 4 4 4 0 0 0-4-3.95z"/></g></g><path class="cls-5" d="M77.25 214c7 3.67 39.12 2.19 49.12.86l10-1.34 12.37 71.16s-25.56-7.49-40.8-15.49-32.42-21.59-32.42-21.59z"/><path class="cls-9" d="M126.37 187.88c-1.7 7-6 23.22-3.09 29 4.26 8.5 8.59 8.45 9.76 16.45.58 4-3.5 15.21-1.67 23.21 3 13.2 15.83 31.74 15.83 31.74l14 2.43s5.15-17.17 4.15-24.83-6.85-16.69-7.33-19.67c-.82-5.21 5.77-15.21 3.1-22.21s-18.71-17.81-22.42-21.16c-5.16-4.67-8-12-8.33-15s-3.52-1.93-4 .04z"/><path class="cls-4" d="M156.41 290.25c-.48-1.06-11.75-26.1-13-33.29-.75-4.31.61-9.34 1.92-14.21a42.86 42.86 0 0 0 1.87-9.44c.17-6.54-3-9.88-10.34-14.88-9.41-6.43-9.31-24.85-8.86-32.43l1 .06c-.46 7.43-.58 25.39 8.41 31.57 7.59 5.21 10.95 8.72 10.77 15.73a44.3 44.3 0 0 1-1.9 9.67c-1.29 4.76-2.62 9.69-1.91 13.78 1.23 7.06 12.82 32.79 12.94 33z"/><path class="cls-12" d="M208.86 212.56c-1.73-8.9-7.87-27.2-8.11-28.2s.35-7.21-2.35-13.65-9.54-17.16-11.35-19.22-3.61-4.46-5-4.05c-.39.11.68 4.25 1.63 6.09 1.73 3.37 4.76 7.21 5.52 9a6.62 6.62 0 0 1 .19 3.85s-4-3.46-6-4.29a13.7 13.7 0 0 1-3.59-2.29s-4.76-8.57-5.54-9.43-3.4-9.69-5-9 1 9.1 1.53 10.8 2.83 7.72 2.83 7.72l1 1.61-1.64-1.71a40.4 40.4 0 0 0-1.79-5.21c-.9-1.89-1.93-4.14-1.93-4.14s-4.1-9.73-5.41-9.08c-2.76 1.38 1.73 9.76 2.09 11.25s4.64 11.83 4.89 12.56-.53 1.07-.53 1.07a22.75 22.75 0 0 0-2.13-4.64 15.53 15.53 0 0 1-1.7-3.25 34.65 34.65 0 0 0-2.73-6.84c-1.64-2.75-3-2.43-3.24-1.72s2.49 8.33 3.09 10.16 2 5.83 2 5.83-3.6-6.1-4.71-4.92 2.84 7.73 3 8.35 3.74 5.67 4.29 6.58 4.36 6.57 5.2 7.68 4.52 5.17 6.39 7.48a30.25 30.25 0 0 0 4.66 4.39l6.64 22.66z"/><path class="cls-5" d="M145.65 58.8c-4.44-7.39-2.32-10.52-10-13.73-9.14-3.82-16.1 1.86-19.27 2.5-5.35 1.07-11.18-6.16-18.37-3.39-9.36 3.61-8.85 16-16.34 16.23-1.54.05-4.9.39-6.83.38-6.08 0-12.67 7.43-10.86 14.94 1.48 6.09 4.82 9 9.5 10.37 9.37 2.68 13.11 4 14.18 6.42s3 7.76 8.33 8.29 15.48-2.4 20 0 9.28 6.51 15 7.76c4.06.9 12.15-.93 14.71-5.35 5.35-9.23-.79-13.92-.26-19.26.34-3.46 4.58-5.18 4.54-13.11.02-3.85-2.72-9.37-4.33-12.05z"/><path class="cls-9" d="M83.73 164.76c-4.48 11.35-8.51 22-2.51 28.33s2 15.4 1.71 22.4-2.64 17.2 4.69 22.86 7.48 6.61 9.9 16.94 2.48 13.23 6.6 15.5 38.43 13.64 38.43 13.64-3.17-26.77-8.67-38c-7.66-15.67-15.53-13-19.33-20.5-2.3-4.54-.83-18.84-6.33-29.17-3.1-5.83-17-12.33-19.67-18.24-1.6-3.55-1.33-12.43-2.33-13.76s-1.58-2.31-2.49 0z"/><path class="cls-13" d="M327.12 177c-8.13-3.5-50.25-.41-50.25-.41s-40.75 8.41-46.25 18.91c-7.5 14.32-9.5 64.25-9.5 64.25l-3.9 31.49c48.82-7.07 92.62-35.14 123.65-88.74a71.58 71.58 0 0 0 4.32-8.93c-4.19-5.99-10.5-13.27-18.07-16.57z"/><path class="cls-14" d="M253.11 105.64c-4.24 3-5.62 9.9-3.62 14a21.31 21.31 0 0 0 4.81 6.48s1.47-5.85 1.87-9.22.7-8.26.7-8.26z"/><path class="cls-15" d="M244.56 284.9c-7.71-16.81-36.94-85.9-36.94-85.9l-23 8.75 21.48 84.73a165.75 165.75 0 0 0 38.46-7.58z"/><path class="cls-9" d="M165.5 286.54c4.54-10.66 6.87-18.33 11.54-20s4.33 4.34 2.33 8S169 288.21 169 288.21z"/><path class="cls-16" d="M292.11 175.78l-6.43.31c-2.33-7-4.57-17.23-3-27.36 4.14.64 5-3.86 6-7.87.73-2.91.09-4.68-1.84-6 1.11-1.86 1.71-4.54.41-8.25-3.07-8.72-30.4-17.2-30.4-17.2-.65 16.68-6.62 25.65-6 34.14a17.44 17.44 0 0 0 7.25 12.71l-.35 23.49a5.65 5.65 0 0 0-.07 1.76l-5 1.59c1.14 4.39 10.64 12.14 19.64 11.14s17.5-7.78 18.75-11.14a20.58 20.58 0 0 0 1.04-7.32z"/><path class="cls-14" d="M304 121.54c.9-4.79-1.37-8.05-4-9.44a4 4 0 0 1-1.77-5c1.27-3.21 1.83-7.12-.23-10.29-4.46-6.89-11.38-5.25-17.21-2.52-1.82-3.39-3.25-10.5-12.87-10.5-10.75 0-15.13 9.79-15.38 13.63-.5 7.75 1.35 15.45 10.15 18.39s21.93 2.9 22.37 9.16-9.59 22.76-16.26 20.77c-4.81-1.43-12.18-8.53-16.59-6.13s-5.9 15.28 1.52 20.95c8 6.11 18.19 1.15 22.63-4.3 3.09-3.79 6-21.46 12.17-18.72.29.15 13.96-8 15.47-16z"/><path class="cls-17" d="M229 105.64a25.75 25.75 0 0 1-1.41 8.4c-.65 1.92.88 9.26 2.74 16.71a6.34 6.34 0 0 1-9.8 6.73 41.24 41.24 0 0 0-5-2.91 20.28 20.28 0 0 0-11.74-1.85 30.2 30.2 0 0 1-3.94.25c-16.09 0-29.12-12.24-29.12-27.33s13-27.33 29.12-27.33S229 90.54 229 105.64zM165.09 1.81A11.91 11.91 0 0 0 154 12.29a35.41 35.41 0 0 0 .49 11.59c1.6 7 3.6 10.3 3.6 10.3l.18 12.28a3.44 3.44 0 0 0 6.13 2.1l8-10 20.81-1.27a14.88 14.88 0 0 0 13.95-15.82c-.36-5.33-.85-10.52-1.47-12.64A12 12 0 0 0 193.45.19z"/><path class="cls-18" d="M141.19 88.79c-1.42-4.44-4.28-5.77-4-8.75s-17-13.21-18.93-8.75-3.43 2-6.9.53-7.59 0-9.73 4.35-4.28 3.5-9 0-7-2.21-9.54 5a10.42 10.42 0 0 1-5.8 6c6.64 2 9.52 3.27 10.43 5.32 1.07 2.41 3 7.76 8.33 8.29s15.48-2.4 20 0 9.28 6.51 15 7.76a15.11 15.11 0 0 0 6.14-.22c1.67-2.7-.6-7.63 0-9.42s5.43-5.67 4-10.11z"/><path class="cls-4" d="M127.81 278.33c0-.25-1.81-25.28-7.14-31.58a109.09 109.09 0 0 0-8.48-8.4c-4.85-4.47-9.43-8.7-10.77-11.9-1.2-2.85-1-5.28-.81-8.08a37.87 37.87 0 0 0-.22-9.37c-.88-5.74-4.45-9-8.58-12.87a62.25 62.25 0 0 1-5.81-5.88c-6.22-7.47-2.81-20.48-1.18-26.74l1 .25c-1.47 5.62-4.91 18.78 1 25.85a61.51 61.51 0 0 0 5.72 5.79c4.09 3.78 8 7.36 8.89 13.45a38.75 38.75 0 0 1 .23 9.59c-.21 2.79-.37 5 .73 7.63 1.26 3 6 7.34 10.52 11.55a106.22 106.22 0 0 1 8.57 8.48c5.54 6.55 7.31 31.12 7.38 32.16z"/><path class="cls-12" d="M113.87 86.79l-11.5 26.35-7.75-.39s4 28.54 16.5 28.54 12.47-22.2 12.47-22.2l-4.22-2.31 6.75-22.24z"/><path class="cls-16" d="M136.83 66.51c-3.92-1.78-14.72-2.89-16.68.32s-3.57 10.34-3.57 10.34-4.64-3-6.24-.53c-2.16 3.36-.61 8.65 1.71 10.43s5.95 16.75 14.25 16.73c6 0 9.54-14.22 10.44-19.44s.09-17.85.09-17.85z"/><path class="cls-17" d="M81.37 250.56c-7.29-6.18-42.53-16.81-42.53-32.54 0-14.24 14.18-20.12 26.2-15.53 32.48 12.39 32.48 51.71 32.48 51.71s-6.87-1.58-9.17-2.07c-5.77-1.22-6.98-1.57-6.98-1.57z"/><circle class="cls-19" cx="13.82" cy="132.78" r="9.19"/><path class="cls-9" d="M55.7 233.33c-11 .78-15.8 6.55-15.66 12.45.08 3.82 4.18 7 9.74 7.26-.33-2.4-.41-5.42-.41-5.42l3.79 5.19a17.57 17.57 0 0 0 2.54-.6c8.34-2.67 17.22-4.3 26.88-1.3l-.11-.68c-.74-4.76-5.47-9.07-9.68-12.2a25.33 25.33 0 0 0-17.09-4.7z"/><path class="cls-20" d="M337.21 207.54c0-.06-.07-.12-.11-.17-5.5 8.19-13.3 17.55-22.23 21.67-3.72 1.72-.38 6.25-3.39 8.22-3.74 2.44-7.11.16-9.11 1.66-2.68 2-.15 5.23-3.5 8.12-5.5 4.75-31.5 0-44 10.75s-27 27.25-36 29.5-27.25 0-34.25-2.5-17.5-6.25-30.18-4.5-20.39-.92-28.07-8.75c-12.25-12.5-22.88-19-39.63-21.75-4-.66-15.11-1.2-17.26-.67 17.48 15.78 36.9 27.15 56.89 33.42C207.56 308 287.79 288.91 337.58 208z"/><g class="cls-21"><path class="cls-7" d="M273.39 202.2c-8.95 0-21.33-4-25.38-16l1-.32c4.34 12.89 18.73 16.16 27.32 15.2 5.58-.62 14.26-4.94 19.36-11.71 3.29-4.37 4.54-9 3.72-13.75l1-.17c.85 5-.5 10-3.91 14.52-5.27 7-14.26 11.46-20.05 12.1a28.31 28.31 0 0 1-3.06.13z"/></g><g class="cls-21"><path class="cls-7" transform="rotate(-18.68 198.216 209.476)" d="M185.41 208.95h25.57v1h-25.57z"/></g><path class="cls-4" d="M109 147.55c-11.36 0-18.09-18.07-20.6-35.1l1-.15c2.45 16.62 8.88 34.25 19.6 34.25h.3c11.27-.34 19-14.41 19.5-24.35h1c-.56 10.11-8.17 24.93-20.47 25.3z"/><circle class="cls-7" cx="185" cy="107.01" r="3.5"/><circle class="cls-7" cx="199.25" cy="107.01" r="3.5"/><circle class="cls-7" cx="213.5" cy="107.01" r="3.5"/><circle class="cls-7" cx="167.19" cy="19.69" r="3.41"/><circle class="cls-7" cx="181.07" cy="18.85" r="3.41"/><circle class="cls-7" cx="194.95" cy="18" r="3.41"/><g class="cls-6"><path class="cls-7" d="M88.68 250.28c-1.13-10.09-9.88-26.63-19.47-32.83-8.76-5.66-17.44-6.69-29-3.43l-.27-1c11.75-3.3 21-2.21 29.85 3.55 10 6.45 18.74 23 19.92 33.56z"/></g></g></g></svg>