<svg xmlns="http://www.w3.org/2000/svg" viewBox="0 0 361.62 313.54"><defs><style>.cls-1{isolation:isolate}.cls-2{fill:#dff0ff}.cls-3{fill:#2e9dff}.cls-4{fill:#e7e586}.cls-5{fill:#e88f80}.cls-6{fill:#4073bf}.cls-7{fill:#f1cabf}.cls-17,.cls-8{fill:#11175b}.cls-8{opacity:.25;mix-blend-mode:overlay}.cls-9{fill:#edb9ae}.cls-10{fill:#1d425b}.cls-11{fill:#138ae4}.cls-12{fill:#80ccff}.cls-13{fill:#fff}.cls-14{fill:#213a6d}.cls-15{fill:#bee8ff}.cls-16{opacity:.43}</style></defs><title>organizer_step_5</title><g class="cls-1"><g id="Layer_3" data-name="Layer 3"><path class="cls-2" d="M136.4 94.35c39.62-18.1 59-78 138-55s120 194-13 251c-153.48 65.77-248-38-239-91s33-68 114-105z"/><circle class="cls-3" cx="26.57" cy="78.97" r="7.25"/><circle class="cls-4" cx="174.45" cy="65.41" r="6.56"/><circle class="cls-5" cx="209" cy="8.38" r="5.03"/><circle class="cls-4" cx="154.73" cy="126" r="4.1"/><path class="cls-6" d="M22.41 209.66c-6.92-37-1.83-77.88 11-75.46s12.79-6.74 21.66-5.75c7 .77 8.27 6.53 16.67 6.23 9.38-.33 7.33-4.58 14.33-4.58 8.2 0 18.46 11.2 25.84 14.44s10-2.89 15.3-6.19c9.7-6 23.87 3 27.53 12.5s-2.87 22.18 7.92 20.25c18.36-3.29 16.25 28 16.25 28s-60.75 14-87 18.25-69.5-7.69-69.5-7.69z"/><path class="cls-7" d="M204.65 129.85l-2 34.6s21.5.65 21.75-.1 1.25-31.5 1.25-31.5z"/><path class="cls-5" d="M212.56 96.51c-6.7 8.9-11 34.84-11 34.84s3.5 8.3 23 10.33c1.17.12 0 12.67 0 12.67l97 5.66s-4.44-48.77-5.62-53.81c-3.67-15.67-43.72-22.85-50.8-23.19s-44.91 3.34-52.58 13.5z"/><path class="cls-8" d="M224.82 154.36l64.56 3.77c-2.95-8-8.42-20.32-13.65-18.21-7.67 3.09-20.39 3.63-24.2 0-8.13-7.76-11.05-1.91-15.26-3.57s-8.54-9.12-8.54-9.12l-2.66 16.1a63.07 63.07 0 0 1-.16 7.11z"/><ellipse class="cls-3" cx="287.25" cy="42.65" rx="4.34" ry="6.95"/><path class="cls-9" d="M256.15 49.6s-.75 20.75-2.5 27-2.22 7.8-2.22 7.8 6.57 7.7 15.07 7.7 15.07-5.44 15.07-6.19-1.42-26.56-1.42-26.56z"/><path class="cls-7" d="M259.9 60.85c5.33 6.23 13.75 12.75 19 10.75s7.39-22.43 7.83-28.75 1.67-14.5-2.33-19.25-22.5-2.5-26.25 1.5-10.75 18.75-10.75 18.75 10.19 14.31 12.5 17z"/><path class="cls-10" d="M248.73 33.35c-1.93-9.35-2.94-13.54.17-17.17 2.58-3 10.83-6 12.33-6.17 4.33-4.16 14.33-12.33 23-8.83s8.9 15.08 7.4 19.24-5.57 7.43-8.57 7.93-16.83-3.17-21-1.34a9.17 9.17 0 0 0-5 7.15 27.58 27.58 0 0 0-.16 6.35l-7.29-1.14s-.4-3.72-.88-6.02z"/><circle class="cls-11" cx="255.09" cy="42.65" r="9.12"/><ellipse class="cls-3" cx="253.4" cy="42.8" rx="7.43" ry="8.97"/><path class="cls-6" d="M328.09 156.35h-73l33.49-48.16a10.1 10.1 0 0 1 8.29-4.34h61.56a3.22 3.22 0 0 1 2.64 5.06z"/><path class="cls-12" d="M346.71 144.54c-12.53 1.27-22.23 7.33-28.31 9.34-6.67 2.2-15-.87-29-4.87s-36 4-47.67 11l-32 84.84 19.27 57.2a288.34 288.34 0 0 0 32.4-11.7c69.68-29.87 91.6-91.03 85.31-145.81z"/><circle class="cls-13" cx="253.65" cy="195.88" r="31.17"/><path class="cls-9" d="M177.86 116.14c.13-3.42.49-9.49.76-12s.12-11.93-1-11.82-1.17 5.3-1.53 6.74-.72 3-.84 3.45-1.61-6.61-1.9-9-2.22-10-3.21-11.19-1.73-1.32-1.93-.89 1.28 4.7 1.39 6a65 65 0 0 1 .16 7.59c-.2.52-.39.61-.39.61s-1.35-5.93-1.53-7.11a41.77 41.77 0 0 1-.38-4.42c0-1.25.14-4.13-.8-4.71s-.78.34-1.15 1.7.08 7.65 0 8.75 1.15 5.89.86 6.28-1.76-6.5-2.08-8.29-.89-3.83-1.49-4.27-.95.21-.83.7.72 8.77.78 9.38.49 2.75.27 3-1.17-5.19-1.41-6.14-.62-1.64-1-1.77-.58.79-.37 2.42 1 7.11 1.36 8.4.8 5.59 1.41 8 3 6.39 3.13 8.35 1.51 11.21 1.51 11.21a17 17 0 0 0 6.5-.55c3.71-1 5.67-1.76 5.67-1.76s-1.99-7.8-1.96-8.66z"/><path class="cls-13" d="M40.4 187.35c0-1 10.82-20.79 15.41-32.52A19.37 19.37 0 0 1 69.4 143l29.5-6.67 31.63 5c4 .63 9.83 5.67 11.62 9.26 3.2 6.42 23 43.65 23 43.65l-62.25 16.1-62.5 7z"/><path class="cls-2" d="M125.32 204.55c6.84-4.6 12.83-8.67 12.83-8.67l-7.5-25.25a20.45 20.45 0 0 0-5.17 9.72c-2.08 9.75-19.56 12.91-26.38 13.08s-12.2 8.17-15.45 11.17-9.25 3.25-14.25-4.75-9.75-16-16.27-16.65l-9.73 18.57 7 14.46 52.54-5.88z"/><path class="cls-7" d="M73.64 214.91c-2.58-4.42-42.91-65.56-44.46-69.75a23.32 23.32 0 0 0-3-8.25 71.45 71.45 0 0 0-9.25-10.71c-1.36-1.08-2.76-2.37-3.57-2-.23.12.9 2.58 1.7 3.62 1.47 1.91 3.79 4 4.47 5a4.26 4.26 0 0 1 .55 2.39 23.18 23.18 0 0 0-4.25-2 8.71 8.71 0 0 1-2.49-1S9.39 127.4 8.8 127s-3.21-5.66-4.16-5.06 1.62 5.56 2.17 6.56 2.64 4.49 2.64 4.49l.78.9L9 133a26.16 26.16 0 0 0-1.71-3.05l-1.67-2.36s-3.66-5.6-4.4-5c-1.57 1.17 2.18 5.89 2.57 6.78s4.23 6.85 4.47 7.27a.57.57 0 0 1-.21.74 14.18 14.18 0 0 0-1.85-2.66 10.32 10.32 0 0 1-1.43-1.83 21.32 21.32 0 0 0-2.47-4c-1.3-1.58-2.13-1.23-2.2-.76s2.5 4.92 3.08 6 1.89 3.41 1.89 3.41-2.93-3.4-3.49-2.53 2.64 4.49 2.81 4.86 3 3.12 3.42 3.63 3.46 3.6 4.11 4.2 3.4 2.71 4.83 3.94 2.75 1.44 3.4 2.21C31.41 167 39.6 215.63 46.39 218c7.67 2.66 29.96 1.55 27.25-3.09z"/><path class="cls-12" d="M200.23 308.66c2.43-37.31 2.65-92.16 2.42-93.65-.35-2.18-12.25-15.48-28.59-13s-24.66 5.34-35 6-22.7-2.56-34-3.23-28.62 12.72-43.66 4.9c-13.34-6.93-27.48-6.18-39.59-3.38-.29 46.49 67.28 120.7 178.42 102.36z"/><path class="cls-6" d="M165.22 122.48s10.29 91.2 12.22 90.54 23.67-8.23 23.67-9.21-19.76-84.22-19.76-84.22z"/><path class="cls-14" d="M126.4 88.85c-1.75-4.75-4.23-18-20-19.88-9.25-1.12-13.34 4.47-18.09 7.71-1.33.91-2.59-1.53-5.08-.67-2.17.75-.08 3.92-2.75 4.59s-3.48-1.11-5.08-.92c-1 .12-1.65 1.22-2.11 2.39a2.69 2.69 0 0 1-2.89 1.67c-5.7-.85-11.16-.83-11 6.86.25 12.27 9.12 34.36 40.87 36.45s47.88-15 47.88-23.2c-.01-15.07-20-10.25-21.75-15z"/><path class="cls-8" d="M68.9 103.12c5 12.73 18.86 21.89 32.68 21.23s26.82-4.67 28.15-7-6.45-1.92-8.23-6.13.7-10.56-7.35-12.65-21.56-12.81-24.49-12.35c-8.55 23.46-21.99 13.78-20.76 16.9z"/><path class="cls-9" d="M91.6 117.6l-.91 20.69-10.06 2.19s6.63 12.62 17.14 12.62c15.63 0 20-13.77 20-13.77l-7.67-1.21-.35-26.9z"/><path class="cls-7" d="M97.06 83c-3.41-.24-7.48 2.75-8.29 6.08-4 16.32-2.81 24.06-1.25 27.12 1.74 3.39 4.88 8.68 11.63 6.51 10.21-3.27 11.75-13.26 11.75-13.26s5.12 3 6.14-4.5c.51-3.75-2.89-6.4-2.89-6.4s1.25-8.34-4.25-12.25c-3.08-2.16-8.59-2.98-12.84-3.3z"/><path class="cls-9" d="M150.06 185.35c-8.66.36-53.16 15.5-57.16 19.5s-3.17 10.5-3.17 10.5l12.87 2s-.54-2.88 5.8-4.88 23.33.56 31-.95 20.33-8.84 21.66-12.17-3-14.35-11-14z"/><path class="cls-6" d="M320.88 203.2l-14.36-2.95s-12.43 39.37-12.43 41.7c-4.95-2.26-19-24.27-25-26.6s-10.66-3.83-10.66-3.83L210.06 202l-19.5 13.8c1 10.34 9.55 42.21 9.67 44.61 2 40-9.67 41.63-24.64 50.87 22.33-1.05 46.74-5.93 73-15.8l.43-11a17.07 17.07 0 0 1 4.37-10.82c4.21-4.7 9.59-9.81 10.09-16.59.16-2.13-1-7.1-2-10.88-.51-1.89 2-4.27 3.2-2.69 4.25 5.81 12.32 14 18.79 19.5 7.16 6.14 16.72 9.81 20.33 9.47 8.29-7.68 17.08-69.27 17.08-69.27z"/><path class="cls-8" d="M175.59 311.29a225.87 225.87 0 0 0 48.59-7.88 67.37 67.37 0 0 0-4.78-5.4c-3-2.66 3-14.33-5.25-21.08s-4.75-16.25-2.62-26.78-2.86-22.42-14.8-31.89l-6.08-1.63c1.33 11.09 9.46 41.45 9.58 43.79 2 40-9.67 41.63-24.64 50.87z"/><path class="cls-9" d="M245.57 209l6-25.15-15.46-7-12.9 27.74-9.12-1.8c-.31 4.89 6.8 29.56 19.8 29.56 13.56 0 19.81-21.76 19.81-21.76z"/><path class="cls-14" d="M203.24 308.14c.55-3 1-5.77.66-7.13-2.34-8.33-8.67-3.33-9.5-8.33s3.85-20.39-4.76-26.7c-12.16-8.93-21.08 4.34-23.24 10s.83 12.36-5.84 12.36c-6 0-8.45 8.67-9.58 22.54a203.34 203.34 0 0 0 52.26-2.74z"/><path class="cls-14" d="M154.4 239.51c-3.17-.16-5.17 4.67-6.34 3.84s2.84-17-6.33-15.84-9 28.5-10.67 29.06-2.16-1.89-8.5-1.39-4.16 15.5-5.16 14.33-5.84-4.66-7.34 0v33.06a172.77 172.77 0 0 0 44.77 8.59c.95-17.36 3.1-57.32 3.23-62.64.17-6.83-.5-8.84-3.66-9.01z"/><path class="cls-2" d="M65 221.6c2.26 7.44.73 36.35.73 47.71 0 11.9 2.81 37.32 2.81 37.32s13.34-1.15 22.32-.13 28 7.35 28 7.35-5.52-30.18-5.9-42.23c-.5-15.58 2.56-40 1.79-43.87a90.8 90.8 0 0 1-27.44-.51C79.12 225.8 65 221.6 65 221.6z"/><path class="cls-14" d="M95.77 81.63c2.5 10.87 11.7 17.82 18.38 16.94 3.92-.51 3.93-15.54-.45-19-8.3-6.47-17.93 2.06-17.93 2.06z"/><path class="cls-7" d="M265.85 179c-.41-1.37-.68-5.73-1-7.47a71.79 71.79 0 0 0 2.67-10.81s-12.77-6.69-20-5.46-9.94 10-9.94 10-5.87-1.45-6.56 2.62 2.13 9.64 2.13 9.64 1.75 10.11 8 14.54c5.88 4.14 12.77 10.46 17.53 3.14 3.64-5.49 7.88-13.87 7.17-16.2z"/><path class="cls-10" d="M268.6 161.45c2.42-13.1-10.45-18.28-22.33-16.91-12.64 1.47-16.37 9.18-21.67 9.81-3.27.38-10.55-4-19.54.05-12.54 5.61-11.74 14.73-17.74 16.23s-12.87-9.45-28.5 0c-7.38 4.46-17.42 26-2.8 39.22 7.26 6.56-1 16.08 6.5 23.12 29.38 27.63 47.88-6.29 48.88-11s12.37-3 17.37-7.66c6.71-6.2 0-11.61 2.1-14.6 3.28-4.65 5.65.15 14.15-8.15 10.75-10.5 2.11-25.59 7.5-29.25 8.02-5.42 16.08-.86 16.08-.86z"/><path class="cls-8" d="M211.4 222c1-4.66 12.37-3 17.37-7.66 6.71-6.2 0-11.61 2.1-14.6 3.28-4.65 5.65.15 14.15-8.15 10.75-10.5 2.11-25.59 7.5-29.25a15.19 15.19 0 0 1 5.88-2.44c-8.1-.65-12 3.44-12 7.44s-.5 20.5-7.75 21.66-18 4.09-16.25 12.33 3 8-1.56 9.26-11.94-2.25-14.19 4.5-6.75 15.25-24.75 17c-10.22 1-17.45-1.88-23.08-6.38a11.45 11.45 0 0 0 3.7 7.25c29.38 27.64 47.88-6.28 48.88-10.96z"/><path class="cls-5" d="M174.06 289.51c14.67-5.83 16.5-18.33 10.71-19-3.91-.45-12.71 5.84-13 3.42s16.63-19 18.83-26.83-2.54-12.25-10.5-10.42-17.33 28-19.66 28.67-1.3-14-9.76-10.17c-6.24 2.83 0 28-4.74 31.17s-7.84-9-13.34-6.84c-5 2-6.74 14.39-4.18 28.08a178.63 178.63 0 0 0 31.49 3.81c3-4.27 8.44-12.73 5.28-13.72-4.25-1.33-5.59 1.5-7.06.5s9.14-5.96 15.93-8.67z"/><path class="cls-15" d="M114.72 227.75a90.8 90.8 0 0 1-27.44-.51c-3.36-.59-7.72-1.65-11.69-2.69 3.64 6.13 1.64 10.3 3.64 18.13s5.19 12.49 10.43 12.5 6.57-4.17 12.4-8.67a14.58 14.58 0 0 1 12-2.81c.54-7.82 1.03-14.14.66-15.95z"/><path class="cls-9" d="M88.08 208.66c-1.64 3.62-4.07 9.27-5.25 12a30.32 30.32 0 0 0-1.72 5.27l3.85.86s1-1.76 1.32-2.19.18 8.85-.32 11.67-1.46 10-.7 11.63 1 1.16 1.39.76 1.25-4.91 1.56-6.37 1.43-7.81 1.84-8.33.67-.54.67-.54-.45 7.05-.64 8.42a44.83 44.83 0 0 1-1.08 5c-.4 1.4-1.57 4.54-.67 5.51s1-.1 1.92-1.48 2.53-8.51 3-9.71.68-6.93 1.15-7.27-.16 7.84-.41 9.93-.27 4.56.29 5.26 1.18.1 1.21-.49 2.16-10 2.29-10.67.38-3.23.73-3.47-.41 6.16-.45 7.3a3.15 3.15 0 0 0 .52 2.3c.34.25 1-.68 1.25-2.56s1.26-8.24 1.29-9.79 1-6.49 1.1-9.39a26.19 26.19 0 0 1 .71-6.38c.57-2.19 4.48-8.05 4.48-8.05s-3.88-6.08-8.57-6.28c-.01.03-8.93 3.03-10.76 7.06z"/><path class="cls-3" d="M253.66 37.78c-1.07-3.52-2.74-10.41-1.9-16.94.75-5.9 3.23-10.24 7.52-12.13a5.85 5.85 0 0 1 2.37-.49h1.54l-2 1.79c-3.92 1.19-5.82 5.91-6.5 11.21a39.7 39.7 0 0 0 1.8 15.69z"/><path class="cls-12" d="M99.63 261.56a15.85 15.85 0 0 1-4.56-.66c-1-.31-2.12-.7-3.43-1.16-4.78-1.66-11.33-3.93-17.78-4.06v-1c6.61.13 13.24 2.44 18.08 4.12 1.3.45 2.43.84 3.41 1.14a15.65 15.65 0 0 0 8.62 0l.32.95a15.87 15.87 0 0 1-4.66.67zm.64 11.19a15.44 15.44 0 0 1-4.55-.66c-1-.3-2.13-.7-3.44-1.15-4.78-1.66-11.28-3.94-17.77-4.07v-1c6.61.14 13.24 2.44 18.08 4.12 1.3.45 2.43.84 3.41 1.14a15.69 15.69 0 0 0 8.62 0l.31.95a15.91 15.91 0 0 1-4.66.67zm.73 10.85a34.74 34.74 0 0 1-4.55-.3 43.31 43.31 0 0 1-8.14-2.3c-4.11-1.41-8.36-2.88-13.15-3v-1c4.95.1 9.47 1.66 13.45 3a43.12 43.12 0 0 0 8 2.21 34 34 0 0 0 8.79 0l.15 1a30.64 30.64 0 0 1-4.55.39zm-9.24 9.1c-4.8-1.64-10.44-3.33-16-3.44v-1c5.65.12 11.38 1.83 16.25 3.49z"/><g class="cls-16"><path class="cls-13" d="M141.89 309.91l-1-.12c1.27-10.77 13.46-27.88 19.41-33.23 2.72-2.45 7.69-10.87 12.5-19 5.3-9 10.78-18.26 14-21l.64.76c-3.1 2.6-8.53 11.81-13.79 20.72-5.07 8.58-9.85 16.69-12.69 19.24-5.96 5.41-17.87 22.48-19.07 32.63z"/></g><g class="cls-16"><path class="cls-13" d="M145.7 306.49c-1.42 0-2.92-.17-3.6-.8-2.18-2-11.11-20-10.45-25.42l1 .12c-.61 5.08 8.07 22.67 10.13 24.56.37.33 1.61.64 4 .51 5.29-.29 14.94-2.8 18.84-7.27l.75.66c-4.13 4.73-13.91 7.3-19.54 7.61-.36.02-.74.03-1.13.03z"/></g><g class="cls-16"><path class="cls-13" d="M159.1 284c-.47 0-.9 0-1.3-.06-1.41-.15-2.28-.55-2.64-1.23-1.89-3.54-3.88-22.76-3.48-28.11l1 .08c-.42 5.57 1.68 24.4 3.36 27.56.09.16.44.55 1.87.7 6 .65 23.2-4.08 29-11l.76.64C182 279.41 166.25 284 159.1 284z"/></g><path class="cls-2" d="M99.1 156.85c-10 0-19.09-7.91-22.53-15.34l.91-.42c3.31 7.15 12 14.76 21.62 14.76 8 0 18.38-6 21.93-16.1l1 .33c-3.9 10.92-14.71 16.77-22.93 16.77z"/><path class="cls-14" d="M125.07 75.13c-1.88-2.69-7-8.37-13-10.56l.35-.94c6.18 2.27 11.36 7.94 13.45 10.93zM101.37 200s-.36.44 0 .53c5.6 1.42 7.7 9.29 8.19 11.58a.7.7 0 0 0 .78.55l4.14-.53a.69.69 0 0 0 .6-.59 14.7 14.7 0 0 0-2.39-9.38 9.44 9.44 0 0 0-6.42-4 1.07 1.07 0 0 0-.53.07z"/><ellipse class="cls-11" cx="310.43" cy="131.74" rx="4.42" ry="3.46" transform="rotate(-57.7 310.419 131.741)"/><path class="cls-17" transform="rotate(-6.85 174.516 128.244)" d="M165.94 127.76h17.29v1h-17.29z"/><path class="cls-17" transform="rotate(-77.35 311.939 209.337)" d="M311.45 201.41h1v15.85h-1z"/><path class="cls-17" d="M232.88 237.48c-12.31 0-18.68-11.82-19.23-18.07l1-.09c.54 6.09 6.94 17.75 19.17 17.14 11.59-.58 22-13.65 24.09-25l1 .18c-2.17 11.75-13 25.25-25 25.85-.38-.01-.7-.01-1.03-.01z"/><path class="cls-9" d="M312.34 185.1s-5.27 1.06-5.78 2.76c-.68 2.23.26 5.41.68 6.88l1.08 3.82v2.06l10.81 2.22s-.54-2.86.17-3.88 3.41-3.81 3.83-5.16a20.22 20.22 0 0 0 .5-5.44c-.12-.72-5.73-9.22-5.73-9.22z"/><path class="cls-10" d="M310.4 170.5l-7.29 5.5s.94 1.35 1.18 1.58c4.42 4.3 14.8 16.59 17 19.17a1 1 0 0 0 1 .31 6.16 6.16 0 0 0 1.7-.75 6 6 0 0 0 1.22-1.42 1 1 0 0 0 0-1.08c-1.86-2.79-10.75-16.23-13.62-21.69-.16-.34-1.19-1.62-1.19-1.62z"/><path class="cls-6" d="M308.86 164.64a8.37 8.37 0 0 1 1.63 6.14c-.15 1.08-2 2.32-3.38 3.35s-2.72 2.18-3.88 2a8.25 8.25 0 0 1-5.35-3.28c-2.57-3.44-2.21-8.07.82-10.34s7.58-1.31 10.16 2.13z"/><path class="cls-10" d="M309.34 164.79a68.19 68.19 0 0 1-5.36 4.73 58.14 58.14 0 0 1-6.05 3.81l-.63-.8a61.35 61.35 0 0 0 6.05-3.81 67.27 67.27 0 0 0 5.35-4.72z"/><path class="cls-9" d="M313.3 174.94c1.54-.73 2.76-.86 3.56-.12s.47 2.23-.16 3.53-1.78 3.1-2.53 3-1.34-2.06-.92-2.65a6.22 6.22 0 0 0 .43-2.41z"/><path class="cls-9" d="M318.05 177.16c1.38.6 2.36 1.49 2.44 2.08s-2.41 4.3-3.14 5.25a11.18 11.18 0 0 1-3.74 2.67 1.05 1.05 0 0 1-1.14-1.34c.28-.83 2.79-4.13 3-4.65s1.23-3.63 1.23-3.63 1.03-.54 1.35-.38z"/><path class="cls-9" d="M319.32 180.83c.7.07 2.81.94 3.17 2s-2.56 4.32-3.6 5.05a18.83 18.83 0 0 1-4.57 2c-.45 0-1.07-1.33-1-1.7a20.82 20.82 0 0 1 3.8-4.34c.63-.18 2.2-3.01 2.2-3.01z"/><path class="cls-9" d="M322.09 184.27a4.87 4.87 0 0 1 1.63 2.6c0 .85-1.14 2.38-1.81 2.95s-4.6 2.6-5 1.79.85-2.81 1.38-3.26 3.8-4.08 3.8-4.08zm-10.62-10.06c1.16.72 1.46 2.64 1.44 3.79s0 3 0 3a25.46 25.46 0 0 1-.53 4.06 8.72 8.72 0 0 1-3.13 3.32c-.86.4-2.65-.28-2.65-.28s2.59-7.12 2.69-8.68a26.11 26.11 0 0 1 1-4.57c.26-.36.82-.85 1.18-.64z"/><path class="cls-10" d="M327.89 235.85l-1-.08c0-.07.51-6.68-.41-9.49-3.2-9.74-2.18-12 .52-17.88l.46-1c2.81-6.2-.16-8.6-3.72-10.69l.51-.86c3.64 2.14 7.27 5 4.12 12l-.46 1c-2.66 5.83-3.56 7.79-.48 17.16.99 2.99.49 9.56.46 9.84z"/></g></g></svg>