<svg xmlns="http://www.w3.org/2000/svg" viewBox="0 0 370.16 362.87"><defs><style>.cls-1{isolation:isolate}.cls-2{fill:#dff0ff}.cls-3{fill:#213a6d}.cls-4{opacity:.58}.cls-5{fill:#80c0ff}.cls-6{fill:#4073bf}.cls-7{fill:#e7e586}.cls-8{fill:#bee8ff}.cls-9{fill:#fff}.cls-10{fill:#2e9dff}.cls-11{fill:#e88f80}.cls-12{fill:#11175b;opacity:.25}.cls-12,.cls-18,.cls-19{mix-blend-mode:overlay}.cls-13{fill:#edb9ae}.cls-14{fill:#f1cabf}.cls-15{fill:#1d425b}.cls-16{fill:#050f8f}.cls-17{fill:#e68a78}.cls-18{opacity:.74}.cls-19{fill:#0b1247;opacity:.49}</style></defs><title>participant_step_4</title><g class="cls-1"><g id="Layer_3" data-name="Layer 3"><path class="cls-2" d="M56.83 135.61c32.87-50.72 61-113.28 161.76-87.92 108.84 27.4 203 128.44 119.26 257.06-61.75 94.88-309 65.54-332.32-31-22.43-92.86 37.24-116.46 51.3-138.14z"/><path class="cls-3" d="M70.49 314.08a45.31 45.31 0 0 0-10.09-39.84c-6-6.6-8.77-7.47-9.62-13s-2.86-16.62-9.46-18.18-7.81 9.63-6.54 16.43 4.15 12.58 2.69 19.2-4.19 11.18-1.9 17.82 7.52 16.19 7.52 16.19z"/><g class="cls-4"><path class="cls-5" d="M36.82 313.47l-1.14-.11c1.44-14.09-3.24-29-8.2-36.82-4.68-7.42-9.09-14.42-12.18-28.2-2.62-11.75-5.07-27.11-.61-41.72l1.09.33c-4.38 14.36-2 29.53.64 41.14 3 13.59 7.2 20.19 12 27.84 5.08 8.07 9.86 23.18 8.4 37.54z"/></g><path class="cls-6" d="M76.48 341.17A169.64 169.64 0 0 0 71 319.55c-2.79-9.1-12.5-17.59-15.16-20s1.58-12-2.38-20.94C51.28 273.72 43.66 270 42 269s-.53-7.86-1.94-12.34c-2.25-7.14-8-8.3-11.39-10.84s-2-16.54-1.76-22.41-3.59-17.86-10.35-16.5-7.72 11.58-8.37 18.85c-.37 4.25-.54 9.3-1.28 14.52s3.71 20.5 4.14 22.43-2.24 6.29-2.83 11.08 6.56 11.15 7.14 13.23c.25.89-.24 3.74-.77 7.56 12.22 19 35.01 35.42 61.89 46.59z"/><path class="cls-7" d="M65.41 332.12C50 311 38.62 282.16 33.55 263.84l1.1-.31c5 18.24 16.36 47 31.68 67.92z"/><path class="cls-7" d="M54.31 314l-.09-.07c-3.84-3.06-8.2-6.53-15.19-5.28l-.2-1.12c7.5-1.34 12.27 2.45 16.1 5.5l.1.08zM52 309.66c-.8-5.8 1.56-10.84 6.14-13.16l.52 1c-4.14 2.09-6.26 6.68-5.53 12zm-8.86-18.92c-1.66-1.35-6.71-5.48-12.15-6.89l.28-1.11c5.68 1.48 10.88 5.72 12.59 7.12zm1.92 4.55c-.84-4.24.47-11.1 3.76-14.55l.83.78c-3 3.2-4.26 9.59-3.47 13.54z"/><circle class="cls-7" cx="30.46" cy="282.47" r="1.78"/><circle class="cls-7" cx="38.3" cy="308.15" r="1.72"/><circle class="cls-7" cx="59.36" cy="296.1" r="1.66"/><circle class="cls-7" cx="49.51" cy="280.25" r="1.35"/><circle class="cls-7" cx="34.47" cy="264" r="1.97"/><path class="cls-8" d="M323 280.1l-29.32-29.78a28.64 28.64 0 0 0-20.41-8.55H157.39a18.27 18.27 0 0 1-18.27-18.26V18.77A18.27 18.27 0 0 1 157.39.5H315.7A18.26 18.26 0 0 1 334 18.77V275.6a6.41 6.41 0 0 1-11 4.5z"/><path class="cls-9" d="M318.31 260a4.22 4.22 0 0 1-3.1-1.38l-20.09-21.69a12.17 12.17 0 0 0-8.92-3.9H163.76a13.32 13.32 0 0 1-13.3-13.3V24.27A13.32 13.32 0 0 1 163.76 11h145.57a13.32 13.32 0 0 1 13.3 13.3v231.4a4.19 4.19 0 0 1-2.72 4 4.33 4.33 0 0 1-1.6.3zm-2.26-2.16a3.14 3.14 0 0 0 5.44-2.13V24.27a12.18 12.18 0 0 0-12.16-12.16H163.76a12.18 12.18 0 0 0-12.16 12.16v195.42a12.18 12.18 0 0 0 12.16 12.16H286.2a13.33 13.33 0 0 1 9.76 4.26z"/><rect class="cls-10" x="107.47" y="30.95" width="122.54" height="40.34" rx="6" ry="6"/><rect class="cls-9" x="163.73" y="96.06" width="74.45" height="15.91" rx="4.33" ry="4.33"/><rect class="cls-9" x="163.73" y="122.57" width="94.44" height="32.61" rx="4.33" ry="4.33"/><rect class="cls-9" x="237.09" y="169.85" width="75.01" height="26.64" rx="4.33" ry="4.33"/><circle class="cls-9" cx="138.67" cy="51.12" r="4.85"/><circle class="cls-9" cx="167.86" cy="51.12" r="4.85"/><circle class="cls-9" cx="197.05" cy="51.12" r="4.85"/><path class="cls-11" d="M234.92 274s-10.48-57.62-20-64.81c-16.89-12.71-66.11-23-66.11-23s-60 12.33-69.54 26.92c-8.48 13-19.47 78.91-19.47 93.67s4.56 21.35 19.47 25.39c2.49.68 6.34.38 11-.58-.86 9.54-1.2 12.9-1.2 12.9l31.74 9.54s24.11 6.69 41.44 5.46 48.15-9.2 48.15-9.2-1.19-24.45-2.11-41.81c6.2 2.06 2.93 2.71 10.18 5.93a56.39 56.39 0 0 0 10.61 3.13c5.07 1.05 9.15-1.73 13.59-12.16 3.31-7.78 1.76-32.33 1.76-32.33z"/><path class="cls-12" d="M182.42 341.7c-10.26-3.69-21.74-7-28.21-13.95s-3.83-19.25-12.67-23.38-11.22-9-14.06-20.2S118.14 262 104 260.1l-3.15.9c.7 16-10.65 70.64-10.65 70.64l-1.2 12.9 31.74 9.54s24.11 6.69 41.44 5.46c9.4-.67 22.77-3.32 33-5.6-2.96-4.82-7.41-10.32-12.76-12.24z"/><path class="cls-9" d="M196.14 238.66L186 282.44a5.55 5.55 0 0 0 6 6.77l28.43-3.21a10.1 10.1 0 0 0 8.65-7.5l11.41-43.85a5.55 5.55 0 0 0-6-6.91l-29.62 3.12a10.1 10.1 0 0 0-8.73 7.8z"/><path class="cls-13" d="M128.64 192.8s5.69-14.35 5.48-28.71c-.1-6.63-2.85-25.89-2.85-25.89l34.64 18.41s-1.23 16.56-1.13 21.84c.09 4.06 2.87 12.34 2.87 12.34s-1.83 13.09-18.24 13.09c-13.34 0-20.77-11.08-20.77-11.08z"/><path class="cls-14" d="M163.07 110.64c5.65 8 7.05 21.85 7.05 39.51 0 13.58 1 24-5.3 25-7 1.2-24.38-5.79-27.11-11-4-7.59.82-15.94-6.69-24.52-11.59-13.19 22.47-42.63 32.05-28.99z"/><path class="cls-15" d="M133.2 157.53c-10.26-9.44-24.31-20-14.46-28.71-6.16-7 1.88-15.73 11.17-21.33 8.52-5.13 11.44-21.74 24.61-21.74 11.38 0 20 21.78 13.16 30.71-5.42 7-21.56-3.31-25.56 9.9-1.8 5.92.23 14.35-2.09 14.76s-5.59 5.16-3.14 8.62-3.69 7.79-3.69 7.79z"/><path class="cls-14" d="M227.88 263.31a88.05 88.05 0 0 1-8.22-7.41c-1.27-1.37-1.59-2.72-.77-3.36s5.37 3.31 7.29 4.49c1.45.89 6.86 4.47 9.88 6.47v-.2c-1.41-1.18-2.8-2.32-3.62-3-2.19-1.8-10.06-9.41-10.51-10.8s1.6-2.87 4.12-.35c2 2 7.57 6.5 10.88 9.16v-.22c-1.92-1.86-3.7-3.61-4.49-4.48-2.14-2.4-4.42-5-4.25-6.1s1.79-.32 3.38.95c.73.57 3.81 3.13 7.12 5.86l.44.29c-.4-3.21-.77-6.64-.07-8.86.75-2.38 1.38-4.07 1.93-3.48s.93 6 1.83 8.1a26.57 26.57 0 0 1 1.43 7.13 20.17 20.17 0 0 0 .69 3.69c1 3.69.31 7.93-.61 11.89a21.59 21.59 0 0 1-2 5.27 5.87 5.87 0 0 1-6.63 2.91 3 3 0 0 1-2.19-3.37 4.21 4.21 0 0 0-2.3-4.52c-5.25-2.57-9.76-6.5-9.64-7.76s.5-1.53 1.75-.77a120.65 120.65 0 0 0 11.38 5.87h.09a3.12 3.12 0 0 0-1.14-3c-2.25-1.71-4.65-3.59-5.77-4.4z"/><path class="cls-10" d="M354.05 259.42c-13.69 38.67-35.44 39.44-56.54 44s-23.08 17.58-33.86 22.14c-18.27 7.74-24-3.84-45.36 3.77-15.75 5.67-38.37 18.67-75.53 13.29-27.37-3.93-69.95-16.95-69.95-16.95l1.73 14.69s39.21 17.1 81.73 21.1c34.5 3.24 56.24 1.48 80.62-2.21 42.23-6.4 75.48-23.18 96.17-47.84 19.52-23.28 28.86-49.13 33.18-71.57-8.91-3.39-9.38 11.63-12.19 19.58z"/><circle class="cls-16" cx="356.55" cy="72.54" r="5.59"/><path class="cls-17" d="M336.14 151.69c9.61-9.61-1.89-22.87 18.51-43.27 15-15 8.09-29.69 1.9-35.88s-20.66-13.31-35.87 1.9C303 92.17 284.65 85.71 277.41 93a3.36 3.36 0 0 0-.29.24c-4.14 4.14 5.64 20.65 21.86 36.87s32.73 26 36.88 21.86a2.09 2.09 0 0 0 .23-.29z"/><path class="cls-14" d="M142.76 290c6.81-3.92 22.26-10.28 23.05-10.68s4.52-4.32 10.26-6.2a96.87 96.87 0 0 1 19-3.47c2.37 0 5-.17 5.48 1 .15.32-3.16 2-4.91 2.39-3.19.77-7.42 1-9 1.48a5.77 5.77 0 0 0-2.63 2.06 31.34 31.34 0 0 1 6.22 1.52 11.78 11.78 0 0 0 3.53 1s8.31-1.74 9.32-1.72 8.26-3.27 8.77-1.82-6.49 4.53-7.93 5.12-6.66 2.52-6.66 2.52l-1.6.28 2.05.11a36.07 36.07 0 0 1 4.43-1.78l3.79-1.08s8.7-2.83 9-1.61c.67 2.58-7.36 4.4-8.54 5s-10.37 3.67-11 3.92-.4 1-.4 1a19.11 19.11 0 0 1 4.24-1.24 14.63 14.63 0 0 0 3.09-.73 29.85 29.85 0 0 1 6-2.09c2.74-.49 3.3.58 3 1.14s-6.87 3.09-8.4 3.73l-4.93 2s6-1.11 5.88.29-6.67 2.52-7.16 2.77-5.83.77-6.74.93-6.77.87-8 .95-5.95 0-8.52.06a26 26 0 0 1-5.51-.56l-18.71 8.44z"/><path class="cls-17" d="M59.92 316c0 14.76 3.88 20.87 19.32 21.12 17.57.28 77.75-32.38 77.75-32.38l-5.58-19.07s-44.57 7.48-51.17 9.75c-23.73.35-40.32 5.82-40.32 20.58z"/><path class="cls-10" d="M70 153.58h-8.74a6.25 6.25 0 0 0-5.38 3l-2.21 3.66a3.59 3.59 0 0 1-6.07.1l-2.59-4a6.23 6.23 0 0 0-5.22-2.86h-8.28a6.27 6.27 0 0 1-6.23-6.28l.15-38.49a6.26 6.26 0 0 1 6.29-6.23l38.48.15a6.25 6.25 0 0 1 6.23 6.28l-.15 38.49a6.25 6.25 0 0 1-6.28 6.18z"/><path class="cls-9" d="M55.26 123.43a8.29 8.29 0 0 0 1.19.17h5.49c1.31 0 1.88.34 2.23 1.3a2.73 2.73 0 0 1-.72 2.9c-.11.09-.23.17-.17.12a9 9 0 0 1 1 2.4 1.87 1.87 0 0 1-1.28 1.85 5.29 5.29 0 0 1 .7 2c-.06.66-.66 1.28-1.06 2a2 2 0 0 1 .23 2.25c-.36.84-1.1.92-1.92.92-4.34 0-8.68-.05-13-.07-1.18 0-1.43-.26-1.43-1.47 0-2.74.06-5.49 0-8.23a13.39 13.39 0 0 1 3.67-9.27 6.16 6.16 0 0 1 .6-.65 4.88 4.88 0 0 0 1.91-4.35 1.6 1.6 0 0 1 1.47-2 2.48 2.48 0 0 1 2.42 1.71c1 2.3.45 4.47-.53 6.61-.29.59-.52 1.16-.8 1.81zm-17.85 10.48v-6c0-1 .16-1.18 1.19-1.19h5c.82 0 1.19.34 1.17 1.16q-.12 6.24-.23 12.46c0 .64-.3.91-.92.91h-5.21c-.8 0-1.11-.35-1.1-1.13.09-2.12.09-4.12.1-6.21z"/><circle class="cls-11" cx="295.91" cy="302.45" r="6.35"/><g class="cls-18"><path class="cls-9" d="M150.49 308.32c0-.11-3.64-11.33-6.19-21.38l1.11-.28c2.54 10 6.13 21.2 6.16 21.31z"/></g><g class="cls-18"><path class="cls-9" d="M85.35 214.17l-.92-.68c.3-.4 7.77-10 44-21.23l.34 1.09C93 204.46 85.42 214.08 85.35 214.17z"/></g><g class="cls-18"><path class="cls-9" d="M148.77 213.06c-21.23 0-28-19.52-28.08-19.73l1.08-.36c.3.88 7.56 21.7 31.58 18.65 13.81-1.75 19.93-10.91 21.05-18.9l1.13.16c-1.18 8.41-7.59 18-22 19.87a37.24 37.24 0 0 1-4.76.31z"/></g><g class="cls-18"><path class="cls-9" d="M101.19 250.22c-.52-3.92-9.52-32.88-18-36.78a3.48 3.48 0 0 0-3.62.2l-.62-1a4.64 4.64 0 0 1 4.72-.28c9.37 4.3 18.28 34.73 18.68 37.67z"/></g><path class="cls-12" d="M242.64 305.43c1.2-2.81 1.76-7.82 2-13.07-.56 6.86-3.26 6.6-5.87 10.94-4.33 7.2-9.14 2.83-11.85-2.05s-1-8-5.85-8.86-16.27-40-16.27-40c1.72 9.13 1.51 49.42 3.47 56.1 6.2 2.06 2.93 2.71 10.18 5.93a56.39 56.39 0 0 0 10.61 3.13c5.06 1.09 9.14-1.69 13.58-12.12z"/><ellipse class="cls-12" cx="306.51" cy="122.59" rx="10.62" ry="41.53" transform="rotate(-45 306.508 122.59)"/><path class="cls-19" d="M292.24 108.32c6.25-2.4 19.73 4.81 19.86 4.88-15.58-15.08-31-24-35-20-3.27 3.27 2.14 14.25 12.54 26.7-1.71-6.52-1.24-10.1 2.6-11.58z"/><path class="cls-9" d="M307.51 108.93a9.39 9.39 0 0 0-1.4 1.15A9.13 9.13 0 0 0 319 123a8.48 8.48 0 0 0 1.15-1.4c-1.93-2.15-4-4.33-6.15-6.5s-4.33-4.25-6.49-6.17z"/><path class="cls-19" d="M316.16 144.83h.06zm11.02 6.52a1.89 1.89 0 0 1-.21-.09 1.89 1.89 0 0 0 .21.09zm-3.53-1.73l.19.1zm-3.65-2.16l.14.09zm10.11 4.96l-.2-.06zm-1.5-.49l-.14-.05zm2.74.79l-.21-.05zm3.16 0h-.08zm.8-.34l-.17.09zm24.97-74.96c-.76 8.29-4.58 15.48-10.66 17.07-8.08 2.11-17.08 4.79-15.39 13.28s-4.51 16.2-8.78 20.07c9 11.36 13.47 21.07 10.43 24.11a2.09 2.09 0 0 0 .23-.29c9.61-9.61-1.89-22.87 18.51-43.27 11.89-11.83 10.03-23.54 5.66-30.97zm-26.89 75.47zm-.81-.01z"/></g></g></svg>