<svg xmlns="http://www.w3.org/2000/svg" viewBox="0 0 443.34 329.6"><defs><style>.cls-1{fill:none}.cls-2{isolation:isolate}.cls-3{fill:#dff0ff}.cls-4{fill:#fff}.cls-5{fill:#2e9dff}.cls-6{fill:#4073bf}.cls-7{fill:#80ccff}.cls-17,.cls-19,.cls-20,.cls-22,.cls-24,.cls-8{mix-blend-mode:overlay}.cls-9{fill:#85cbf2}.cls-10{fill:#e88f80}.cls-11{fill:#213a6d}.cls-12{fill:#edb9ae}.cls-13{fill:#f1cabf}.cls-14{fill:#ffc9be}.cls-15{fill:#db806a}.cls-16{fill:#e68a78}.cls-17{fill:#0b1247;opacity:.34}.cls-18{fill:#050f8f}.cls-19,.cls-21,.cls-24{fill:#11175b}.cls-19,.cls-20{opacity:.25}.cls-22{opacity:.64}.cls-23{fill:#1d425b}.cls-24{opacity:.35}.cls-25{clip-path:url(#clip-path)}</style><clipPath id="clip-path"><path class="cls-1" d="M267.81 114.61c-7.36 9.11-18.23 38.1-20.59 49.86s-11.07 48.82-11.95 51.76a5.14 5.14 0 0 0 .18 3c2.32-1.91 4.08-1.64 9.08-1.05 10 1.17 17.2 3.33 23.38 7.45s17.35 16.46 28.23 17.64 30.11-7.95 40-10.88c8.85-2.63 17.64-4.35 26.46-2.43-2.79-9.79-25.57-27.43-36.46-42.56-15.35-21.33-26.1-67-27.57-69.69s-8.47-5.73-15.95-7.35c-7.62-1.65-14.81 4.25-14.81 4.25z"/></clipPath></defs><title>participant_step_3</title><g class="cls-2"><g id="Layer_3" data-name="Layer 3"><path class="cls-3" d="M20.22 217C-2.69 84.49 131.35 48.23 184 37.9c71.46-14 88.45-35.82 144.93-20.33 74.1 20.33 133.65 103 88.83 194.74-39.85 81.62-138.4 43.22-170.14 55.69-72.81 28.53-204.62 80.55-227.4-51z"/><path class="cls-3" d="M200.18 317.77c4.63 17.68 61.56 8.32 56.45-15.29-2-9.41-10.68-14.47-24.3-13.28-15.41 1.36-36.8 10.87-32.15 28.57z"/><path class="cls-4" d="M170 284.32c.18-25.24 1.11-48.23 3.45-58.22a1.2 1.2 0 0 0-2.34-.55c-2.46 10.5-3.42 33.73-3.6 59.08a4.15 4.15 0 0 1 2.49-.31z"/><path class="cls-4" d="M175.64 222.33c-.89 5-4.2 11.1-5.42 10.89s-2.28-7-1.39-12.09 4.51-14.93 6.1-14.65c1.43.25 1.61 10.79.71 15.85zm-10.42 21.91c3.07 3.63 5.4 9.58 4.52 10.32s-6.35-2.56-9.42-6.19-7.94-12.08-6.8-13 8.63 5.23 11.7 8.87zm15.32 8.96c-3.77 4.17-10.36 7.84-11.37 6.93s2-7.84 5.75-12 12.87-11.21 14.18-10-4.8 10.87-8.56 15.07zm1.27 27.94c-5 3.56-12.87 5.93-13.73 4.72S172 278 177 274.42s16.34-8.93 17.45-7.37-7.66 10.54-12.64 14.09z"/><rect class="cls-5" x=".93" y="25.51" width="182.61" height="50.31" rx="4.5" ry="4.5"/><rect class="cls-5" x="85.69" y="167.65" width="127.17" height="37.03" rx="3.48" ry="3.48"/><rect class="cls-4" x="17.63" y="39.21" width="22.9" height="22.9" rx="3.41" ry="3.41"/><rect class="cls-4" x="96.12" y="175.81" width="20.72" height="20.72" rx="3.41" ry="3.41"/><path class="cls-6" d="M182.92 292.05c-3.7-13.16-12.69-35.82-31.75-42.1-32-10.55-58.18 1.78-70.29 9.3a5.38 5.38 0 0 0 0 9.15c6 3.65 10.76 7.89 11.89 12.13 1.4 5.23 1.25 14.81 5.07 22.38 26.61 4.09 56.53-1.91 85.08-10.86z"/><path class="cls-7" d="M428.91 167.65c-3.1-4.64-16.23-2.84-16.23-9.9 0-3.16 10-35.12-9.64-35.23-19.38-.11-7.61 35.23-17.81 39.6-7 3-11.76-9.49-20.32-2.16-9.34 8 4.08 28.83.33 31.17-4.12 2.58-3.78-5.21-14.51-2.35-5.88 1.57-4.57 20.66-3.53 27.06s-4.31 4.31-14.47 3.92-8.27 27.05-1.51 42.73l10.6 2.76c29.54-4.13 58.4-17 75.95-52.94A152 152 0 0 0 428.91 182c-.68-4.52.71-13.28 0-14.35z"/><g class="cls-8"><path class="cls-9" d="M154.75 299.61c0-.12-2.73-11.85-16.5-22.9s-39.9-19.13-59.65-13.37l-.32-1.13c20.11-5.86 46.66 2.3 60.71 13.58s16.8 23.07 16.91 23.57z"/></g><path class="cls-10" d="M29.41 57.6a2.32 2.32 0 0 1-1.85-.91l-6.41-8.24a2.35 2.35 0 0 1 3.71-2.89l4.35 5.6 10.89-17.3a2.35 2.35 0 0 1 4 2.51L31.41 56.5a2.37 2.37 0 0 1-1.88 1.1z"/><rect class="cls-5" x="70.25" y="103.22" width="127.17" height="37.03" rx="3.48" ry="3.48"/><rect class="cls-4" x="80.68" y="111.38" width="20.72" height="20.72" rx="3.41" ry="3.41"/><path class="cls-10" d="M91.26 128.83a2.35 2.35 0 0 1-1.86-.91l-6.65-8.55a2.35 2.35 0 1 1 3.71-2.89l4.43 5.69 6.89-12.91a2.35 2.35 0 1 1 4.15 2.22l-8.6 16.11a2.35 2.35 0 0 1-1.87 1.23zm15.26 64.05a2.36 2.36 0 0 1-1.86-.9L98 183.42a2.35 2.35 0 1 1 3.71-2.89l4.43 5.7 6.86-12.91a2.35 2.35 0 0 1 4.15 2.21l-8.6 16.11a2.36 2.36 0 0 1-1.87 1.24z"/><path class="cls-11" d="M212.86 254.26s-14.25-2.35-31.11 6.66c-15.34 8.21-20.94 21-21.24 37.37a418.18 418.18 0 0 0 46.41-14.48 54 54 0 0 1-.9-13.48c.75-8.23 6.84-16.07 6.84-16.07z"/><path class="cls-4" d="M385.8 252.11h.11a.84.84 0 0 0 .44-1.11c-2.15-5-1.22-10.85 0-18.26 1.3-8.13 2.92-18.25.76-30.77-2.28-13.26-13.22-25.35-19.76-32.57-1.12-1.24-2.08-2.3-2.88-3.24-5-5.82-13.58-20.05-14.18-36.43a123.16 123.16 0 0 1 1-17.4c1-9.77 2-19-1.53-26.92a.84.84 0 0 0-1.54.68c3.35 7.51 2.39 16.52 1.38 26.06a124.62 124.62 0 0 0-1 17.65c.62 16.84 9.46 31.47 14.59 37.46.81.95 1.78 2 2.91 3.28 6.41 7.08 17.14 18.94 19.34 31.71 2.11 12.25.52 22.22-.76 30.23-1.23 7.67-2.2 13.74.15 19.19a.85.85 0 0 0 .97.44z"/><path class="cls-4" d="M372.1 206.65c5.65 3.95 14.54 6.54 15.5 5.17S383.07 203 377.43 199s-18.47-9.89-19.71-8.12c-1.11 1.64 8.74 11.82 14.38 15.77zm-1.76 28.86c4.34 5.35 12.17 10.29 13.47 9.24s-1.92-9.73-6.25-15.09-15-14.59-16.7-13.23c-1.52 1.22 5.14 13.72 9.48 19.08zM391.23 188c-3.58 5.89-5.6 14.92-4.17 15.79s8.52-5.08 12.1-11 8.68-19.06 6.83-20.18c-1.66-.96-11.18 9.53-14.76 15.39zm-48.97-49.71c3.35 3.85 9.27 7.3 10.21 6.49s-1.67-7.16-5-11-11.49-10.42-12.69-9.37 4.14 10.03 7.48 13.88zm-1.41-24.09c3.07 3.53 8.49 6.69 9.34 6s-1.52-6.56-4.59-10.08-10.52-9.53-11.63-8.57 3.81 9.12 6.88 12.65zM348 87.07c.4 4.09 2.68 9.11 3.67 9s2.24-5.47 1.83-9.56-2.7-12.18-4-12-1.93 8.49-1.5 12.56zm6 17.62c-3.11 3.5-5.54 9.28-4.7 10s6.3-2.35 9.4-5.85 8.1-11.66 7-12.63-8.63 4.99-11.7 8.48z"/><path class="cls-4" d="M355.18 132.78c-2.74 3.74-4.6 9.69-3.7 10.36s6-2.93 8.75-6.68 6.91-12.3 5.73-13.15-8.05 5.69-10.78 9.47zm11.33 26.03c-.81 5.6.58 13.06 1.94 13.26s4.79-6.58 5.6-12.17.41-17.17-1.34-17.43c-1.59-.22-5.4 10.75-6.2 16.34z"/><path class="cls-4" d="M358.06 174.68c5.39 1.68 13 1.49 13.39.18s-5.73-5.77-11.13-7.45-16.89-3.13-17.41-1.44c-.48 1.53 9.75 7.03 15.15 8.71zm31.75 61.86c-4 6.65-6.32 16.87-4.7 17.85s9.63-5.74 13.68-12.4 9.8-21.55 7.72-22.82c-1.89-1.17-12.65 10.71-16.7 17.37z"/><path class="cls-5" d="M362.59 260.64c-.49-16.18 4.61-30.3 13.63-33.24s10.36-2.55 12.43-3.72-5.38-20.78 1.29-27.57c9-9.21 14.9-1.05 18.82-2.23 7.84-2.35 1.65-18.58 8.23-28.62 4.85-7.4 12.09-10.81 17.74-12.38a6.83 6.83 0 0 1 8.64 6.66c-.07 10.72 2 24.1-7.4 45.15-12.15 27.31-35.45 44.86-49.17 51.14s-24.21 4.81-24.21 4.81z"/><rect class="cls-4" x="57.45" y="40.65" width="113.01" height="6.75" rx="2.7" ry="2.7"/><rect class="cls-4" x="57.45" y="52.27" width="50.21" height="6.75" rx="2.7" ry="2.7"/><rect class="cls-4" x="111.42" y="115.18" width="74.21" height="6.35" rx="2.7" ry="2.7"/><rect class="cls-4" x="126.24" y="179.1" width="75.27" height="6.75" rx="2.7" ry="2.7"/><path class="cls-11" d="M290.74 235.44c11.74 1.49 38.11 6.58 50.19 4.31 18.82-3.53 21.66-9.78 21.66-9.78l-37-11.78-85.18-4.19-5.1 3s-2 5.66 9.95 10.36c5.02 2.02 34.55 6.69 45.48 8.08z"/><path class="cls-12" d="M292.8 323.82c-.25-1.27-2.27-6.6-2.84-8.85-3.8-15.08-9.41-56.91-11.18-61.19-2.75-6.65-9.13-15.62-7.34-18.38s4.43-39.74 4.43-39.74L249.22 188c.11 30.78 1.37 45.49 3.75 56.23 1.52 6.83 23.76 69.6 24.83 75.3l-.66.3c-4 1.05-12.62 3.79-15.32 4.32-5.7 1.1-8.95 2.69-8.06 4.6.67 1.45 5.87 1.17 5.87 1.17l28 .16a5.2 5.2 0 0 0 5.17-6.26zm75.74-25.24S335 246.83 330.9 243.3s-11.18-13.72-11.18-13.72l-6.61-21.76-24.55 7.06c3.52 13.52 12.31 27.38 15.86 32.51s51.36 56.44 51.36 56.44c3.54 3.53.93 6.26-.38 9.46-3.82 9.31-10.9 12.76-10.51 16.19.2 1.8 7.34-1.35 8.75-1.88 5.31-2 20.48-17.2 21.56-20.24s-6.66-8.78-6.66-8.78z"/><path class="cls-13" d="M316.43 95.95v19.5l-11.29-5.08-.41-9.97 2.73-5.91 8.97 1.46z"/><path class="cls-12" d="M285.84 28.84c.18.91.33 12.23-.12 20.66a4.45 4.45 0 0 1-2.94 4l2.76 5.3 13.16.36V29.8z"/><path class="cls-14" d="M331.22 122.13l-8.34 18.8-127.62-57.55s-7.21-8.09-9.12-10.21c-2.46-2.73-11.33-10.12-11.33-10.12l15.23.82 13.19.55z"/><path class="cls-15" d="M325.17 135.78l-2.29 5.15-127.09-57.31-2.15-7.12 131.53 59.28z"/><path class="cls-16" d="M328.94 127.28l-3.77 8.5L193.64 76.5l6.03-2.41-2.26-6.09 131.53 59.28z"/><path class="cls-15" d="M331.22 122.13l-2.28 5.15L197.41 68l6.29-3.37 127.52 57.5z"/><path class="cls-16" d="M182.25 69.46s-3.73-3.11-5.19-4c-.71-.42-3-1.5-4.38-2.16a1.3 1.3 0 0 1-.69-1.67l.21-.46a1.28 1.28 0 0 1 1.68-.61c1.44.58 3.77 1.51 4.64 1.78 1.5.47 6.07 1.21 6.07 1.21l.55 3.65z"/><path class="cls-17" d="M195.26 83.38c10.26 1.5 11.48.4 15.69-.21 6.42-.92 9.25 1.71 13.91 5.1 7.25 5.26 17.5 9.15 22.51 7.89s12 1.47 18.28 8.81c11.27 13.25 35.31 19.14 47.05 19.71 5.48.26 15.66 3.92 15.66 3.92l-5.48 12.33z"/><path class="cls-16" d="M326.5 123.68h3.39a9.08 9.08 0 0 1 9.08 9.08v3.05a8.23 8.23 0 0 1-8.23 8.23h-4.24v-20.36z" transform="rotate(22.78 332.675 133.837)"/><path class="cls-18" transform="rotate(22.78 324.571 130.407)" d="M322.05 120.16h5.15v20.56h-5.15z"/><path class="cls-13" d="M210.39 90.12l20.27 21.14a5.52 5.52 0 0 0 7.08.56c4.89-3.5 13.21-9.71 17.21-14.19 4.53-5.08 15.9-23.72 15.9-23.72l-15-4.27s-8.11 15.3-11.64 17.77S233.38 102.5 230 99z"/><path class="cls-6" d="M267.81 114.61c-7.36 9.11-18.23 38.1-20.59 49.86s-11.07 48.82-11.95 51.76a5.14 5.14 0 0 0 .18 3c1.29-1.25 4.59-2.06 9.59-1.47 10 1.18 16.69 3.75 22.87 7.87s17.35 16.46 28.23 17.64 30.11-7.95 40-10.88c8.85-2.63 17.64-4.35 26.46-2.43-2.79-9.79-25.57-27.43-36.46-42.56-15.35-21.33-26.1-67-27.57-69.69s-8.47-5.73-15.95-7.35c-7.62-1.65-14.81 4.25-14.81 4.25z"/><path class="cls-19" d="M326.13 187.41c-15.35-21.33-26.1-67-27.57-69.69s-8.05-7.45-15.52-7.35a57.85 57.85 0 0 0 1.9 10.19c4.71 13-2.77 19.61 1.71 27.06s11 10.58 12.05 20-3.64 12.55 3 25.88 27.51 22.74 31 28.23a70.76 70.76 0 0 1 5.37 10.11c8.19-2.29 16.32-3.64 24.49-1.86-2.76-9.8-25.56-27.44-36.43-42.57z"/><path class="cls-12" d="M283.36 9.07c-3.67 3.69-7.11 5-7.77 13.16-.47 5.8 0 19 2.65 20.52 4.37 2.49 15.54-7 19.53-13.1C301 24.73 287.47 5 283.36 9.07z"/><path class="cls-6" d="M244.77 79.12a3.42 3.42 0 0 1 .41-4.36c4.36-4.35 14.65-14.47 17.73-16.53 3.94-2.62 13.63-4 19.74-4.77a27.05 27.05 0 0 0 10.81 4.77c3.56.66 7.26-.89 10.79.57 3 1.23 5.81 2.53 8.3 3.72a17.27 17.27 0 0 1 9.8 14.16s4.27 19.27.46 22.12c-5.06 3.79-14.23.39-14.23.39l-9.45 24.17s2.59-5.62-16.35-10.1c-9.22-2.19-15 1.35-15 1.35l-2.63-29.12-4.15 6.33a1.81 1.81 0 0 1-2.57.47 106.62 106.62 0 0 1-9-7.11 53.87 53.87 0 0 1-4.66-6.06z"/><g class="cls-20"><path class="cls-21" d="M308.58 99.19s9.17 3.4 14.23-.39c3.81-2.85-.46-22.12-.46-22.12a17.27 17.27 0 0 0-9.8-14.16c-2.49-1.19-5.34-2.49-8.3-3.72-3.53-1.46-7.23.09-10.79-.57a23.85 23.85 0 0 1-2.71-.67c-2.74 7.52-4.9 16.74 3.34 24S302.9 97 300.74 102s-12.29 7.55-13.89 8.75a8.76 8.76 0 0 0-2.83 2.82c16.77 4.23 15.3 9.3 15.13 9.76zm-9.43 24.13z"/></g><g class="cls-22"><path class="cls-4" d="M295.75 235.74c-6.22 0-9.64-3.72-13.9-8.36a68 68 0 0 0-8.24-7.94c-9-7.1-21.38-14.51-36.71-8.68l-.31-.83c15.74-6 28.35 1.57 37.57 8.82a68.26 68.26 0 0 1 8.34 8c4.55 5 7.83 8.53 14.47 8 5.95-.46 17.28-4.41 27.29-7.9 7.18-2.5 14-4.86 17.76-5.58 9-1.71 15-.06 15.28 0l-.24.85c-.06 0-6.08-1.66-14.88 0-3.73.71-10.48 3.06-17.63 5.56-10.06 3.5-21.45 7.47-27.52 7.94-.44.1-.86.12-1.28.12z"/></g><path class="cls-23" d="M277 10.68c-2.47 8.89 11.61 10.88 14.63 16.77 2.23 4.36-3.37 8.27 1.28 15.51 1.51 2.35 5.59 5.12 5.59 7.33s-9.71 16.45-5 24.26 18.52 2.59 21.17 9.36 1.44 17.1 16.6 21.22S362.47 108.3 377 91c12.64-15 12.84-39.3 3.68-45.28-18.13-11.82-31-.76-36-4.12-5.62-3.71 3.94-13.92-3.86-22.69-8.09-9.11-23.33-2.91-29.5-7.91-3.07-2.48-8.57-8-16.46-10-9.14-2.37-16.36 4.39-17.86 9.68z"/><path class="cls-4" d="M266 117.14c5.88 3.73 19.81 8.74 34.63 7.16-1.05-4.33.27-5.26.27-5.26s-12.77-1.18-16.87-2.13-16.46-4.91-16.46-4.91z"/><path class="cls-23" d="M259.63 329.87l28 .16a5.2 5.2 0 0 0 5.13-6.21c-.05-.29-.23-.89-.47-1.65-1.57 1.52-2.08 2.27-6.49 2.93-16.13 2.41-21.68-1.58-21.68-1.58-1 .24-1.76.46-2.34.58-5.7 1.1-8.95 2.69-8.06 4.6.71 1.45 5.91 1.17 5.91 1.17zm112.16-28.51c-2 4.06-4.91 9.4-7.34 12.49-2.86 3.65-9.21 9.56-14.66 8.34-2.77 3.23-5.13 5.27-4.9 7.29.2 1.8 7.34-1.35 8.75-1.88 5.31-2 20.48-17.2 21.56-20.24.59-1.65-1.44-4.11-3.41-6z"/><path class="cls-24" d="M380.72 45.73c-.82-.53-1.61-1-2.4-1.44 8.31 7.56 10 17.17 4.34 33.22-5.44 15.51-26.91 27.32-36.24 23.88s-4.35-17-17.48-24.89-17.81-1.81-20.94-10.83 6.66-15.09-2.36-21.69-6.64-9.67-6.49-19.28c.13-7.74-6.56-14.84-16.24-21.62a14.58 14.58 0 0 0-5.88 7.6c-2.47 8.89 11.61 10.88 14.63 16.77 2.23 4.36-3.37 8.27 1.28 15.51 1.51 2.35 5.59 5.12 5.59 7.33s-9.71 16.45-5 24.26 18.52 2.59 21.17 9.36 1.44 17.1 16.6 21.22S362.47 108.3 377 91c12.68-15 12.88-39.29 3.72-45.27z"/><g class="cls-25"><g class="cls-22"><path class="cls-9" d="M293.75 177.2a5.71 5.71 0 1 1 5.71-5.7 5.71 5.71 0 0 1-5.71 5.7zm0-10.53a4.83 4.83 0 1 0 4.83 4.83 4.83 4.83 0 0 0-4.83-4.83zm19.42 19.11a5.71 5.71 0 1 1 5.7-5.71 5.71 5.71 0 0 1-5.7 5.71zm0-10.53a4.83 4.83 0 1 0 4.82 4.82 4.83 4.83 0 0 0-4.82-4.82zm12.41-7.7a5.71 5.71 0 1 1 5.7-5.71 5.71 5.71 0 0 1-5.7 5.71zm0-10.53a4.83 4.83 0 1 0 4.82 4.82 4.83 4.83 0 0 0-4.82-4.84zm-47.92 40.06a5.71 5.71 0 1 1 5.7-5.71 5.71 5.71 0 0 1-5.7 5.71zm0-10.53a4.83 4.83 0 1 0 4.82 4.82 4.83 4.83 0 0 0-4.82-4.82zM306.45 157a5.71 5.71 0 1 1 5.71-5.71 5.71 5.71 0 0 1-5.71 5.71zm0-10.53a4.83 4.83 0 1 0 4.83 4.82 4.82 4.82 0 0 0-4.83-4.8zm34.86 36a5.71 5.71 0 1 1 5.71-5.71 5.71 5.71 0 0 1-5.71 5.71zm0-10.53a4.83 4.83 0 1 0 4.83 4.82 4.82 4.82 0 0 0-4.83-4.82zm-15.22 33.27a5.71 5.71 0 1 1 5.71-5.71 5.71 5.71 0 0 1-5.71 5.71zm0-10.54a4.83 4.83 0 1 0 4.83 4.83 4.83 4.83 0 0 0-4.83-4.83zm21.75 10.05a5.71 5.71 0 1 1 5.71-5.7 5.71 5.71 0 0 1-5.71 5.7zm0-10.53a4.83 4.83 0 1 0 4.82 4.83 4.84 4.84 0 0 0-4.82-4.83zm-49.31 11.02a5.71 5.71 0 1 1 5.7-5.71 5.71 5.71 0 0 1-5.7 5.71zm0-10.54a4.83 4.83 0 1 0 4.82 4.83 4.84 4.84 0 0 0-4.82-4.83zm21.78 49A5.71 5.71 0 1 1 326 238a5.71 5.71 0 0 1-5.69 5.67zm0-10.53a4.83 4.83 0 1 0 4.83 4.82 4.82 4.82 0 0 0-4.83-4.82zm-13.86-8.34a5.71 5.71 0 1 1 5.71-5.71 5.71 5.71 0 0 1-5.71 5.71zm0-10.53a4.83 4.83 0 1 0 4.83 4.82 4.82 4.82 0 0 0-4.83-4.82zm27.39 13.2a5.71 5.71 0 1 1 5.71-5.71 5.71 5.71 0 0 1-5.71 5.71zm0-10.53a4.82 4.82 0 1 0 4.82 4.82 4.83 4.83 0 0 0-4.82-4.82zm-40.09 21.99a5.71 5.71 0 1 1 5.71-5.71 5.71 5.71 0 0 1-5.71 5.71zm0-10.53a4.83 4.83 0 1 0 4.83 4.82 4.82 4.82 0 0 0-4.83-4.82zm-10.92-8.65a5.71 5.71 0 1 1 5.7-5.71 5.71 5.71 0 0 1-5.7 5.71zm0-10.53a4.83 4.83 0 1 0 4.82 4.82 4.83 4.83 0 0 0-4.82-4.82zM262 217a5.71 5.71 0 1 1 5.7-5.71A5.71 5.71 0 0 1 262 217zm0-10.53a4.83 4.83 0 1 0 4.82 4.82 4.83 4.83 0 0 0-4.82-4.83zm-24-.77a5.71 5.71 0 1 1 5.7-5.7 5.71 5.71 0 0 1-5.7 5.7zm0-10.53a4.83 4.83 0 1 0 4.82 4.83 4.84 4.84 0 0 0-4.82-4.83zm44.83-41.63a5.71 5.71 0 1 1 5.7-5.71 5.71 5.71 0 0 1-5.7 5.71zm0-10.53a4.83 4.83 0 1 0 4.82 4.82 4.83 4.83 0 0 0-4.82-4.83zm-23.96 10.53a5.71 5.71 0 1 1 5.7-5.71 5.71 5.71 0 0 1-5.7 5.71zm0-10.53a4.83 4.83 0 1 0 4.82 4.82 4.82 4.82 0 0 0-4.82-4.83zM247.29 174a5.71 5.71 0 1 1 5.71-5.7 5.72 5.72 0 0 1-5.71 5.7zm0-10.53a4.83 4.83 0 1 0 4.83 4.83 4.83 4.83 0 0 0-4.83-4.85zm51.24-26.39a5.71 5.71 0 1 1 5.7-5.71 5.71 5.71 0 0 1-5.7 5.71zm0-10.53a4.83 4.83 0 1 0 4.82 4.82 4.83 4.83 0 0 0-4.82-4.82zM270.56 170a5.71 5.71 0 1 1 5.71-5.7 5.71 5.71 0 0 1-5.71 5.7zm0-10.53a4.83 4.83 0 1 0 4.82 4.83 4.83 4.83 0 0 0-4.82-4.85zm-41.29 28.67a5.71 5.71 0 1 1 5.71-5.71 5.71 5.71 0 0 1-5.71 5.71zm0-10.53a4.83 4.83 0 1 0 4.83 4.82 4.82 4.82 0 0 0-4.83-4.82zm43.12-44.84a5.71 5.71 0 1 1 5.71-5.7 5.71 5.71 0 0 1-5.71 5.7zm0-10.53a4.83 4.83 0 1 0 4.83 4.83 4.83 4.83 0 0 0-4.83-4.83zM256.72 193a5.71 5.71 0 1 1 5.71-5.71 5.71 5.71 0 0 1-5.71 5.71zm0-10.53a4.83 4.83 0 1 0 4.83 4.82 4.82 4.82 0 0 0-4.83-4.82z"/></g></g><g class="cls-22"><path class="cls-4" d="M262.05 90.4c-4.28-1.91-14-10.3-17.19-19.53l1.11-.39c3.12 8.91 12.44 17 16.56 18.84z"/></g></g></g></svg>