<svg xmlns="http://www.w3.org/2000/svg" xmlns:xlink="http://www.w3.org/1999/xlink" viewBox="0 0 441.1 355.5"><defs><style>.cls-1{fill:none}.cls-2{isolation:isolate}.cls-3{fill:#dff0ff}.cls-4{fill:#fff}.cls-5{fill:#e88f80}.cls-6{fill:#2e9dff}.cls-7{fill:#80ccff}.cls-8{fill:#2468ff}.cls-9{fill:#85cbf2}.cls-10{fill:#050f8f}.cls-11,.cls-18,.cls-21,.cls-23,.cls-25{mix-blend-mode:overlay}.cls-12{fill:#f1cabf}.cls-13{fill:#edb9ae}.cls-14{fill:url(#linear-gradient)}.cls-15{fill:url(#linear-gradient-2)}.cls-16{fill:#3a50bb}.cls-17{fill:#4073bf}.cls-18,.cls-21,.cls-25{fill:#11175b}.cls-18{opacity:.25}.cls-19{fill:#1d425b}.cls-20{fill:#e68a78}.cls-21{opacity:.82}.cls-22{clip-path:url(#clip-path)}.cls-23{opacity:.55}.cls-24{fill:#90dbff}.cls-25{opacity:.17}.cls-26{fill:url(#linear-gradient-3)}.cls-27{fill:url(#linear-gradient-4)}</style><linearGradient id="linear-gradient" x1="-4583.95" y1="-681.7" x2="-4605.57" y2="-641.13" gradientTransform="rotate(110.1 -2629.506 1439.558)" gradientUnits="userSpaceOnUse"><stop offset="0" stop-color="#013c59"/><stop offset=".51" stop-color="#0a2c4f"/><stop offset="1" stop-color="#161843"/></linearGradient><linearGradient id="linear-gradient-2" x1="-1237.52" y1="672.61" x2="-1259.14" y2="713.18" gradientTransform="rotate(-4.01 -5540.515 -20737.622)" xlink:href="#linear-gradient"/><clipPath id="clip-path"><path class="cls-1" d="M308.39 157.25c-7.31 22.77-16 35.43-23.9 43.3s-28.68 29.81-28.68 29.81 10.12-6.75 20.25-2.25c8.3 3.69 29.21 26.7 43 26.71 19.68 0 25.87-9.84 35.15-10.68s28.68-.28 35.71-10.13c5.08-7.12 6.47-12.65 6.47-12.65s-15.92-6.92-25-12.65c-15.18-9.56-18.94-26.1-27.09-38.19-3.25-4.8-8.06-11.3-8.06-11.3s-11.25 1.4-16.31.84a64.62 64.62 0 0 1-11.54-2.81z"/></clipPath><linearGradient id="linear-gradient-3" x1="294.78" y1="315.55" x2="314.27" y2="315.55" xlink:href="#linear-gradient"/><linearGradient id="linear-gradient-4" x1="420.52" y1="220.46" x2="435.84" y2="220.46" xlink:href="#linear-gradient"/></defs><title>participant_step_5</title><g class="cls-2"><g id="Layer_3" data-name="Layer 3"><path class="cls-3" d="M177.36 84c39.54-15.5 107.92-95.95 180.71-57.79 93 48.74 129.77 245.31-50.24 312.69-140.22 52.49-276.7-29.24-279.7-111.73S81.37 121.44 177.36 84z"/><path class="cls-4" d="M223 331.17a1.18 1.18 0 0 0 1.12-.82c1.43-4.48 13-123.94 8.22-152.3a1.18 1.18 0 1 0-2.33.4c4.58 26.94-6.76 146.84-8.14 151.18a1.18 1.18 0 0 0 .77 1.49 1.49 1.49 0 0 0 .36.05z"/><path class="cls-4" d="M228.06 174.6c.57 5 3.46 11.18 4.68 11s2.66-6.78 2.09-11.8-3.52-15-5.1-14.79c-1.42.2-2.24 10.57-1.67 15.59zm8.94 22.18c-3.23 3.39-5.89 9.1-5.07 9.88s6.4-2.13 9.64-5.52 8.54-11.39 7.48-12.41-8.83 4.66-12.05 8.05zm-15.62 7.89c3.45 4.32 9.7 8.34 10.75 7.5s-1.48-7.83-4.93-12.15-12-11.81-13.32-10.73 4.05 11.05 7.5 15.38zm-2.95 27.4c4.69 3.8 12.3 6.61 13.22 5.48s-3.41-8-8.1-11.8-15.55-9.75-16.71-8.31 6.9 10.83 11.59 14.63zm-46.54 85.43h.11a.81.81 0 0 0 .79-.83c-.16-5.21 2.73-10.08 6.38-16.25 4-6.78 9-15.21 11.49-27.11 2.63-12.6-2.86-27.19-6.13-35.9-.57-1.5-1.05-2.79-1.43-3.9-2.39-6.93-5-22.6.18-37.38a118.05 118.05 0 0 1 7-15.13c4.35-8.32 8.46-16.19 8.1-24.48a.81.81 0 1 0-1.61.07c.34 7.86-3.68 15.54-7.92 23.66a118.16 118.16 0 0 0-7.1 15.34c-5.37 15.2-2.65 31.32-.19 38.45.39 1.13.88 2.43 1.44 3.94 3.22 8.55 8.6 22.86 6.07 35-2.43 11.64-7.35 19.94-11.3 26.61C174 306 171 311 171.17 316.72a.82.82 0 0 0 .72.78z"/><path class="cls-4" d="M175.68 272.25c3.64 5.49 10.63 10.92 12 10s-.92-9.44-4.55-14.94-13-15.28-14.68-14.14c-1.59 1.07 3.6 13.58 7.23 19.08zM164 297.3c2 6.29 7.2 13.43 8.72 12.95s1.72-9.33-.25-15.62-8.24-18.25-10.21-17.63c-1.8.56-.26 14 1.74 20.3zm35.23-34.89C194 266.39 189 273.72 190 275s9.36-1.53 14.61-5.51 14.42-13.91 13.17-15.55-13.3 4.48-18.55 8.47zM173.15 201c1.63 4.6 5.68 9.76 6.79 9.36s1-6.95-.59-11.55-6.56-13.29-8-12.78.18 10.33 1.8 14.97zm7.2-22c1.49 4.22 5.2 8.93 6.22 8.57s1-6.36-.54-10.57-6-12.18-7.33-11.71.16 9.54 1.65 13.71zm15.87-21.58c-1.07 3.78-.81 9 .1 9.3s3.91-4.08 5-7.85 1.88-11.79.69-12.12-4.72 6.89-5.79 10.67zm-.86 17.78c-4 2-8.19 6.3-7.7 7.27s6.43.11 10.42-1.9 11.3-7.53 10.66-8.78-9.4 1.39-13.38 3.41z"/><path class="cls-4" d="M186.57 200.6c-3.75 2.37-7.5 7-6.92 7.92s6.37-.49 10.12-2.87 10.46-8.51 9.72-9.69-9.17 2.27-12.92 4.64zm.93 27.14c-2.68 4.69-4.06 11.82-2.92 12.47s6.57-4.17 9.25-8.86 6.4-15.13 4.93-16-8.57 7.65-11.26 12.39z"/><path class="cls-4" d="M174.41 238.88c4.21 3.39 11 5.89 11.85 4.87s-3.07-7.15-7.28-10.54-13.92-8.71-15-7.4 6.23 9.68 10.43 13.07zm6.52 66.17c-5.93 4.5-11.54 12.79-10.45 14.23s10.58-1.73 16.52-6.23 16.29-15.72 14.88-17.58c-1.27-1.68-15.01 5.08-20.95 9.58zm106.18-43.13H287a.82.82 0 0 1-.69-.92c.74-5.15-1.59-10.32-4.54-16.86-3.23-7.18-7.26-16.11-8.4-28.21-1.21-12.81 5.87-26.71 10.09-35 .73-1.43 1.35-2.65 1.85-3.71 3.15-6.63 7.52-21.91 4-37.17a118.35 118.35 0 0 0-5.31-15.83c-3.4-8.76-6.61-17-5.33-25.23a.8.8 0 1 1 1.59.25c-1.21 7.77 1.93 15.85 5.24 24.4a117.26 117.26 0 0 1 5.35 16c3.65 15.7-.85 31.42-4.09 38.23-.51 1.08-1.14 2.32-1.87 3.75-4.14 8.14-11.08 21.77-9.92 34.11 1.12 11.84 5.08 20.64 8.27 27.71 3.05 6.78 5.46 12.13 4.66 17.75a.81.81 0 0 1-.79.73z"/><path class="cls-4" d="M288.38 216.52c-4.23 5.06-11.78 9.68-13 8.65s2-9.28 6.19-14.34 14.57-13.74 16.15-12.42-5.12 13.06-9.34 18.11zm8.84 26.2c-2.66 6-8.65 12.55-10.11 11.9s-.67-9.46 2-15.49 10.21-17.23 12.1-16.39c1.7.75-1.32 13.96-3.99 19.98zm-31.15-38.6c4.78 4.55 8.89 12.38 7.79 13.54s-9.13-2.56-13.91-7.1-12.78-15.42-11.35-16.92c1.28-1.35 12.69 5.94 17.47 10.48zM298.82 146c-2.13 4.39-6.73 9.05-7.79 8.54s-.26-7 1.87-11.41 8-12.48 9.38-11.82-1.34 10.26-3.46 14.69zm-4.72-22.62c-2 4-6.16 8.3-7.14 7.82s-.23-6.42 1.72-10.44 7.33-11.44 8.59-10.83-1.22 9.43-3.17 13.45zm-13.36-23.26c.64 3.88-.2 9.08-1.14 9.24s-3.43-4.49-4.08-8.36-.56-11.92.65-12.12 3.92 7.37 4.57 11.24zm-1.12 17.77c3.73 2.45 7.43 7.17 6.83 8.08s-6.4-.6-10.14-3-10.39-8.74-9.62-9.91 9.19 2.38 12.93 4.83z"/><path class="cls-4" d="M285.52 144.11c3.47 2.77 6.67 7.8 6 8.64s-6.27-1.2-9.74-4-9.45-9.63-8.58-10.71 8.86 3.29 12.32 6.07zM281.58 171c2.14 5 2.72 12.19 1.52 12.71s-6.07-4.87-8.21-9.83-4.68-15.74-3.12-16.42c1.4-.62 7.66 8.54 9.81 13.54z"/><path class="cls-4" d="M293.35 183.51c-4.56 2.9-11.62 4.62-12.32 3.52s3.85-6.77 8.41-9.67 14.8-7.11 15.71-5.68-7.24 8.93-11.8 11.83zm-13.84 65.03c5.4 5.14 10.05 14 8.81 15.3s-10.33-2.89-15.73-8-14.44-17.44-12.84-19.13c1.46-1.55 14.36 6.7 19.76 11.83z"/><path class="cls-5" d="M149.83 267.23c5.43-.51-1.27-9.82 8.54-10.85 6-.64 10 6.05 13.28 7s5.35-5.08 11.38-5 5.44 4.35 8.87 4.6 9-12.36 15.18-11.37 2.28 24.88 2.28 24.88-68.28 13.59-73.93 14.33-8-16.54-4.84-21.46c1.96-3.01 13.82-1.62 19.24-2.13z"/><path class="cls-5" d="M253.43 241.65c-6.51-4.83-.8-12-8.8-14.14s-9.88 13.47-14.79 14-1.29-6.61-6.71-6.85-9.85 13.75-12.56 15.73-5.7-5.47-11-4-3.8 12.52-6.8 13.59-6.56-4-11.82-1.34S182 276 182 276s120.53-9.2 119.7-11.51-12.93-15-16.77-20.66c-5.76-8.56-25.14 2.53-31.5-2.18z"/><path class="cls-6" d="M128.17 207.13a1.71 1.71 0 0 0-3-.57c-2.11 3.06-5 6.53-6.64 8.65-4.08 5.38-7.68 4.22-7.58 2.58.24-4.22 6.14-7 9.37-11.43a22.94 22.94 0 0 0 3-6.39 8 8 0 0 0-.52-6.28 101.55 101.55 0 0 0-7.57-11.6 1.75 1.75 0 0 0-3.09.6c-2.31 8.8-7.07 29.12-14.13 24.84-3.52-2.13 12.2-22.12 6.81-38.16-1.48-1.57-3-3.11-4.56-4.63a53.1 53.1 0 0 0-15.45-10.66 2.16 2.16 0 0 0-3.06 1.77c-.88 10-2.89 31-9.91 28-4.37-1.89 11.51-21.28 2.77-31.16-5-1-10.28-2.26-15.2-2.13a2.53 2.53 0 0 0-2.26 3.44c2.37 5.95 6.31 18.24 0 18.53-4.7.22-5.11-10.41-5.68-17.75a3.06 3.06 0 0 0-2.61-2.76c-9.16-1.52-15.39 1-16.35 2-2.79 2.77-1.9 7.76-2.89 12.89-.17.85-.36 1.71-.58 2.56a8.29 8.29 0 0 0 2.6 8.44 13.28 13.28 0 0 0 6.16 2.89c5.54.88 18 3.14 17.43 6.67-.45 2.87-4 4.45-10.65 3-4.21-.92-10.59-6.41-15.47-10.23a2.1 2.1 0 0 0-3.34 1.18 61.36 61.36 0 0 0-1.38 8.92 4.66 4.66 0 0 0 1.3 3.58 11.25 11.25 0 0 0 5.13 3.08c3.76 1 23.42 4 24.32 5.72 1.67 3.1-10.6 4-18 1.26a67.8 67.8 0 0 1-10.83-5.63 2.06 2.06 0 0 0-3 1.18c-1.29 4.09-1.72 9.32 3.36 15a16.06 16.06 0 0 0 7.41 1.62c5.65.11 24.34-.59 25.28 2.07s-10.78 4.96-16.36 3.69c-2.9-.66-9.06-1.62-13.81-2.32a1.79 1.79 0 0 0-2 2.33 25.91 25.91 0 0 0 7.88 11c1.29.63 32.67-5.68 32.6.37 0 3.91-11.9 3.52-15.55 3.08-2-.25-8.4.5-13.74 1.22a2.17 2.17 0 0 0-1.51 3.34 56.11 56.11 0 0 0 6.66 8.61c10.09 2.74 23.32-8.1 28-9.9 5.42-2.08 10.63-6 11.7-2.32S73 247 64.64 249a84 84 0 0 0-12.07 4.13 2.07 2.07 0 0 0-.29 3.65c7.6 4.86 15 6.08 18.67 6.06a3.62 3.62 0 0 1 2.49.95c2.84 2.64 10.19 7.2 19.29-4.29 9.33-11.78 1.91-21.15 4.79-22.54s9.91 13.44 22.77 1.15c9.02-8.62 10.83-19.47 7.88-30.98zm-51.72 52.53c1.36-4.28 6.51-14.4 10.09-10.63 5.46 5.75-10.09 10.63-10.09 10.63z"/><path class="cls-4" d="M307.83 338.9C407.91 301.44 441 224 434.63 154.32c-5.13 4-21.35-2.09-27.53-2.13-29.25-.19-29.59 27.13-50.34 28.12-65.24 3.08-36 65.23-67.49 78.73-24.62 10.55-60.16 0-90.19 2.7-26.22 2.38-57.14 37-92-6.92-17.21-21.65-53.43-32.34-78.93-27.65 2.98 82.49 139.46 164.22 279.68 111.73z"/><path class="cls-7" d="M360.9 254.82c-31.2 12.09-33.95 38.62-68.15 45.93-40.16 8.58-68.61-17.83-108.44-7.31-80.18 21.18-68.11-66.85-155.87-61.8 7.64 80.92 141.7 158.8 279.39 107.26 57.72-21.6 93.14-56.49 111.58-95.53-11.3 3.06-44.84 6.15-58.51 11.45z"/><path class="cls-6" d="M439.33 176.52c-3.52 1.38-8.07 3.1-10.13 3.63-3.61.94-11.27 1.65-11.47-1-.14-1.93 13-3.48 20.83-6.77a5 5 0 0 0 2.94-5.3 30.32 30.32 0 0 0-3-10.06c-2.73-5-3-9.5-4.57-13a2.81 2.81 0 0 0-3.79-1.36c-10 5-19.57 4.47-29.55 8.08a90.45 90.45 0 0 0-9.48 4 4.15 4.15 0 0 0-2.24 4.29c0 .15 0 .29.07.44.37 2.08 1.65 7.14 2.58 10.6s1.47 9.18-2 9.53c-2.75.28-4.41-10.36-4.26-18.56a1.66 1.66 0 0 0-2.61-1.4c-1.08.72-2.14 1.48-3.19 2.27a9.85 9.85 0 0 0-3.84 8.37 30.41 30.41 0 0 0 .64 5.21c1 4.31 4.69 19-.65 20.15-4.21.88-4.17-12-4.68-22.46a1.39 1.39 0 0 0-2.46-.81 68.09 68.09 0 0 0-8.64 13.29c-11 22 .72 27.21 12.15 34.54 3.72 2.38-.86 16.56 15 18.46 24.62 3 41-14.41 49.12-34.53a1.47 1.47 0 0 0-1.75-1.95c-1.13.29-2.28.59-2.72.74-5.47 1.84-25.64 4.79-25.76-2 0-1.72 10.07-.12 19.11-1.35a38.54 38.54 0 0 0 8.77-2.2 9.94 9.94 0 0 0 5.9-6.79 65.72 65.72 0 0 0 2.33-12.32 1.88 1.88 0 0 0-2.65-1.74zm-28.85 43.19c.34 1.41-7.08 4-10.48 2.7s-3.48-5.45-2-6.34 11.75.56 12.48 3.64zm-5-53.63c-4 .84-4.73-8.79-1.53-9.92s7.59 8.66 1.52 9.92z"/><circle class="cls-5" cx="418.34" cy="94.54" r="4.64"/><circle class="cls-8" cx="181.62" cy="59.17" r="2.32"/><circle class="cls-9" cx="240.27" cy="126.2" r="4.64"/><circle class="cls-9" cx="57.43" cy="254.82" r="4.64"/><circle class="cls-10" cx="282.68" cy="5.26" r="4.64"/><g class="cls-11"><path class="cls-9" d="M97.28 237.3c-.16-.11-16-11.13-21.72-26.81C68 189.77 55.5 177 32.2 154.33l.58-.61c22.74 22.11 36 35.63 43.57 56.48 5.65 15.42 21.25 26.3 21.41 26.4z"/></g><g class="cls-11"><path class="cls-9" d="M370.86 226.67l-.83-.16c2.85-15.11 20.27-34.66 37.11-53.57 9.17-10.3 18.66-20.95 25.67-30.75l.69.5c-7 9.83-16.54 20.5-25.73 30.81-16.77 18.83-34.1 38.29-36.91 53.17z"/></g><path class="cls-12" d="M135.73 89.9l-.14-4.05L132.71 72s-10.34-10.33 0-29.86 14.36-13.21 16.66-5.17 9.19 21.25 9.76 27-8.33 8.33-8.33 8.33l3.2 15.02z"/><path class="cls-13" d="M134.9 65.06c1.36 4-2.19 6.89-2.19 6.89l2.88 13.9.14 4.05L154 87.32l-3.2-15.08c-4.74-.24-13.06.39-15.9-7.18z"/><path class="cls-10" d="M264.4 246.75c11.6 8.08 25.72 10 25.72 10l4.49-28.08s-33.29-5.66-38.8 1.69c-3.81 5.06 0 10.4 8.59 16.39z"/><path class="cls-12" d="M434.77 226.62c-1.91-5.62-6.3-17-7.68-19.07-2.5-3.78-7 1.6-9 3-6.89 4.88-27.16 12.33-30.48 14.58S375 235.78 375 235.78l-11.65-10.63s-7.22.56-11.45 2.7a44 44 0 0 0-8.33 5.89c5.2 6.16 24.6 23.21 30.22 22.88s30.57-22.53 33-24.78c1.8-1.65 9-8 12.65-11.24a2.16 2.16 0 0 1 2.77-.07c6.56 5.27 8 13.07 11.06 14 3.41 1.06 2.89-3.82 1.5-7.91zm-122.91 74.45c-3-10.83-1.88-40.93-2.53-44.9a83 83 0 0 0-3.13-10.27 11.72 11.72 0 0 1 1-9.9l4.32-7.29a11.74 11.74 0 0 0-3.27-15.54l-11.86-8.47c-3.79 8-12.36 29.58-12.81 32.8-.41 2.91 16.93 54.85 19.87 65.22-1 9.65-9.18 19.79-8.61 23.22s5.15 2.32 8.12-2.81 10.29-11.67 11.15-14-1.69-6.06-2.25-8.06z"/><path class="cls-13" d="M39.45 307.87l-18.16 2.04-1.45-16.54 17.29-1.22 2.32 15.72z"/><path class="cls-14" d="M19.79 287l5.42 2.81a2.46 2.46 0 0 1 .78 3.71 14.75 14.75 0 0 0-3.1 8.71 9.36 9.36 0 0 0 2.23 6.77 1.54 1.54 0 0 1-.31 2.3c-2.54 1.72-7.26 5-8.88 7-2.27 2.77-3.34 6.28-6.15 9.7a7.76 7.76 0 0 1-7.35 2.71 2.2 2.2 0 0 1-1.6-2.92l14-39.21a3.27 3.27 0 0 1 4.96-1.58z"/><path class="cls-13" d="M229.94 325l3.46 17.95-16.38 2.75-2.57-17.14 15.49-3.56z"/><path class="cls-15" d="M213 351.16l.34-6.09a2.47 2.47 0 0 1 3.08-2.23 14.8 14.8 0 0 0 9.21-.72 9.4 9.4 0 0 0 5.22-4.78 1.55 1.55 0 0 1 2.23-.66c2.6 1.62 7.56 4.57 10 5.24 3.46.94 7.1.48 11.37 1.65a7.76 7.76 0 0 1 5.48 5.59 2.21 2.21 0 0 1-2 2.66s-13.71 2.22-20.58 2.86a200 200 0 0 1-20.94.36 3.26 3.26 0 0 1-3.41-3.88z"/><path class="cls-13" d="M98.92 172.4c1.1 2.91 3.2 8 4.18 10.14s3.58 10.24 2.53 10.48-2.61-4.22-3.36-5.35-1.52-2.38-1.76-2.72.45 6.17.9 8.37.89 9.29.33 10.59-1.19 1.65-1.51 1.34-.19-4.43-.46-5.57a55.91 55.91 0 0 0-2.07-6.58c-.33-.4-.53-.42-.53-.42s.49 5.52.67 6.58a35.91 35.91 0 0 0 .94 3.92c.34 1.09 1.33 3.52.64 4.29s-.81-.05-1.54-1.11-2.15-6.61-2.53-7.55-.67-5.41-1-5.66.29 6.13.52 7.76.3 3.57-.12 4.12-.93.11-1-.35-1.89-7.77-2-8.31-.35-2.52-.64-2.7.45 4.81.5 5.71a2.39 2.39 0 0 1-.36 1.8c-.26.21-.75-.5-1-2s-1.15-6.43-1.2-7.64-.9-5.06-1-7.32.92-6.42.43-8.12S86.5 166 86.5 166a17.24 17.24 0 0 1 6.08-1.47c3.67-.24 5.68-.17 5.68-.17s.38 7.32.66 8.04zM211.58 54.64c.51-5.37 3.1-16.54 3.18-17.15a22.91 22.91 0 0 1 .61-8.21 66.78 66.78 0 0 1 5.61-12c1-1.32 1.88-2.85 2.72-2.68.24 0-.15 2.55-.61 3.7-.83 2.09-2.41 4.53-2.75 5.63a3.93 3.93 0 0 0 .11 2.3 21.42 21.42 0 0 1 3.32-2.89 8 8 0 0 0 2-1.56s2.33-5.34 2.74-5.9S230 9.93 231 10.23s0 5.43-.28 6.47-1.24 4.74-1.24 4.74l-.48 1 .88-1.1a24 24 0 0 1 .76-3.19c.42-1.17.9-2.56.9-2.56s1.87-6 2.68-5.68c1.72.66-.46 5.87-.59 6.77s-2.06 7.27-2.17 7.71.38.61.38.61a13.27 13.27 0 0 1 1-2.87 9.51 9.51 0 0 0 .82-2 20.32 20.32 0 0 1 1.22-4.2c.82-1.72 1.64-1.61 1.82-1.2s-1 5.07-1.25 6.18-.83 3.56-.83 3.56 1.78-3.81 2.5-3.17-1.24 4.73-1.29 5.11-1.89 3.56-2.16 4.14-2.21 4.13-2.64 4.84-2.38 3.31-3.35 4.79a18 18 0 0 1-2.56 2.82l-2.7 13.82z"/><path class="cls-12" d="M416.75 165c-1.62-2.29-3.36-2.77-5.49-2.17a63.27 63.27 0 0 1-8.06 1.7c-1.34.06-1-.28-1.6-1.36s-4-8.36-4-8.36a15.25 15.25 0 0 0-4.81 1.38c-2.57 1.21-3.15 2-3.15 2s6.25 12.28 7.15 13 4.41 2.35 5.57 2.17a27.39 27.39 0 0 0 4.71-1c.71-.38 2.45-.67 2-1.19-.63-.75-3.77.12-4-.15s4.84-1.43 5.4-1.53a4.73 4.73 0 0 1 2.7.78c.79.56 2.8 2.35 3.13 2s.21-.67-.31-1.35a9.82 9.82 0 0 0-2.64-2.54c-.86-.36-2.73-.57-2.87-.79s-.13-.1.2-.17a10.83 10.83 0 0 1 3.64.46 24.13 24.13 0 0 1 2 2.41c.54.64 1.14 1.31 1.36 1.1.53-.5-.23-1.65-1.09-2.9s-1.33-1.85-2.23-2.23.06-.59 1.2.57c1.47 1.48 2.18 3.31 2.49 3.12s.33-.71-.2-1.55a21 21 0 0 0-1.53-2.37 15.18 15.18 0 0 0-2.05-2 3.93 3.93 0 0 1 1.65 1c.58.5.92.07.83-.03z"/><path class="cls-16" d="M119.3 195.12c-6.19 11.44-30.46 79.49-31 87.08-10.12-.28-18.3 1.46-25.59 2.53-9.78 1.44-28.79 7.85-28.79 7.85A13.84 13.84 0 0 0 32.5 302c1.13 4.5 5 11.42 5 11.42s60-3.36 64-3.74a13.14 13.14 0 0 0 9.37-5.25c2.06-2.81 20.4-28.7 26.43-39.93 8.07-15 18.56-42 18.56-42z"/><path class="cls-12" d="M260.05 49.65s7.42 47 9.49 50.77 32 10.71 32 10.71l2.23-16.4s-21.08-5.18-22.58-5.18-12.65-43.69-12.65-43.69zm91.65 58.77c10.92 3.08 30.05 11.62 32.78 13.32S398.43 158 398.43 158l-6.78 4s-8.19-15.37-10.24-18.44-4.78-9.9-4.78-9.9l-24.93-8.2z"/><path class="cls-17" d="M297.57 92.08A173 173 0 0 0 315.63 96c6.05.88 9.8 1.28 11.95 1.82a112.88 112.88 0 0 1 14.48 5.86c8.34 4.07 17.77 7.53 17.77 7.53a23.09 23.09 0 0 1 0 9.41 35.73 35.73 0 0 1-2.88 8.31l-9.87-1.93a4.79 4.79 0 0 0-5.43 3.11 60.77 60.77 0 0 0-3.43 15.08c-.33 4.67-2.25 14.06-2.25 14.06s-9.71 1.63-14.73.95a130.25 130.25 0 0 1-13.11-2.92s-.19-13.13-.56-16.31-.94-7.13-.94-7.13-3.56-4.72-3.56-7.61c0-1.74 1.06-5.66 1.9-8.48a3.11 3.11 0 0 0-2.33-3.94l-8-2.37a42 42 0 0 1 .57-10.82 60.16 60.16 0 0 1 2.36-8.54z"/><path class="cls-17" d="M308.39 157.25c-7.31 22.77-16 35.43-23.9 43.3s-28.68 29.81-28.68 29.81 10.12-6.75 20.25-2.25c8.3 3.69 29.21 26.7 43 26.71 19.68 0 25.87-9.84 35.15-10.68s28.68-.28 35.71-10.13c5.08-7.12 6.47-12.65 6.47-12.65s-15.92-6.92-25-12.65c-15.18-9.56-18.94-26.1-27.09-38.19-3.25-4.8-8.06-11.3-8.06-11.3s-11.25 1.4-16.31.84a64.62 64.62 0 0 1-11.54-2.81z"/><path class="cls-13" d="M325.43 84.67l-3.61 15.5 7.78 3.22 5.69-2.52 2.63-17.16-12.49.96z"/><path class="cls-12" d="M327.86 60.74c-2.74 2.66-11.63 24.54-6.69 29.3 3 2.89 11.28.94 15.93-3.11 7-6.14 10-15.11 9.8-21.15s-13.18-10.71-19.04-5.04z"/><path class="cls-13" d="M317.42 96.19c-.46 7.14 2.27 11.54 6.66 13 7.88 2.55 15.56-6.63 15.56-6.63l-9.31-5.58z"/><path class="cls-18" d="M354.23 244.14c9.28-.85 28.68-.28 35.71-10.13 5.08-7.12 6.47-12.65 6.47-12.65s-15.92-6.92-25-12.65c-15.18-9.56-18.94-26.1-27.09-38.19-3.25-4.8-8.06-11.3-8.06-11.3s-5.72.71-10.84.92c4.08 6.52 10.79 10 12 17.92 1.41 9.56-4.25 16-2 24.46S347.2 218 347.2 225.3c0 5-7.83 18.79-12.83 27.12 8.63-2.97 13.55-7.71 19.86-8.28z"/><path class="cls-5" d="M137 93.3c-17.12 3.19-59.24 23.81-60.36 29.81-.66 3.49.18 11.25 3 23.06s7.73 28.12 7.73 28.12l12.09-3s.42-19.54-.14-26.85a68 68 0 0 0-2.25-12.94l37.12-15.18z"/><path class="cls-12" d="M262.4 62c-1.69-4-2.75-12.13-3.28-14.68a74.07 74.07 0 0 1-.75-9.37c-.13-2.79.47-5.59 1-5.83s.76-.15.73.55a56.82 56.82 0 0 0 .17 6.13c.22 1.45.09 1.92.42 1.9s.57-5.15.62-6.56a44.57 44.57 0 0 1 .69-5.24c.2-.87.65-1.37 1.12-1.21s.15 3 .21 4.09.13 6.21.13 6.78-.2 1.26.08 1.33.47-3.85.55-5.2.79-6.54 1.2-7.11 1.56-.19 1.3 1.5-.47 6.9-.53 8.09-.2 2.41.11 2.73.71-6 1-7.49.53-3.15 1-3.41.65.56.66 1.54-.13 9 0 10.07 1.16 5 1.69 5.27.83-.94.86-2.59a12.62 12.62 0 0 1 .58-4.55c.52-1.08.94-1.83 1.15-1.52s0 2.93.31 4a13 13 0 0 1 0 4.78c-.3 1.19-2.6 5.95-2.4 7.18s.35 5.73.78 6.53-9.13 2.92-9.4 2.29z"/><path class="cls-19" d="M401.28 9.92C373.82-.6 363.69 31.51 360.5 34.18c-2.71 2.27-4.3-1-7.88 1.65-6.89 5.18-2.71 9.46-7.77 11.8-7.73 3.57-8.9-.42-16.77 2.95-5.67 2.42-6.22 13.08-3.29 15.42 0 0 11.53-2.52 13.55 4.26 1.05 3.52-1.07 6.25-.42 7s2.73-.81 3.77 1.17c.17 3.33-1.8 4.08-3.16 4.31-.78 1.3-1.21 4.91-1.21 4.91s2.77 1.5 7.49.34c6.65-1.64 7.71-5.34 11.95-6.47 2.43-.64 7.11 2.92 15-.56 5.6-2.48 8.32-14.84 11.2-16.1 5-2.18 6.41 2.1 13.45-1 6.37-2.86 6.52-9.54 10.5-10.45 11.09-2.6 18.73-34.15-5.63-43.49z"/><path class="cls-20" d="M241 340.52l-.55-1c1.79-1 6.63-4.64 6.51-5.57-.26-.31-.47-.4-.64-.35-1 0-2.9 1.87-5.59 5.5l-.95-.58c.35-.75 2.81-8.08.3-10.5-.51-.49-.75-.28-.89-.16-1.41 1.23-2.09 8 .33 11.32l-.9.67c-2.67-3.64-2.08-11.16-.17-12.84a1.68 1.68 0 0 1 2.41.2c2.06 2 1.56 6 .87 8.78 2-2.42 3.43-3.49 4.57-3.51a1.94 1.94 0 0 1 1.53.81 1.12 1.12 0 0 1 .2.94c-.37 2.17-6.94 6.25-7.03 6.29zM16.49 326a1.15 1.15 0 0 1-.7-.24c-1.77-1.32-2.62-9-2.63-9.09l1.13-.06c.12 2 1.34 8 2.22 8.27a.76.76 0 0 0 .59-.43c.43-.93-.44-3.42-2.56-7.41l.94-.62c.53.65 6.08 6 9.34 4.81.67-.25.58-.55.53-.73-.5-1.81-6.33-5.35-10.35-4.59l-.22-1.1c4.44-.84 11 2.94 11.66 5.38a1.68 1.68 0 0 1-1.22 2.09c-2.68 1-6.08-1.17-8.3-3 1.32 2.86 1.68 4.6 1.21 5.64a1.93 1.93 0 0 1-1.41 1.06z"/><path class="cls-21" d="M115.16 204.37a39 39 0 0 0 9 17.93c8.24 9.75 10.12 9 4.87 21.74-3.48 8.46 1 20.23 4.34 27.19 1.58-2.54 2.95-4.86 4-6.75 8.07-15 18.56-42 18.56-42l-36.63-27.36c-.98 1.81-2.42 5.05-4.14 9.25z"/><path class="cls-16" d="M116.12 184c-.25 9.06-.57 26.32 10.81 34.37 16.68 11.81 69 25.5 70.3 25.87s.76 7.3.29 17.37c-.6 13.12 9.64 46 10.39 52.37s2.31 15.55 2.31 15.55 9.13 0 15.31-2.62a18.43 18.43 0 0 0 6.17-4.12s-2.8-60.73-2.61-66.55 1.69-26.06-.74-32.25-37.12-22.3-49.12-26.62a169.77 169.77 0 0 1-20.43-8.81l-1.32-4.56z"/><path class="cls-5" d="M133.78 83.71l20.66-3.24a18.12 18.12 0 0 1 .7 5.35c1.5 1.5 8.34 3.57 13.4 13.69 4.26 8.5-2.88 63.75-5.27 81.2a6.4 6.4 0 0 1-6.05 5.53c-7.52.36-20.78.95-24.48.81-3.33-.11-10.58-1.67-15.43-2.78a4.82 4.82 0 0 1-3.6-5.89c2.36-9.28 7.35-29.52 7.78-35.94.56-8.44 1-29.81 3.66-37.32 3.84-10.86 9.74-16.7 9.74-16.7z"/><g class="cls-11"><path class="cls-9" d="M222 328c-.08-.44-8.5-44.32-9.44-55.19-1-11.65 1.2-18.7 3.23-23.53 1.42-3.37.38-4.78-1.19-6.9a20.63 20.63 0 0 1-2.46-4 6.32 6.32 0 0 1-.42-4.93c.31-1.08.5-1.74-1.34-3.36-3.7-3.26-38.74-17.34-54.57-19.87-16.81-2.67-19.89-13.22-20.64-23.12l.83-.1c.72 9.61 3.65 19.77 19.9 22.37 15.93 2.54 51.26 16.77 55 20.07 2.09 1.84 2 2.82 1.59 4.22a5.46 5.46 0 0 0 .38 4.36 20 20 0 0 0 2.37 3.86c1.62 2.19 2.89 3.92 1.29 7.72-2 4.75-4.17 11.67-3.17 23.14.94 10.82 9.34 54.66 9.43 55.1z"/></g><g class="cls-11"><path class="cls-9" d="M44.71 313.21c-3.27-5-6.53-16.12-5.67-22.48l.83.11c-.83 6.19 2.36 17.05 5.55 21.91z"/></g><path class="cls-9" d="M212.52 323.44a13.61 13.61 0 0 1-3.46-.42l.15-.54c6.77 1.79 17-3 22.06-6.17l.3.48c-1.22.76-10.91 6.65-19.05 6.65z"/><g class="cls-22"><g class="cls-23"><path class="cls-24" d="M330.67 212.31a5.46 5.46 0 1 1 5.46-5.45 5.46 5.46 0 0 1-5.46 5.45zm0-10.07a4.62 4.62 0 1 0 4.61 4.62 4.62 4.62 0 0 0-4.61-4.62zm18.56 18.28a5.46 5.46 0 1 1 5.46-5.46 5.46 5.46 0 0 1-5.46 5.46zm0-10.07a4.61 4.61 0 1 0 4.62 4.61 4.62 4.62 0 0 0-4.62-4.61zm11.87-7.37a5.46 5.46 0 1 1 5.46-5.45 5.46 5.46 0 0 1-5.46 5.45zm0-10.07a4.62 4.62 0 1 0 4.62 4.62 4.62 4.62 0 0 0-4.62-4.63zm-45.82 38.31a5.46 5.46 0 1 1 5.45-5.46 5.47 5.47 0 0 1-5.45 5.46zm0-10.07a4.62 4.62 0 1 0 4.61 4.61 4.62 4.62 0 0 0-4.61-4.61zM342.81 193a5.46 5.46 0 1 1 5.46-5.45 5.46 5.46 0 0 1-5.46 5.45zm0-10.07a4.62 4.62 0 1 0 4.62 4.62 4.62 4.62 0 0 0-4.62-4.61zm33.34 34.42a5.46 5.46 0 1 1 5.46-5.46 5.47 5.47 0 0 1-5.46 5.46zm0-10.07a4.61 4.61 0 1 0 4.61 4.61 4.62 4.62 0 0 0-4.61-4.61zm-14.55 31.81a5.46 5.46 0 1 1 5.45-5.46 5.47 5.47 0 0 1-5.45 5.46zm0-10.07a4.62 4.62 0 1 0 4.61 4.61 4.62 4.62 0 0 0-4.61-4.63zm20.79 9.61a5.46 5.46 0 1 1 5.46-5.46 5.47 5.47 0 0 1-5.46 5.46zm0-10.07a4.62 4.62 0 1 0 4.61 4.61 4.62 4.62 0 0 0-4.61-4.61zm-47.16 10.53a5.46 5.46 0 1 1 5.46-5.46 5.47 5.47 0 0 1-5.46 5.46zm0-10.07a4.62 4.62 0 1 0 4.62 4.61 4.62 4.62 0 0 0-4.62-4.63zM320.22 253a5.46 5.46 0 1 1 5.46-5.46 5.47 5.47 0 0 1-5.46 5.46zm0-10.07a4.62 4.62 0 1 0 4.61 4.61 4.62 4.62 0 0 0-4.61-4.61zm-19.93 7.43a5.46 5.46 0 1 1 5.46-5.46 5.47 5.47 0 0 1-5.46 5.46zm0-10.07a4.62 4.62 0 1 0 4.62 4.61 4.62 4.62 0 0 0-4.62-4.61zm-22.94-.72a5.46 5.46 0 1 1 5.46-5.46 5.47 5.47 0 0 1-5.46 5.46zm0-10.07a4.61 4.61 0 1 0 4.61 4.61 4.62 4.62 0 0 0-4.61-4.61zm42.87-39.82a5.46 5.46 0 1 1 5.46-5.45 5.46 5.46 0 0 1-5.46 5.45zm0-10.07a4.62 4.62 0 1 0 4.61 4.62 4.62 4.62 0 0 0-4.61-4.62zm-22.91 10.07a5.46 5.46 0 1 1 5.45-5.45 5.46 5.46 0 0 1-5.45 5.45zm0-10.07a4.62 4.62 0 1 0 4.61 4.62 4.62 4.62 0 0 0-4.61-4.62zm-11.07 29.63a5.46 5.46 0 1 1 5.46-5.46 5.47 5.47 0 0 1-5.46 5.46zm0-10.07a4.61 4.61 0 1 0 4.61 4.61 4.6 4.6 0 0 0-4.61-4.61zm48.99-25.23a5.46 5.46 0 1 1 5.46-5.45 5.46 5.46 0 0 1-5.46 5.45zm0-10.07a4.62 4.62 0 1 0 4.62 4.62 4.62 4.62 0 0 0-4.62-4.62zm-26.74 41.54A5.46 5.46 0 1 1 314 200a5.47 5.47 0 0 1-5.51 5.41zm0-10.07a4.62 4.62 0 1 0 4.61 4.66 4.62 4.62 0 0 0-4.61-4.66zM269 222.77a5.46 5.46 0 1 1 5.45-5.45 5.46 5.46 0 0 1-5.45 5.45zm0-10.07a4.62 4.62 0 1 0 4.61 4.62 4.62 4.62 0 0 0-4.61-4.62zm41.24-42.87a5.46 5.46 0 1 1 5.46-5.46 5.47 5.47 0 0 1-5.46 5.46zm0-10.07a4.61 4.61 0 1 0 4.61 4.61 4.62 4.62 0 0 0-4.61-4.61zm-14.98 67.66a5.46 5.46 0 1 1 5.45-5.46 5.47 5.47 0 0 1-5.45 5.46zm0-10.07a4.62 4.62 0 1 0 4.61 4.61 4.62 4.62 0 0 0-4.61-4.61z"/></g></g><path class="cls-4" d="M307.37 160.33a42.93 42.93 0 0 0 14.31 3.31c5.67.16 15.44-3.22 15.44-3.22l-.55-4.31s-10 2.33-16 2.26a40 40 0 0 1-12.46-2.37z"/><path class="cls-25" d="M168.54 99.51c-5.06-10.12-11.9-12.19-13.4-13.69a18.12 18.12 0 0 0-.7-5.35l-20.66 3.24 1.11 4.71s-5.9 5.84-9.74 16.7c-2.65 7.51-3.1 28.88-3.66 37.32-.43 6.42-5.42 26.66-7.78 35.94a4.82 4.82 0 0 0 3.6 5.89c2.4.55 5.39 1.21 8.21 1.75-1-15.38-.32-20.38 8.4-24 10.25-4.23 14.19-5.94 13.63-16.61s3.11-17.09 8.3-19.23c3-1.23 9.12-4.35 13.8-6.79.45-9.57.26-17.15-1.11-19.88z"/><path class="cls-5" d="M196.56 76c-2.93 2.3-41.11 12.88-45.18 15.53s-15.07 7.06-12.09 18.36c2.36 9 10.83 9 17.44 8.29s30.1-10.41 35.06-13.59 16.71-8.65 19.28-11.82S228 45.28 228 45.28l-13.9-4.18s-6.11 12-10 20.06c-3.01 6.19-7.54 14.84-7.54 14.84z"/><g class="cls-11"><path class="cls-4" d="M226.51 49.73c-.11 0-11-3.31-14.36-4.75l.23-.51c3.28 1.42 14.18 4.69 14.29 4.73z"/></g><g class="cls-11"><path class="cls-4" d="M86.44 170.81l-.3-.48c4.18-2.64 13-3.83 13.38-3.88l.07.56c-.09-.01-9.07 1.22-13.15 3.8z"/></g><path class="cls-19" d="M123.14 45c-3.83-6.32 2.11-10.53 7.27-14.55s11.49-11.1 15.32-11.68 8.61 10.53 2.87 15.8-14.55 12.73-14.74 16 1.34 6.89 1.53 7.47-4.4.76-3.44 3.64 4.59 2.1 5.55 3.63-2.42 7.69-4.37 8.73-13.5-10.5-14.27-18.73S123.14 45 123.14 45z"/><g class="cls-11"><path class="cls-9" d="M298 112.53c-.87-5.16.93-15.1 3-19.62l.5.24c-2 4.44-3.82 14.22-3 19.29z"/></g><g class="cls-11"><path class="cls-9" d="M353.06 129.14l-.47-.31a33.6 33.6 0 0 0 4.71-18.5h.56a34.22 34.22 0 0 1-4.8 18.81z"/></g><g class="cls-11"><path class="cls-9" d="M325.21 112.81a9.08 9.08 0 0 1-2.49-.32c-5.81-1.67-8.59-7.62-7.62-16.33l.56.06c-.94 8.41 1.69 14.14 7.22 15.73 5.84 1.68 16.36-4.13 18.69-8.21l.49.28c-2.17 3.78-10.63 8.79-16.85 8.79z"/></g><g class="cls-11"><path class="cls-9" d="M319.08 248.35c-6.43 0-15.89-8.07-24.23-15.19-2.76-2.35-5.37-4.58-7.68-6.35-.45-.35-.92-.71-1.38-1.08-5.79-4.54-12.38-9.73-22.59-2.73l-.32-.46c10.55-7.18 17.3-1.9 23.25 2.76l1.39 1.08c2.32 1.78 4.93 4 7.69 6.36 8.27 7.06 17.65 15.06 23.87 15.06 9.76 0 14.28-2.46 19.07-5.06a42.77 42.77 0 0 1 10.1-4.32c2.18-.58 6.38-.77 11.26-1 7.43-.34 15.85-.72 19.11-2.63 7.68-4.49 12.87-15.5 12.92-15.61l.51.23c-.06.11-5.31 11.29-13.15 15.87-3.38 2-11.87 2.36-19.37 2.7-4.64.22-9 .42-11.13 1a42.71 42.71 0 0 0-10 4.27c-4.84 2.61-9.4 5.1-19.32 5.1z"/></g><path class="cls-26" d="M312.71 303.14c-1 2.77-5.44 8.48-8.54 13.41s-8 4.31-6.25.48c-1.75 4-3.41 7.06-3.1 8.91.59 3.53 5.15 2.32 8.12-2.81s10.29-11.67 11.15-14c.62-1.68-.49-4-1.38-5.95z"/><path class="cls-27" d="M434.77 226.62c-1.91-5.62-6.3-17-7.68-19.07-1.73-2.61-4.43-.85-6.57.93 6.34 5.55 8.9 13.81 9.91 16.84 1.13 3.35-2.2 2.48-2.2 2.48 2 3.33 3.24 6.2 5 6.74 3.45 1.05 2.93-3.83 1.54-7.92z"/></g></g></svg>