<svg xmlns="http://www.w3.org/2000/svg" viewBox="0 0 410.48 339.61"><defs><style>.cls-1{isolation:isolate}.cls-2{fill:#dff0ff}.cls-3{fill:#80ccff}.cls-4{fill:#e88f80}.cls-5{opacity:.38}.cls-12,.cls-14,.cls-5,.cls-7{mix-blend-mode:overlay}.cls-6{fill:#fff}.cls-7{fill:#11175b;opacity:.25}.cls-8{fill:#2e9dff}.cls-9{fill:#f1cabf}.cls-10{fill:#4073bf}.cls-11{fill:#1d425b}.cls-12,.cls-14{fill:#0b1247}.cls-12{opacity:.34}.cls-13{fill:#85cbf2}.cls-14{opacity:.49}.cls-15{fill:#45adff}.cls-16{fill:#edb9ae}.cls-17{fill:#e7e586}</style></defs><title>participant_step_2</title><g class="cls-1"><g id="Layer_3" data-name="Layer 3"><path class="cls-2" d="M31.78 263.36c17.21 24.18 72.8 75.28 72.8 75.28s85.54-.08 121.94 0c58.48.17 237.05-48.56 113.86-208.45C307.43 87.45 262-11.19 122 9.52-56.57 35.93 5.65 226.65 31.78 263.36z"/><path class="cls-3" d="M226.52 338.67c51.25.15 194.71-37.26 146.5-154.13-4.06-9.84-15.22-15.94-16.67 8.12s8 60.47-10.06 73.8c-19.91 14.71-31.06-16-62.38 0-17.21 8.81-46.47 63.68-98.87 44.6l2.12 27.56c15.01.01 29.13.02 39.36.05zM175.88 59.08c.67-16.88 6.12-35.26 12.94-50.16-19.54-3-41.64-3.13-66.82.6C4.41 26.91-8.76 115.55 3.41 184.54c12-31.52 45.81-22.79 61.78-35.19 18.23-14.16 13.15-36.68 39.33-47.81s70.09-9.9 71.36-42.46z"/><path class="cls-4" d="M58.85 315.31c-17.74-14.62-42.21-4-43.56-15.24-.93-7.78 18.11-5.61 17.74-7.78-1.56-9-30.66-7.34-30.94-15.51-.51-15 30.38-3.26 31.56-8.13 2.18-9-36.78-26.44-31.77-40.13s25.41 8 33 .07c6.54-6.83-3.77-26.63-4-48.91-.22-18.06 5.89-36.9 17.73-37.81 10.86-.83 1.25 45.61 9.26 46.76 2.49.36 9.16-18.47 16.56-15.95 16 5.44-16.49 38.42-1.87 50.88 3.41 2.9 18.81-7.44 26.76-2.82s5.29 25.2 2.18 35.47S83.11 306 83.11 306z"/><g class="cls-5"><path class="cls-6" d="M72.84 310C45.35 259.84 37.29 168.38 48 141.64l1.16.47c-10.63 26.53-2.58 117.4 24.78 167.31z"/></g><path class="cls-7" d="M99.29 220.74c-8-4.62-23.35 5.72-26.76 2.82-14.62-12.46 17.86-45.44 1.87-50.88-7.4-2.52-14.07 16.32-16.56 15.95a1.77 1.77 0 0 1-.46-.15c-3.47 8.46-6.38 16.52-7.24 21.61-2.58 15.16 9.23 27.14 11.22 39.58s-6.32 11.45-12 26.88c-3.74 10.27-1 18.86-3 32.26a35.1 35.1 0 0 1 12.41 6.5L83.11 306s15.24-39.51 18.36-49.77 5.76-30.87-2.18-35.49z"/><rect class="cls-8" x="272.6" y=".49" width="126.61" height="105.46" rx="3.33" ry="3.33"/><rect class="cls-2" x="347.88" y="57.32" width="34.22" height="3.53" rx="1.42" ry="1.42"/><path class="cls-9" d="M232.74 301.31c5.91 7.47 18.16 16.79 28.93 24.27 8.94 6.2 18.41 8 24.58 10.88 4.67 2.21 10.9 2.47 13.25-1.95 5.09-9.56 15.07-24.2 16.3-48.75 1.1-21.87-1.24-85.24-1.24-85.24l-18.67 1.87s-1.86 20.6-2.49 28-13.4 64.08-13.4 67.5c-5.2-4.47-21.47-24.58-21.47-24.58z"/><path class="cls-10" d="M226.28 223.56c8.18 6.84 12.87 8.28 17.69 15.75 2.76 4.27 10.37 22.86 16.77 34a50.51 50.51 0 0 0 8.71 10.89s-12.76 20.1-24.45 23.14c-17.63 4.56-24.47 0-24.47 0z"/><path class="cls-7" d="M243.32 295.19c-2.18-3.95 1.87-12.23-3.73-24.52s-10-16.33-13.06-27.22l-1.65 2.2-3.65 61.15s6.12 5.1 23.75.54a30.73 30.73 0 0 0 7.81-4.15s-7.29-4.06-9.47-8z"/><path class="cls-11" d="M90.27 243.45C61.39 232 62.2 215.11 69.42 202.08c8.09-14.6 22.39-13 24.58-17.11 5-9.34-12.13-24.58 6.08-42.44 14.47-14.2 36.58.46 44.31-3 11.2-5 5.92-20.84 15.86-29.87 6.06-5.49 15.18-3.3 21.79-.31 9-16.18 21.46-18.66 29.55-16.8s12.44 14 12.44 14 10.58 3.74 13.07 14.94-.62 19.9 4.35 28.62 19.55 27.06 11.47 45.1-33.24 23.33-33.24 23.33z"/><path class="cls-12" d="M92.75 243.45C87.56 231 90.88 220 103 212.65c10.27-6.22 31.11-2.8 34.22-10.57s-2.49-14.31 2.8-20.54 15.85 2.8 20.21-1.55 2.81-18.67 14.32-27.38 31.73-15.24 43.24-6.84c8.56 6.25 17.11 13.75 17.73 21.19s-8.4 11.79-8.09 15.52 5.29 7.35 1.87 15.18-29.83 24.79-29.83 24.79z"/><path class="cls-10" d="M160.25 208c-25.81 7.77-37 6.13-51 17.81C104.16 230 60.7 288 60.7 288s7.79 9.32 19.92 10.87a204.86 204.86 0 0 0 26.13 1.25l5.36-10.5a1.54 1.54 0 0 1 2.91.66l1.44 48.4h92.64s2.8-18 5.6-24.25 13.16-14.32 14.62-19.29c2-7-.12-16.49-1.47-29.86-1.83-18.25-1.57-41.67-1.57-41.67l-11.89-8.42z"/><rect class="cls-6" x="248.75" y="90.46" width="88.35" height="52.82" rx="3.02" ry="3.02"/><path class="cls-8" d="M346.29 214.83h64.08v34.84h-64.08z"/><path class="cls-6" d="M86.69 100.13v.26a1.17 1.17 0 0 1-2.06.73l-2.24-2.65a5.29 5.29 0 0 0-4-1.85H54.1a7.31 7.31 0 0 1-7.31-7.31V73.75a7.32 7.32 0 0 1 7.31-7.31h32.67a7.32 7.32 0 0 1 7.31 7.31v15.56A7.3 7.3 0 0 1 89.61 96a4.61 4.61 0 0 0-2.92 4.13z"/><circle class="cls-13" cx="58.41" cy="81.74" r="2.96"/><circle class="cls-13" cx="70.43" cy="81.74" r="2.96"/><circle class="cls-13" cx="82.46" cy="81.74" r="2.96"/><rect class="cls-2" x="288.98" y="18.33" width="38.57" height="46.04" rx="2.69" ry="2.69"/><rect class="cls-2" x="347.88" y="18.33" width="34.22" height="3.53" rx="1.42" ry="1.42"/><rect class="cls-2" x="347.88" y="37.82" width="34.22" height="3.53" rx="1.42" ry="1.42"/><rect class="cls-2" x="288.98" y="76.81" width="93.12" height="3.53" rx="1.42" ry="1.42"/><path class="cls-14" d="M292.92 64.37c3.94-10.37 7.05-8.92 12.65-10s4.77-8.71 9.33-14.82 12.65-6.54 12.65-6.54v28.23a3.13 3.13 0 0 1-3.12 3.13z"/><path class="cls-15" d="M349.52 220.15l27.24 14.12a6.48 6.48 0 0 0 6.18-.12l24.41-14a6 6 0 0 0 3-5.2v-.17h-64.06a6 6 0 0 0 3.23 5.37z"/><path class="cls-7" d="M185 311.06c-2.93-1.65-23.22-2.9-32.76-5s-5.81-6.63-10.37-14-7.47-3.45-14.11-5.12-3.73-8.28-4.14-13.68-4.15-4.14-11.2 0c-5.22 3.07-16.58 18.56-22.13 26.39 8.84.54 16.42.37 16.42.37l5.36-10.5a1.54 1.54 0 0 1 2.91.66l1.44 48.4H185s3-25.87 0-27.52z"/><rect class="cls-4" x="260.26" y="103.15" width="12.44" height="12.44" rx=".94" ry=".94"/><rect class="cls-13" x="290.43" y="103.15" width="31.73" height="2.8" rx="1.12" ry="1.12"/><rect class="cls-13" x="290.43" y="114.02" width="31.73" height="2.8" rx="1.12" ry="1.12"/><rect class="cls-13" x="290.43" y="124.88" width="31.73" height="2.8" rx="1.12" ry="1.12"/><path class="cls-9" d="M315.4 209.47l-.47-15.3s5.9-19.33 6-22.66.55-3.85-.17-5.49.43-2.34-.63-4.31-3.22-1.9-3.75-2.71.4-3.18-.3-4.49-5-1.51-5.42-2.83-4.85-11.67-5.56-13-3.17-.23-3 1.09c-2.05-1.77-3.52-.56-3.65.61s1.44 8.62 1.52 11.44.22 12.32.22 12.32l-3.31 11.05-1.43-3.57a65.55 65.55 0 0 0-1.28-8.13c-1-4.3-3.88-7.2-5.21-7s-.94 2.42-.26 4.31c1.56 4.37 1.06 18.4 1.06 18.4s3.07 11 3.82 13.61 2 17.26 2 17.26z"/><path class="cls-13" d="M231.05 295.81a15.32 15.32 0 0 1-1.81-.1l.16-1.24c7.72.95 20.26-5.65 25.48-10.61a106.13 106.13 0 0 0 7.46-7.71l1 .8a104.63 104.63 0 0 1-7.55 7.81c-4.48 4.24-16.04 11.05-24.74 11.05zm-121.89 0a110.37 110.37 0 0 1-11-2.19c-5.84-1.52-25.68-13.33-29.48-17.56l.93-.83c3.72 4.14 23.14 15.7 28.86 17.18a103.48 103.48 0 0 0 10.81 2.16zm77.78-62.92c-19.39 0-34.65-13.77-38.61-21.35l1.11-.57c3.83 7.34 18.64 20.68 37.49 20.68h1.2a54 54 0 0 0 32.68-12.1l.85.91a55.34 55.34 0 0 1-33.49 12.43h-1.23z"/><path class="cls-9" d="M67.35 293.56c-3 6.89-6.84 16.22-8.63 25.48-1 5.38 1.09 11.73 6.47 12.76 11.06 2.12 29.71 7.45 40 7.45 15.55 0 87.49-.62 87.49-.62v-19.9s-25-4-33.64-5.91-47.89-12.77-52.24-12.75c-2.29 0-15.81.85-26.13-1.25-9.25-1.82-13.32-5.26-13.32-5.26zm143.93-177.97c-2.8 13.07-12.32 28.62-20 31.74s-10.09 1.06-10.09 1.06-.57 23.08-2.25 39.09c-1.33 12.59-12.77 19.26-18.68 20.51s10 16.17 25.52 15.55 28.62-8.4 28.62-8.4-7.47-7.46-7.78-10.26 2.18-25.82 2.18-25.82 6.55.1 10.58-2.18c4.66-2.64 6.9-17.08 6.9-24.3 0-9.8-.66-15.88-3.48-24.54-2.35-7.19-11.52-12.45-11.52-12.45z"/><path class="cls-4" d="M228.44 146.08c-5.3 0-9.62-4.58-9.62-10.21s4.32-10.21 9.62-10.21 9.62 4.58 9.62 10.21-4.31 10.21-9.62 10.21zm0-19.18c-4.62 0-8.37 4-8.37 9s3.75 9 8.37 9 8.38-4 8.38-9-3.76-9-8.38-9zM204.18 150A10.82 10.82 0 1 1 215 139.15 10.83 10.83 0 0 1 204.18 150zm0-20.39a9.58 9.58 0 1 0 9.57 9.57 9.59 9.59 0 0 0-9.57-9.6z"/><path class="cls-7" d="M111.86 301a33 33 0 0 0-5.11-.88c-2.17 0-14.36.76-24.4-.93-3 4.13-4.49 7.32.76 6.84 6.89-.67 22.18-6.6 28.75-5.03z"/><path class="cls-9" d="M243.34 283.36c.33 1.7-5.27 6.84-8.09 9.45 3.21-1.16 10.44-3.76 11.49-4.07 1.35-.4 1.34-.12 1.66 1.18s-3.25 3.7-4.61 4.78c-1 .8-7.76 3.87-11.26 5.42 3.72.22 12.56.77 14.24 1.07 2.15.39 2.29 1.06 1.71 2.27s-4 1.37-8.23 1.58h-9.6c-.05.24-.11.48-.17.72 2 0 4.26 0 5.16.07 1.77.1 4.67.41 4.2 2.51-.36 1.62-7.38 2.12-10.51 2.26-1.22 5.22-2.2 9.67-2.2 9.67s13.57-9.73 15.74-7.53-3.86 5.57-7.71 8.28-9.56 13.68-21.89 18.38c-2.59 1-8 .45-8 .45l-27.69-1.16-1.7-22.57L200 320s10.9-10.75 13.13-13.15 13.86-14.24 14.33-15.2 10.28-7.88 12.27-8.92 3.2-1.48 3.61.63z"/><path class="cls-16" d="M185.77 223.54c15.55-.62 28.62-8.4 28.62-8.4s-7.47-7.46-7.78-10.26 2.18-25.82 2.18-25.82-10.89-1.56-16.16-5c-4-2.62-5.74-7.65-6.19-25.29-3.91.73-5.26-.42-5.26-.42s-.57 23.08-2.25 39.09c-1.33 12.59-12.77 19.26-18.68 20.51s9.96 16.21 25.52 15.59z"/><circle class="cls-17" cx="337.09" cy="179.06" r="6.59"/><circle class="cls-17" cx="27.43" cy="228.59" r="6.59"/></g></g></svg>