<svg xmlns="http://www.w3.org/2000/svg" viewBox="0 0 475.63 341.03"><defs><style>.cls-1{isolation:isolate}.cls-2{fill:#80ccff}.cls-3{fill:#dff0ff}.cls-4{fill:#e7e586}.cls-5{fill:#fff}.cls-6{fill:#213a6d}.cls-7{fill:#2e9dff}.cls-8{fill:#2468ff}.cls-9{fill:#050f8f}.cls-10{fill:#4073bf}.cls-11{fill:#e88f80}.cls-12{fill:#11175b;opacity:.25;mix-blend-mode:overlay}.cls-13{opacity:.2}.cls-14{fill:#edb9ae}.cls-15{fill:#f1cabf}.cls-16{fill:#1d425b}.cls-17{fill:#e9f7ff}.cls-18{fill:#e68a78}</style></defs><title>participant_step_1</title><g class="cls-1"><g id="Layer_3" data-name="Layer 3"><path class="cls-2" d="M156.86 96.78c35.11-20.93 89-139.11 243.26-79 117.3 45.69 42.6 245.11-67.92 301.3-84.92 43.17-291.83 27.74-276.61-113 9.27-85.84 69.16-90.16 101.27-109.3z"/><path class="cls-3" d="M157.12 96.72c-19.39 11.56-48.91 17.72-71.3 39.69 44.27 49.44 150.6 82.14 215 38.77 51.2-34.52 87.16-107.92 65-168.5-128.09-31.04-176.35 70.76-208.7 90.04z"/><circle class="cls-4" cx="161.12" cy="94.2" r="10.59"/><circle class="cls-5" cx="355.64" cy="125.06" r="18.33"/><path class="cls-6" d="M363 249.57c-5.45-38.26-7.62-62.66.24-65.73 10.06-3.92 8.59 31.86 17.17 28.18s-9.92-54.2 6-62.65C398.33 143 398.8 183.91 406 181.3c12.12-4.43-5.3-54.81 11.33-58.85 11.49-2.8 6.51 20.5 10.06 21 4.93.7 29.89-49.25 46.2-36.41 11.2 8.81-26.4 42.53-25.4 46.92s22.27-10.77 23.77-2.55c3.19 17.51-51.7 32.89-46.05 39 3.19 3.46 27.78-5.37 30 1.72 5.09 16.69-37.2 19.17-49.91 28.35-7 5.06 15.16 10.51 13.88 18.71-2.18 14.08-43.62 24.83-50.82 26.91S363 249.57 363 249.57z"/><path class="cls-7" d="M353.16 286a10.87 10.87 0 0 1-1.55-11.19c14.09-32.95 36.74-52 60.29-57.58 26.61-6.25 37.62 3.33 33.82 13.66-7.83 21.28-31.91 12.5-50.74 30.71-4.51 4.36-16.56 18.65-23.47 26.75a10.8 10.8 0 0 1-16.56-.17zm-205.88 42.58c3.2-28.43 16-41.63 20.9-36.69s-10.45 39.72-10.45 39.72zm-70.86-70.87a123.81 123.81 0 0 0-30.25-7.28l2.65 6.88s-14.28-5.71-18.65-7.09C12.94 251.72 1.8 259.08.76 269c-1.11 10.74 8.68 15.61 22.59 18.79l18.06-8.29-2.77 11.08c13.93 2.19 29.26 4.15 41.46 8.67 17.9 6.67 58.9 26.51 58.9 26.51s-19.61-52.14-62.58-68.05z"/><path class="cls-6" d="M130.11 235.08c-14.57-23.71-33.54-41.79-51.73-51.6l-3.22 10.44-6.74-15c-17.29-6.5-32.92-4.65-42 8-19.76 27.47 29.44 58.65 61.7 77.86 33.25 19.79 50.92 61 50.92 61l8.27 2.82s14.29-42.27-17.2-93.52z"/><path class="cls-4" d="M344.6 285.49c4.66-19.51 18-29.93 38.25-32.66s24.7 3.77 20.63 12.32-47.65 40-47.65 40z"/><path class="cls-8" d="M143 327.38c0-.46-4.48-46.95-26.37-81.62-21.77-34.48-47.68-46.23-87.76-61.49l.43-1.16c40.33 15.35 66.4 27.18 88.38 62s26.51 81.7 26.55 82.17z"/><path class="cls-9" d="M138.5 326.11c-21.88-32-49.76-46.83-69.3-53.62-24-8.34-48.85-9.38-68.24-2.86l-.39-1.17c19.64-6.61 44.81-5.56 69 2.86 19.72 6.86 47.85 21.81 69.92 54.1z"/><path class="cls-8" d="M358.71 266l-1.22-.15c2.73-22.39 84.69-126.61 115.62-159.27l.89.85C443.16 140 361.42 243.86 358.71 266z"/><path class="cls-9" d="M355.14 266.31l-1-.72c17.21-23.88 71.33-45.28 92.31-40.68l-.26 1.21c-20.36-4.46-74.52 17.27-91.05 40.19z"/><path class="cls-10" d="M341.06 311.24a244.58 244.58 0 0 1-40.75 8.63c-23.05 2.89-65-8.63-65-8.63s-6.35 19.54-9.08 29.07c40.64.28 80-7.52 107-21.26 2.84-1.45 5.67-3 8.46-4.63z"/><path class="cls-11" d="M357.11 135.47c-15.41-7.82-71.21-16-71.21-16l-60.48 21.67a32.47 32.47 0 0 0-20.92 24.37c-5.51 28.46-14.1 76.11-12.85 81.15 1.64 6.68-1.24 6.58-1.24 6.58s-8-19.66-16-27.16c-1.73-3.17-10.29-15.23-10.29-15.23L146 218.21s6.53 13.14 8.23 17.63c-1 15.74 11.64 34.72 24.28 55 12.25 19.65 18.53 20.38 24.7 20.37 4.28 0 12.48-11 18-22.81-.15 5.5-.25 9.42-.25 10.86 0 7.82 1.36 16.38 11.38 21.36s41.31 8 54.48 7.93c5.3 0 16.5-.78 28-1.72a153.07 153.07 0 0 0 18.46-7.81 178.42 178.42 0 0 0 24.72-15.3c8.84-6.48 12.56-108.64 8.92-137.79-1.62-12.68-2.09-26.54-9.81-30.46z"/><path class="cls-5" d="M138.14 171.81l16.51 50.59a4.52 4.52 0 0 0 5 3.07l68.82-10.21a4.52 4.52 0 0 0 3.68-5.71l-14.67-51.31a4.52 4.52 0 0 0-5-3.22l-70.65 10.92a4.52 4.52 0 0 0-3.69 5.87z"/><path class="cls-12" d="M203.17 311.24c4.28 0 12.48-11 18-22.81 1.6-8.89 3.76-25.57 3.15-35.14s-8-43.83-8-43.83L196.7 208l-3.32 20.49c6.82 8.39 19.78 28.45 15.15 35.24s-7.41 13.28-5.25 20.07-5 8.15-9.9 7-14.9 0-14.9 0c12.24 19.72 18.52 20.45 24.69 20.44z"/><g class="cls-13"><path class="cls-5" transform="rotate(-88.99 229.13 228.596)" d="M140.2 227.98h177.84v1.24H140.2z"/><path class="cls-5" transform="rotate(-89.44 219.788 183.688)" d="M179.62 183.07h80.34v1.23h-80.34z"/><path class="cls-5" transform="rotate(-88.99 248.651 228.444)" d="M152.32 227.82h192.64v1.24H152.32z"/><path class="cls-5" transform="rotate(-88.99 268.467 212.368)" d="M153.33 211.75h230.24v1.24H153.33z"/><path class="cls-5" transform="rotate(-88.88 287.761 211.967)" d="M171.12 211.35h233.27v1.24H171.12z"/><path class="cls-5" transform="rotate(-89.33 306.507 225.308)" d="M204.22 224.69H408.8v1.23H204.22z"/><path class="cls-5" transform="rotate(-88.99 326.776 225.021)" d="M228.85 224.4h195.82v1.24H228.85z"/><path class="cls-5" transform="rotate(-88.99 346.342 222.341)" d="M255.99 221.73h180.67v1.24H255.99z"/></g><g class="cls-13"><path class="cls-5" transform="rotate(-88.99 238.512 229.083)" d="M145.19 228.47h186.62v1.24H145.19z"/><path class="cls-5" transform="rotate(-88.99 258.062 227.488)" d="M159.29 226.87h197.52v1.24H159.29z"/><path class="cls-5" transform="rotate(-88.9 278.443 211.844)" d="M161.22 211.35h233.26v1.24H161.22z"/><path class="cls-5" transform="rotate(-88.9 297.999 210.859)" d="M179.79 210.4h235.18v1.24H179.79z"/><path class="cls-5" transform="rotate(-88.88 316.65 225.865)" d="M215.82 225.24h201.64v1.24H215.82z"/><path class="cls-5" transform="rotate(-88.99 336.19 223.858)" d="M241.58 223.24h189.19v1.24H241.58z"/><path class="cls-5" transform="rotate(-88.99 355.652 220.958)" d="M270.14 220.34h171v1.24h-171z"/></g><path class="cls-14" d="M271.5 104.19l1 20.17s-15.44 10.29-8.44 18.11 22.41 8.4 32.28 2.61A22.43 22.43 0 0 0 307.66 123l-9-43.52z"/><path class="cls-15" d="M250.1 42.15c-3.09 16.37-1.33 17.69 0 23.44s-3 6.25-.83 17.3 7.3 28.77 13.27 31.09c5.53 2.15 26.92-10.8 31.34-15.66s13.71-37.59 13.71-37.59L286.73 31.1z"/><path class="cls-16" d="M229.9 23.72c3.18 15.7 9.26 25.29 23.42 28.2s26.68-3.13 29.78-1.81 1.69 13.38 5.48 14.87c3.58 1.42 5.9-7.06 12.25-5.33 5.47 1.49-1 15.45-4.79 16.28-.93.93-.54 6.28 0 11.12a5.91 5.91 0 0 0 8.52 4.59l5.55-2.77s-4.82-4.06 0-16.21c3.09-7.82 8.42-23.21 6.66-35.87-.64-4.65-7.85-3-9.18-3s2.24-8.49-5.28-12.47-19.88-2.61-24.31-3.93-11.65-10.31-17.18-10.45c-6.57-.17-8.85 8.51-12.44 7.63s-6.3-9.36-12.8-8.34c-5.5.86-7.2 10.01-5.68 17.49z"/><path class="cls-12" d="M286.73 328.58c5.3 0 16.5-.78 28-1.72a153.07 153.07 0 0 0 18.46-7.81A178.42 178.42 0 0 0 358 303.72c8.84-6.48 12.56-108.64 8.92-137.79-1-8.09-1.58-16.66-3.86-22.82l-18.28 2.82S321.3 167.58 313.07 190s-26.34 88.7-35.08 98c-7.14 7.57-23.06 11.39-26 37.62a253.58 253.58 0 0 0 34.74 2.96z"/><path class="cls-5" d="M279.87 160.83h-1.91A26.29 26.29 0 0 1 257 148.18c-3.71-6-4.54-12.77-2.2-18.07l1.13.5c-2.17 4.93-1.38 11.25 2.12 16.92a25 25 0 0 0 19.95 12c8.61.43 21-2.09 29.84-10.43 6.55-6.17 9.93-14.26 10.05-24.07h1.23c-.12 10.16-3.63 18.56-10.43 25-8.5 7.97-20.11 10.8-28.82 10.8z"/><path class="cls-15" d="M155.11 197.63a90.33 90.33 0 0 0 7.1-8.53c1.06-1.54 1.2-2.93.29-3.45s-4.86 4-6.6 5.5c-1.31 1.09-6.18 5.42-8.89 7.84l-.06-.19c1.23-1.38 2.45-2.7 3.17-3.48 1.92-2.1 8.65-10.78 8.9-12.23s-2-2.62-4.15.24c-1.67 2.23-6.59 7.54-9.49 10.65l-.07-.21c1.63-2.12 3.16-4.11 3.81-5.09 1.79-2.69 3.68-5.6 3.35-6.66s-1.82-.06-3.22 1.42c-.64.67-3.34 3.66-6.24 6.84l-.39.35c-.06-3.25-.18-6.71-1.19-8.81-1.09-2.26-2-3.84-2.42-3.18s-.06 6.13-.66 8.31a26.84 26.84 0 0 0-.4 7.28 19.84 19.84 0 0 1-.16 3.77c-.44 3.8.83 7.91 2.3 11.72a25.84 25.84 0 0 0 5.87 8.49l6.46-2.65-.85-2.61a4.25 4.25 0 0 1 1.64-4.83c4.84-3.3 8.76-7.85 8.46-9.08s-.71-1.45-1.85-.52a117.68 117.68 0 0 1-10.43 7.48h-.09a3.16 3.16 0 0 1 .7-3.15c2-2.09 4.13-4.26 5.11-5.22z"/><path class="cls-17" d="M228.43 215.26a4.52 4.52 0 0 0 3.68-5.71l-14.67-51.31a4.52 4.52 0 0 0-5-3.22l-14.19 2.19c.12 6.57.12 20.16-1.73 24.78-2.47 6.17-10.8 3.08-15.12 13.47s4.32 15.85-5.87 21.41c-7.55 4.12-9.84 1.3-11.17 7.9z"/><path class="cls-15" d="M242.44 240c-6.92-6-25.11-19.05-28.73-23.14s-8-11.31-11.17-16.24-5-10.66-4.26-11.67 1.23-1.06 1.91.24a118 118 0 0 0 6.72 10.95c1.92 2.42 2.18 3.4 2.75 3s-4.36-10-5.74-12.58a91.5 91.5 0 0 1-4.22-10.26c-.55-1.79-.26-3.16.76-3.38s3.42 5.32 4.65 7.23 6.74 11.15 7.34 12.2 1 2.48 1.54 2.33-3.16-7.5-4.44-10-5.41-12.73-5.25-14.19 2.63-2 3.93 1.36 6.35 13 7.5 15.28 2.16 4.57 3.05 4.84-5-11.6-6.1-14.62-2.33-6.28-1.77-7.25 1.78.35 2.82 2.11 9.21 16.56 10.51 18.32 7.34 7.85 8.6 7.8.52-2.56-1.14-5.58-3.53-6.39-3.71-8.9-.22-4.3.51-4 3.1 5.29 4.7 6.88a27.19 27.19 0 0 1 5 8.67c.7 2.49 1.5 13.55 3.15 15.57s10.18 8.88 11.8 9.89-8.98 16.67-10.71 15.14z"/><path class="cls-18" d="M336.22 143.11c-11.28 15.22-16.68 59.07-19.24 69.76s-5.76 33.53-5.76 33.53-36.5-16.86-42-17.32a45.5 45.5 0 0 0-8.92 0L248.78 221a24.21 24.21 0 0 1-4.86 9 32.36 32.36 0 0 1-8.34 6.41l10.6 8.82s4.06 10.14 7 13.53 45.82 36.2 59 36.2c18 0 33.57-31.78 39.55-41.61s23.35-69.4 16.51-98-23.16-24.19-32.02-12.24z"/><path class="cls-5" d="M246.34 245.77l-.31-1.2c6.58-1.71 11.61-9.1 13.69-15.67l1.18.37c-2.18 6.89-7.53 14.67-14.56 16.5z"/><circle class="cls-3" cx="183.52" cy="192.39" r="6.56"/><circle class="cls-4" cx="100.33" cy="198.35" r="6.54"/></g></g></svg>